<?xml version="1.0" encoding="UTF-8" standalone="no"?>
<!-- Created with Inkscape (http://www.inkscape.org/) -->

<svg
   xmlns:dc="http://purl.org/dc/elements/1.1/"
   xmlns:cc="http://creativecommons.org/ns#"
   xmlns:rdf="http://www.w3.org/1999/02/22-rdf-syntax-ns#"
   xmlns:svg="http://www.w3.org/2000/svg"
   xmlns="http://www.w3.org/2000/svg"
   xmlns:xlink="http://www.w3.org/1999/xlink"
   xmlns:sodipodi="http://sodipodi.sourceforge.net/DTD/sodipodi-0.dtd"
   xmlns:inkscape="http://www.inkscape.org/namespaces/inkscape"
   width="32px"
   height="32px"
   id="svg3377"
   version="1.1"
   inkscape:version="0.48.5 r10040"
   sodipodi:docname="favicon.svg"
   inkscape:export-filename="/home/chris/devel/pentandra/researchcases.org/app/apple-touch-icon.png"
   inkscape:export-xdpi="506.25"
   inkscape:export-ydpi="506.25">
  <defs
     id="defs3379" />
  <sodipodi:namedview
     id="base"
     pagecolor="#ffffff"
     bordercolor="#666666"
     borderopacity="1.0"
     inkscape:pageopacity="0.0"
     inkscape:pageshadow="2"
     inkscape:zoom="27.6875"
     inkscape:cx="16"
     inkscape:cy="16"
     inkscape:current-layer="layer1"
     showgrid="true"
     inkscape:grid-bbox="true"
     inkscape:document-units="px"
     inkscape:snap-page="false"
     showguides="true"
     inkscape:guide-bbox="true"
     inkscape:snap-bbox="true"
     inkscape:object-paths="true"
     inkscape:bbox-nodes="true"
     inkscape:bbox-paths="true"
     inkscape:object-nodes="true"
     inkscape:snap-nodes="true"
     inkscape:window-width="1676"
     inkscape:window-height="1046"
     inkscape:window-x="0"
     inkscape:window-y="0"
     inkscape:window-maximized="0"
     inkscape:snap-grids="true">
    <inkscape:grid
       empspacing="5"
       visible="true"
       enabled="true"
       snapvisiblegridlinesonly="true"
       type="xygrid"
       id="grid4549" />
  </sodipodi:namedview>
  <metadata
     id="metadata3382">
    <rdf:RDF>
      <cc:Work
         rdf:about="">
        <dc:format>image/svg+xml</dc:format>
        <dc:type
           rdf:resource="http://purl.org/dc/dcmitype/StillImage" />
        <dc:title></dc:title>
      </cc:Work>
    </rdf:RDF>
  </metadata>
  <g
     id="layer1"
     inkscape:label="Layer 1"
     inkscape:groupmode="layer">
    <g
       id="g4521">
      <rect
         y="0"
         x="0"
         height="32"
         width="32"
         id="rect4187"
         style="fill:#333333;fill-opacity:1;stroke:none" />
      <g
         id="g4218">
        <g
           id="g3305"
           transform="matrix(0.00835726,0,0,-0.00835726,6.2744102,21.188049)">
          <path
             sodipodi:nodetypes="sscscssssccs"
             id="path3307"
             d="m 326.13438,-161.98032 c 0,-45.24783 7.42613,-83.14289 31.18124,-113.68518 23.75511,-30.54228 52.64862,-40.53383 83.14288,-52.6006 91.18902,-15.01474 415.92425,-46.06529 534.91075,-75.14683 89.31865,-21.83041 79.38475,-100.47194 68.70375,-215.19059 0,-33.93588 -60.83422,-76.83388 -119.65641,-76.83388 l -971.706778,2e-5 c -42.985441,0 -71.265332,4.52477 -84.839682,13.57434 -13.57435,9.04956 -20.36152,32.80467 -20.36152,71.26534 l 0,1111.72474 478.62577,0 z"
             inkscape:connector-curvature="0"
             style="fill:#fafafa;fill-opacity:1" />
        </g>
        <use
           x="0"
           y="0"
           xlink:href="#g3305"
           id="use3321"
           transform="matrix(-1,0,0,-1,32,32)"
           width="256"
           height="228.58984" />
        <use
           x="0"
           y="0"
           xlink:href="#g3305"
           id="use3323"
           transform="matrix(-1,0,0,1,32,-1.65524e-7)"
           width="256"
           height="228.58984" />
        <use
           x="0"
           y="0"
           xlink:href="#use3323"
           id="use3325"
           transform="matrix(-1,0,0,-1,32,32)"
           width="256"
           height="228.58984" />
      </g>
      <path
         sodipodi:nodetypes="ccccccccssssccccccccccccccsccccccccccccccccccccccc"
         inkscape:connector-curvature="0"
         id="path3007"
         d="m 16.367252,11.969938 c -0.0112,0.0023 -0.03507,0.01821 -0.05871,0.03472 -0.284963,-0.0083 -0.551255,0.01574 -0.905163,0.12015 -3.137207,0.163966 -4.324113,3.271818 -3.276226,5.463046 0.486559,1.398012 1.856617,2.47819 3.468493,2.339014 -0.03402,0.119905 0.25841,0.173487 1.489924,-0.05357 0.01939,-0.0053 0.03658,-0.0066 0.05344,-0.01587 l 0.504689,-0.0401 c 0.09547,-0.119989 0.158443,-0.44189 0.288332,-0.360454 0.129886,0.08156 -0.325944,0.501555 -0.200247,0.41387 0.957772,-0.668211 2.019665,-1.302718 2.317674,-2.365725 0.436081,-1.555599 0.174775,-3.742693 -1.097439,-4.72076 -0.462279,-0.355431 -1.06713,-0.454937 -1.631433,-0.627481 0.0618,-0.03951 0.100301,-0.07225 0.05082,-0.06664 -0.05768,0.0065 -0.113748,0.01708 -0.170888,0.02655 -0.05577,-0.01832 -0.111075,-0.03807 -0.165533,-0.05871 -0.238309,-0.01799 -0.436321,-0.03814 -0.62214,-0.04801 -0.02066,-0.02818 -0.03148,-0.04183 -0.04531,-0.04009 z m 0.0988,0.320414 c -0.213948,0.05551 -0.427179,0.103745 -0.646142,0.128188 -0.119299,0.01348 -0.245187,-0.04845 -0.36581,-0.08531 0.0066,-0.0065 0.01235,-0.0065 0.01864,-0.01079 0.0068,-0.0043 0.02056,-0.0077 0.02657,-0.01079 z m -1.807643,0.528683 c -0.118001,0.138194 -0.234136,0.280181 -0.368485,0.397838 -0.05865,0.05122 -0.141866,0.06257 -0.210943,0.09881 -0.174936,0.09207 -0.347203,0.190918 -0.520661,0.285697 -0.0066,0.0066 -0.01079,0.0066 -0.016,0.01079 0.242194,-0.259981 0.617482,-0.492533 1.116118,-0.793025 z m 3.270863,6.322795 c 0.174269,2.28e-4 0.319156,0.02493 0.21363,0.125525 -0.197445,0.188299 -0.510325,0.182422 -0.771681,0.272339 0.0091,-0.01928 0.01941,-0.03741 0.02936,-0.05596 -0.638888,0.441478 -0.523305,0.466096 -0.987926,0.269689 0.370124,-0.125363 0.745091,-0.315932 1.121446,-0.584753 0.01508,-0.0022 0.220942,-0.02682 0.395166,-0.02656 z m -0.528686,0.341788 c 0.04667,-0.03233 0.08589,-0.05938 0.141515,-0.09611 0.01766,-0.01172 -0.03102,-0.06073 -0.04523,-0.04531 -0.03693,0.03948 -0.06838,0.08903 -0.0961,0.141526 z m -1.324349,0.09348 c -0.0066,0.0042 -0.04145,0.02291 -0.06399,0.03469 -0.0042,-6.53e-4 -0.0065,-0.0028 -0.0065,-0.0042 0.03233,-0.01478 0.07898,-0.03563 0.07224,-0.03218 z m 0.80904,0.299046 c -0.12606,0.01643 -0.249282,0.02642 -0.368476,0.02933 z"
         style="fill:#ffffff;fill-opacity:1;stroke:none" />
    </g>
  </g>
</svg>
