<svg xmlns="http://www.w3.org/2000/svg" width="256" height="58.959"><g><text style="text-align:start;line-height:125%;-inkscape-font-specification:EB Garamond" x="280.946" y="497.736" font-size="12" letter-spacing="5.74" word-spacing="0" font-family="EB Garamond" transform="translate(-153.975 -425.482)"/><text style="text-align:start;line-height:125%;-inkscape-font-specification:EB Garamond" x="270.531" y="440.287" font-size="12" letter-spacing="5.74" word-spacing="0" font-family="EB Garamond" transform="translate(-153.975 -425.482)"/><path d="M144.468 14.894c-.057-.116-.087-.23-.087-.346 0-.403.29-.604.865-.604.92 0 1.698.317 2.33.95 6.332 6.56 11.828 11.05 16.49 13.467.69.404 1.036.778 1.036 1.124 0 .403-.373.777-1.12 1.122-4.663 2.417-10.16 6.907-16.49 13.468-.634.633-1.41.95-2.332.95-.575 0-.863-.202-.863-.605 0-.116.03-.23.086-.346 1.67-4.317 4.433-8.518 8.29-12.605H88.523c-.287 0-.56-.1-.82-.303-.26-.2-.388-.417-.388-.647l.086-.087v-.172c.69-1.84 1.583-2.762 2.676-2.762h62.59c-3.682-3.8-6.416-8-8.2-12.605" fill="#fff"/><path d="M33.742.013c-.082.012-.257.133-.43.254-2.084-.066-4.032.114-6.62.88C3.74 2.344-4.94 25.078 2.725 41.106c3.56 10.226 13.58 18.127 25.37 17.11-.248.876 1.892 1.268 10.9-.392.143-.026.267-.06.39-.117l3.692-.293c.698-.877 1.16-3.232 2.11-2.636.95.594-2.385 3.668-1.466 3.026 7.006-4.888 14.774-9.53 16.954-17.305 3.19-11.378 1.278-27.376-8.028-34.53-3.38-2.6-7.806-3.328-11.933-4.59.452-.29.734-.528.37-.488-.42.047-.83.124-1.25.195-.407-.135-.812-.28-1.21-.43-1.743-.13-3.192-.277-4.55-.35-.153-.207-.232-.308-.333-.294zm20.98 2.33c-1.564.406-3.124.76-4.726.938-.872.1-1.793-.353-2.676-.624.045-.028.092-.05.137-.078.06-.02.15-.064.195-.078l7.07-.156zM42.368 9.024c-.864 1.01-1.713 2.05-2.696 2.91-.43.376-1.038.457-1.543.723-1.28.673-2.54 1.397-3.808 2.09-.04.028-.08.05-.117.078 1.77-1.902 4.516-3.603 8.164-5.8zm6.402 7.887c4.557 0 7.695 3.998 7.695 8.555 0 5.506-2.908 14.848-13.964 18.573-.237.12-.315.41-.078.488 2.933.833 5.906 5.43 9.512 5.43 2.932 0 5.363-2.5 5.957-2.5.277 0 .547.27.547.665 0 1.387-3.485 4.2-8.438 4.2-4.834 0-6.982-5.938-11.777-5.938-3.012 0-6.648 1.386-7.6 1.386-.553 0-1.268.008-1.268-.547-.08-.752.36-1.382 1.113-1.66 4.082-1.545 7.214-1.76 10.86-2.87.356-.08.278-.508-.08-.587-4.238-.793-7.264-4.88-7.264-9.317 0-8.56 7.06-15.88 14.786-15.88zm8.016 5.195c-5.746 0-10.274 8.01-10.274 16.015 0 2.536 1.698 5.703 4.55 5.703 6.024 0 10.08-7.497 10.08-14.59 0-3.408-.95-7.13-4.356-7.13zm9.824 39.94c1.274.002 2.334.182 1.562.92-1.444 1.376-3.733 1.333-5.644 1.99.07-.14.142-.273.215-.41-4.675 3.23-3.83 3.41-7.228 1.973 2.707-.917 5.45-2.31 8.203-4.277.11-.01 1.616-.197 2.89-.195zm2.238 25.797c.342-.236.628-.432 1.035-.703.128-.085-.227-.445-.333-.332-.27.29-.5.652-.703 1.035zM54.086 90.12c-.04.02-.302.168-.468.255-.02-.005-.04-.015-.06-.02.236-.108.578-.26.528-.234zm.106 2.6c-.922.12-1.824.192-2.696.214l2.696-.215z" fill="#fff"/><path d="M227.648.012c-.082.012-.257.133-.43.254-2.084-.066-4.032.114-6.62.88-22.95 1.198-31.63 23.932-23.965 39.96 3.56 10.232 13.592 18.137 25.39 17.11-.252.878 1.866 1.27 10.88-.392.136-.025.25-.063.37-.117l3.73-.293c.7-.877 1.14-3.232 2.09-2.636.95.595-2.384 3.67-1.464 3.027 7.004-4.888 14.772-9.53 16.952-17.305 3.19-11.38 1.278-27.377-8.028-34.53-3.38-2.6-7.805-3.33-11.933-4.59.453-.29.735-.53.372-.49-.422.048-.832.125-1.25.196-.407-.135-.812-.28-1.21-.43-1.744-.13-3.193-.277-4.552-.35-.152-.207-.23-.308-.332-.294zm137.325 2.332c-1.563.405-3.127.76-4.727.937-.872.1-1.793-.353-2.676-.624.045-.028.092-.05.137-.078.06-.02.15-.064.195-.078l7.07-.156zm-12.79 5.273c-.863 1.01-1.712 2.05-2.695 2.91-.43.376-1.038.457-1.543.723-1.28.673-2.54 1.397-3.808 2.09-.035.024-.064.053-.098.078 1.77-1.9 4.5-3.605 8.144-5.8zm10.016 13.297c.554 0 .626.203.507 1.035l-2.422 17.52c-.238 1.782.007 3.002.918 3.32 1.07.395 1.914.596 1.914 1.19 0 .397-.596.665-1.23.665-.476 0-2.512-.235-4.414-.235-1.863 0-3 .235-3.594.235-.635 0-1.31-.268-1.31-.665 0-.594 1.257-.756 2.168-1.152 1.308-.594 1.87-1.378 2.188-3.36l.43-3.027c.04-.276-.034-.428-.43-.428h-5.9c-.395 0-.678.15-.956.508l-2.85 3.3c-1.348 1.546-1.07 2.652-.158 2.97 1.07.395 1.895.596 1.895 1.19 0 .397-.596.665-1.23.665-.476 0-2.962-.235-4.864-.235-1.862 0-2.94.235-3.535.235-.634 0-1.308-.268-1.308-.665 0-.594 1.276-.756 2.187-1.152 1.308-.594 2.802-1.118 4.902-3.496l12.695-14.53c.673-.714 1.225-2.106 1.582-2.423.87-.754 2.297-1.466 2.812-1.466zm6.98 12.777c-.122.056-.3.236-.567.548l-4.922 5.625c-.553.634-.316.762 0 .762h4.396c.396 0 .41-.25.488-.566l.78-5.744c.05-.47.028-.715-.174-.625zm7.492 32.798c1.274.002 2.334.182 1.562.918-1.444 1.378-3.733 1.335-5.644 1.992.07-.14.143-.274.215-.41-4.666 3.225-3.83 3.41-7.227 1.973 2.707-.916 5.45-2.31 8.203-4.276.112-.01 1.617-.197 2.892-.196zm1.992 19.95c.344-.238.626-.432 1.035-.704.128-.085-.227-.445-.333-.332-.27.29-.5.652-.703 1.035zm-12.008 2.183c-.04.02-.302.168-.47.255-.018-.005-.037-.015-.057-.02.234-.108.576-.26.526-.234zm.106 2.6c-.916.118-1.81.19-2.676.214l2.676-.215z" fill="#fff"/></g></svg>