<svg xmlns="http://www.w3.org/2000/svg" width="1080" height="1920" opacity=".5"><path d="M-50,2099L-252,2094L148,2127Z" fill="#d88152" stroke="#d88152" stroke-width="1.51"/><path d="M148,2127L-252,2094L499,2221Z" fill="#d37545" stroke="#d37545" stroke-width="1.51"/><path d="M1050,-210L1234,118L1351,118Z" fill="#eb8c59" stroke="#eb8c59" stroke-width="1.51"/><path d="M1261,1841L1371,1919L1398,1623Z" fill="#c10724" stroke="#c10724" stroke-width="1.51"/><path d="M1439,492L1316,692L1501,1091Z" fill="#ce5f36" stroke="#ce5f36" stroke-width="1.51"/><path d="M1316,692L1309,1083L1501,1091Z" fill="#d35531" stroke="#d35531" stroke-width="1.51"/><path d="M1351,118L1439,492L1515,41Z" fill="#cf7c4f" stroke="#cf7c4f" stroke-width="1.51"/><path d="M1439,492L1501,1091L1515,41Z" fill="#c6693d" stroke="#c6693d" stroke-width="1.51"/><path d="M280,-388L666,-360L1529,-316Z" fill="#ffa973" stroke="#ffa973" stroke-width="1.51"/><path d="M666,-360L1050,-210L1529,-316Z" fill="#f99969" stroke="#f99969" stroke-width="1.51"/><path d="M1351,118L1515,41L1529,-316Z" fill="#cd835e" stroke="#cd835e" stroke-width="1.51"/><path d="M1050,-210L1351,118L1529,-316Z" fill="#e38c63" stroke="#e38c63" stroke-width="1.51"/><path d="M1371,1919L1333,2108L1530,1433Z" fill="#b70624" stroke="#b70624" stroke-width="1.51"/><path d="M1309,1083L1215,1129L1530,1433Z" fill="#d53b2b" stroke="#d53b2b" stroke-width="1.51"/><path d="M1068,1479L1398,1623L1530,1433Z" fill="#cf1e24" stroke="#cf1e24" stroke-width="1.51"/><path d="M1215,1129L1068,1479L1530,1433Z" fill="#dc2e27" stroke="#dc2e27" stroke-width="1.51"/><path d="M1398,1623L1371,1919L1530,1433Z" fill="#bd0c22" stroke="#bd0c22" stroke-width="1.51"/><path d="M1501,1091L1309,1083L1530,1433Z" fill="#c9392c" stroke="#c9392c" stroke-width="1.51"/><path d="M1515,41L1501,1091L1530,1433Z" fill="#c15635" stroke="#c15635" stroke-width="1.51"/><path d="M1529,-316L1515,41L1530,1433Z" fill="#c37046" stroke="#c37046" stroke-width="1.51"/><path d="M1351,118L1234,118L1439,492Z" fill="#db804d" stroke="#db804d" stroke-width="1.51"/><path d="M1050,-210L1046,-12L1234,118Z" fill="#f3915a" stroke="#f3915a" stroke-width="1.51"/><path d="M1143,1065L1309,1083L1316,692Z" fill="#e05931" stroke="#e05931" stroke-width="1.51"/><path d="M1194,1767L1261,1841L1398,1623Z" fill="#cb0b23" stroke="#cb0b23" stroke-width="1.51"/><path d="M1064,553L1316,692L1439,492Z" fill="#e16f3a" stroke="#e16f3a" stroke-width="1.51"/><path d="M1234,118L1064,553L1439,492Z" fill="#e57c44" stroke="#e57c44" stroke-width="1.51"/><path d="M1054,769L1143,1065L1316,692Z" fill="#e86231" stroke="#e86231" stroke-width="1.51"/><path d="M1068,1479L1194,1767L1398,1623Z" fill="#d61621" stroke="#d61621" stroke-width="1.51"/><path d="M666,-360L846,-230L1050,-210Z" fill="#ffa56d" stroke="#ffa56d" stroke-width="1.51"/><path d="M1261,1841L1333,2108L1371,1919Z" fill="#bb0126" stroke="#bb0126" stroke-width="1.51"/><path d="M1261,1841L949,1928L1333,2108Z" fill="#c70724" stroke="#c70724" stroke-width="1.51"/><path d="M949,1928L1043,2236L1333,2108Z" fill="#c20a23" stroke="#c20a23" stroke-width="1.51"/><path d="M831,220L1064,553L1234,118Z" fill="#f68845" stroke="#f68845" stroke-width="1.51"/><path d="M1143,1065L1215,1129L1309,1083Z" fill="#e24c2c" stroke="#e24c2c" stroke-width="1.51"/><path d="M1064,553L1054,769L1316,692Z" fill="#eb6e34" stroke="#eb6e34" stroke-width="1.51"/><path d="M1068,1479L969,1700L1194,1767Z" fill="#e0191d" stroke="#e0191d" stroke-width="1.51"/><path d="M863,1155L1068,1479L1215,1129Z" fill="#ef3f24" stroke="#ef3f24" stroke-width="1.51"/><path d="M1194,1767L949,1928L1261,1841Z" fill="#d00f21" stroke="#d00f21" stroke-width="1.51"/><path d="M863,1155L901,1429L1068,1479Z" fill="#f33e24" stroke="#f33e24" stroke-width="1.51"/><path d="M1143,1065L863,1155L1215,1129Z" fill="#ee4e28" stroke="#ee4e28" stroke-width="1.51"/><path d="M1046,-12L831,220L1234,118Z" fill="#f88f50" stroke="#f88f50" stroke-width="1.51"/><path d="M969,1700L949,1928L1194,1767Z" fill="#da161f" stroke="#da161f" stroke-width="1.51"/><path d="M773,464L900,580L1064,553Z" fill="#fa833b" stroke="#fa833b" stroke-width="1.51"/><path d="M831,220L773,464L1064,553Z" fill="#fc8b43" stroke="#fc8b43" stroke-width="1.51"/><path d="M969,683L1054,769L1064,553Z" fill="#f37232" stroke="#f37232" stroke-width="1.51"/><path d="M1054,769L805,942L1143,1065Z" fill="#f3642d" stroke="#f3642d" stroke-width="1.51"/><path d="M805,942L863,1155L1143,1065Z" fill="#f65d2c" stroke="#f65d2c" stroke-width="1.51"/><path d="M745,2110L833,2246L949,1928Z" fill="#d02927" stroke="#d02927" stroke-width="1.51"/><path d="M949,1928L833,2246L1043,2236Z" fill="#c71d25" stroke="#c71d25" stroke-width="1.51"/><path d="M947,-145L1046,-12L1050,-210Z" fill="#fb975f" stroke="#fb975f" stroke-width="1.51"/><path d="M900,580L969,683L1064,553Z" fill="#f67935" stroke="#f67935" stroke-width="1.51"/><path d="M901,1429L969,1700L1068,1479Z" fill="#ea2d1f" stroke="#ea2d1f" stroke-width="1.51"/><path d="M969,683L805,942L1054,769Z" fill="#f77031" stroke="#f77031" stroke-width="1.51"/><path d="M846,-230L947,-145L1050,-210Z" fill="#ff9d66" stroke="#ff9d66" stroke-width="1.51"/><path d="M947,-145L831,220L1046,-12Z" fill="#fd9859" stroke="#fd9859" stroke-width="1.51"/><path d="M863,1155L714,1257L901,1429Z" fill="#fa4e29" stroke="#fa4e29" stroke-width="1.51"/><path d="M714,1257L742,1397L901,1429Z" fill="#fa4b29" stroke="#fa4b29" stroke-width="1.51"/><path d="M697,169L831,220L947,-145Z" fill="#ff9d59" stroke="#ff9d59" stroke-width="1.51"/><path d="M846,-230L559,-72L947,-145Z" fill="#ffa768" stroke="#ffa768" stroke-width="1.51"/><path d="M559,-72L697,169L947,-145Z" fill="#ffa862" stroke="#ffa862" stroke-width="1.51"/><path d="M900,580L714,592L969,683Z" fill="#fc8038" stroke="#fc8038" stroke-width="1.51"/><path d="M714,592L805,942L969,683Z" fill="#fc7b36" stroke="#fc7b36" stroke-width="1.51"/><path d="M901,1429L742,1397L969,1700Z" fill="#f13a23" stroke="#f13a23" stroke-width="1.51"/><path d="M742,1397L576,1812L969,1700Z" fill="#f03e24" stroke="#f03e24" stroke-width="1.51"/><path d="M576,1812L949,1928L969,1700Z" fill="#e43025" stroke="#e43025" stroke-width="1.51"/><path d="M615,2027L745,2110L949,1928Z" fill="#d93329" stroke="#d93329" stroke-width="1.51"/><path d="M576,1812L615,2027L949,1928Z" fill="#e1402a" stroke="#e1402a" stroke-width="1.51"/><path d="M805,942L709,967L863,1155Z" fill="#fd6b31" stroke="#fd6b31" stroke-width="1.51"/><path d="M773,464L714,592L900,580Z" fill="#ff893f" stroke="#ff893f" stroke-width="1.51"/><path d="M714,592L709,967L805,942Z" fill="#fe7e37" stroke="#fe7e37" stroke-width="1.51"/><path d="M697,169L773,464L831,220Z" fill="#ff9c4f" stroke="#ff9c4f" stroke-width="1.51"/><path d="M709,967L714,1257L863,1155Z" fill="#fd652f" stroke="#fd652f" stroke-width="1.51"/><path d="M666,-360L559,-72L846,-230Z" fill="#ffb271" stroke="#ffb271" stroke-width="1.51"/><path d="M745,2110L499,2221L833,2246Z" fill="#ca3d2d" stroke="#ca3d2d" stroke-width="1.51"/><path d="M529,1004L709,967L714,592Z" fill="#fe873a" stroke="#fe873a" stroke-width="1.51"/><path d="M355,1661L576,1812L742,1397Z" fill="#f25e2b" stroke="#f25e2b" stroke-width="1.51"/><path d="M339,1547L355,1661L742,1397Z" fill="#f56a2f" stroke="#f56a2f" stroke-width="1.51"/><path d="M325,655L529,1004L714,592Z" fill="#fe9a41" stroke="#fe9a41" stroke-width="1.51"/><path d="M709,967L529,1004L714,1257Z" fill="#fd7735" stroke="#fd7735" stroke-width="1.51"/><path d="M425,533L714,592L773,464Z" fill="#ff9b46" stroke="#ff9b46" stroke-width="1.51"/><path d="M697,169L425,533L773,464Z" fill="#ffa44e" stroke="#ffa44e" stroke-width="1.51"/><path d="M425,533L325,655L714,592Z" fill="#fea547" stroke="#fea547" stroke-width="1.51"/><path d="M438,1315L339,1547L742,1397Z" fill="#f96e31" stroke="#f96e31" stroke-width="1.51"/><path d="M714,1257L438,1315L742,1397Z" fill="#fc642f" stroke="#fc642f" stroke-width="1.51"/><path d="M615,2027L499,2221L745,2110Z" fill="#d1492f" stroke="#d1492f" stroke-width="1.51"/><path d="M325,146L425,533L697,169Z" fill="#ffb85a" stroke="#ffb85a" stroke-width="1.51"/><path d="M559,-72L426,34L697,169Z" fill="#ffb866" stroke="#ffb866" stroke-width="1.51"/><path d="M529,1004L438,1315L714,1257Z" fill="#fd7835" stroke="#fd7835" stroke-width="1.51"/><path d="M326,-295L559,-72L666,-360Z" fill="#ffc479" stroke="#ffc479" stroke-width="1.51"/><path d="M426,34L325,146L697,169Z" fill="#ffbd64" stroke="#ffbd64" stroke-width="1.51"/><path d="M280,-388L326,-295L666,-360Z" fill="#ffcd83" stroke="#ffcd83" stroke-width="1.51"/><path d="M576,1812L358,2072L615,2027Z" fill="#df5a31" stroke="#df5a31" stroke-width="1.51"/><path d="M358,2072L499,2221L615,2027Z" fill="#d35933" stroke="#d35933" stroke-width="1.51"/><path d="M325,655L146,906L529,1004Z" fill="#fea345" stroke="#fea345" stroke-width="1.51"/><path d="M355,1661L358,2072L576,1812Z" fill="#e76432" stroke="#e76432" stroke-width="1.51"/><path d="M325,146L176,327L425,533Z" fill="#fec15d" stroke="#fec15d" stroke-width="1.51"/><path d="M326,-295L225,-101L426,34Z" fill="#ffcf78" stroke="#ffcf78" stroke-width="1.51"/><path d="M231,1265L438,1315L529,1004Z" fill="#fe853a" stroke="#fe853a" stroke-width="1.51"/><path d="M326,-295L426,34L559,-72Z" fill="#ffc674" stroke="#ffc674" stroke-width="1.51"/><path d="M146,906L231,1265L529,1004Z" fill="#fe9741" stroke="#fe9741" stroke-width="1.51"/><path d="M358,2072L148,2127L499,2221Z" fill="#d16537" stroke="#d16537" stroke-width="1.51"/><path d="M231,1265L157,1338L339,1547Z" fill="#fc853c" stroke="#fc853c" stroke-width="1.51"/><path d="M355,1661L55,1908L358,2072Z" fill="#e67239" stroke="#e67239" stroke-width="1.51"/><path d="M231,1265L339,1547L438,1315Z" fill="#fc7e37" stroke="#fc7e37" stroke-width="1.51"/><path d="M176,327L325,655L425,533Z" fill="#ffb753" stroke="#ffb753" stroke-width="1.51"/><path d="M225,-101L325,146L426,34Z" fill="#ffca6f" stroke="#ffca6f" stroke-width="1.51"/><path d="M92,358L82,637L176,327Z" fill="#ffca66" stroke="#ffca66" stroke-width="1.51"/><path d="M17,1839L55,1908L186,1597Z" fill="#ee8345" stroke="#ee8345" stroke-width="1.51"/><path d="M176,327L82,637L325,655Z" fill="#ffbe59" stroke="#ffbe59" stroke-width="1.51"/><path d="M157,1338L186,1597L339,1547Z" fill="#f9823b" stroke="#f9823b" stroke-width="1.51"/><path d="M339,1547L186,1597L355,1661Z" fill="#f57734" stroke="#f57734" stroke-width="1.51"/><path d="M186,1597L55,1908L355,1661Z" fill="#f07a3b" stroke="#f07a3b" stroke-width="1.51"/><path d="M55,1908L148,2127L358,2072Z" fill="#dd7440" stroke="#dd7440" stroke-width="1.51"/><path d="M82,637L146,906L325,655Z" fill="#ffb552" stroke="#ffb552" stroke-width="1.51"/><path d="M12,1694L17,1839L186,1597Z" fill="#f28645" stroke="#f28645" stroke-width="1.51"/><path d="M225,-101L-80,128L325,146Z" fill="#ffd67a" stroke="#ffd67a" stroke-width="1.51"/><path d="M280,-388L25,-196L326,-295Z" fill="#ffdc8b" stroke="#ffdc8b" stroke-width="1.51"/><path d="M25,-196L225,-101L326,-295Z" fill="#ffda87" stroke="#ffda87" stroke-width="1.51"/><path d="M-80,128L176,327L325,146Z" fill="#ffd372" stroke="#ffd372" stroke-width="1.51"/><path d="M146,906L-147,1129L231,1265Z" fill="#ffa651" stroke="#ffa651" stroke-width="1.51"/><path d="M-260,-409L25,-196L280,-388Z" fill="#ffeb9e" stroke="#ffeb9e" stroke-width="1.51"/><path d="M1,598L82,637L92,358Z" fill="#fec965" stroke="#fec965" stroke-width="1.51"/><path d="M-4,893L-147,1129L146,906Z" fill="#ffb45c" stroke="#ffb45c" stroke-width="1.51"/><path d="M-80,128L92,358L176,327Z" fill="#fed774" stroke="#fed774" stroke-width="1.51"/><path d="M25,-196L-80,128L225,-101Z" fill="#ffe189" stroke="#ffe189" stroke-width="1.51"/><path d="M-147,1129L157,1338L231,1265Z" fill="#ff9b4d" stroke="#ff9b4d" stroke-width="1.51"/><path d="M82,637L-4,893L146,906Z" fill="#ffb959" stroke="#ffb959" stroke-width="1.51"/><path d="M55,1908L-50,2099L148,2127Z" fill="#dd7e4b" stroke="#dd7e4b" stroke-width="1.51"/><path d="M157,1338L-185,1433L186,1597Z" fill="#fc924a" stroke="#fc924a" stroke-width="1.51"/><path d="M-185,1433L12,1694L186,1597Z" fill="#f98f4b" stroke="#f98f4b" stroke-width="1.51"/><path d="M-160,-92L-80,128L25,-196Z" fill="#ffe794" stroke="#ffe794" stroke-width="1.51"/><path d="M-95,479L1,598L92,358Z" fill="#ffcf6d" stroke="#ffcf6d" stroke-width="1.51"/><path d="M-147,1129L-185,1433L157,1338Z" fill="#ff9e57" stroke="#ff9e57" stroke-width="1.51"/><path d="M1,598L-4,893L82,637Z" fill="#ffc160" stroke="#ffc160" stroke-width="1.51"/><path d="M-80,128L-95,479L92,358Z" fill="#ffd879" stroke="#ffd879" stroke-width="1.51"/><path d="M-374,800L-4,893L1,598Z" fill="#ffc46c" stroke="#ffc46c" stroke-width="1.51"/><path d="M-185,1433L-248,1491L12,1694Z" fill="#fc9658" stroke="#fc9658" stroke-width="1.51"/><path d="M17,1839L-227,1974L55,1908Z" fill="#e88752" stroke="#e88752" stroke-width="1.51"/><path d="M-227,1974L-50,2099L55,1908Z" fill="#e48654" stroke="#e48654" stroke-width="1.51"/><path d="M-311,294L-95,479L-80,128Z" fill="#ffdf86" stroke="#ffdf86" stroke-width="1.51"/><path d="M-234,981L-147,1129L-4,893Z" fill="#ffb766" stroke="#ffb766" stroke-width="1.51"/><path d="M12,1694L-227,1974L17,1839Z" fill="#ed8952" stroke="#ed8952" stroke-width="1.51"/><path d="M-260,-409L-160,-92L25,-196Z" fill="#ffeea4" stroke="#ffeea4" stroke-width="1.51"/><path d="M-374,800L-234,981L-4,893Z" fill="#ffc26f" stroke="#ffc26f" stroke-width="1.51"/><path d="M-419,1675L-227,1974L12,1694Z" fill="#f2915d" stroke="#f2915d" stroke-width="1.51"/><path d="M-362,519L-374,800L1,598Z" fill="#ffd079" stroke="#ffd079" stroke-width="1.51"/><path d="M-248,1491L-419,1675L12,1694Z" fill="#fb965c" stroke="#fb965c" stroke-width="1.51"/><path d="M-95,479L-362,519L1,598Z" fill="#ffd276" stroke="#ffd276" stroke-width="1.51"/><path d="M-300,1168L-185,1433L-147,1129Z" fill="#ffa965" stroke="#ffa965" stroke-width="1.51"/><path d="M-160,-92L-280,-57L-80,128Z" fill="#ffe999" stroke="#ffe999" stroke-width="1.51"/><path d="M-227,1974L-252,2094L-50,2099Z" fill="#de885c" stroke="#de885c" stroke-width="1.51"/><path d="M-280,-57L-311,294L-80,128Z" fill="#ffe896" stroke="#ffe896" stroke-width="1.51"/><path d="M-260,-409L-280,-57L-160,-92Z" fill="#fff1aa" stroke="#fff1aa" stroke-width="1.51"/><path d="M-311,294L-362,519L-95,479Z" fill="#ffdb86" stroke="#ffdb86" stroke-width="1.51"/><path d="M-234,981L-300,1168L-147,1129Z" fill="#ffb46b" stroke="#ffb46b" stroke-width="1.51"/><path d="M-300,1168L-248,1491L-185,1433Z" fill="#ffa264" stroke="#ffa264" stroke-width="1.51"/><path d="M-300,1168L-419,1675L-248,1491Z" fill="#ffa169" stroke="#ffa169" stroke-width="1.51"/><path d="M-419,1675L-252,2094L-227,1974Z" fill="#ea9065" stroke="#ea9065" stroke-width="1.51"/><path d="M-374,800L-300,1168L-234,981Z" fill="#ffbf75" stroke="#ffbf75" stroke-width="1.51"/><path d="M-362,519L-280,-57L-260,-409Z" fill="#ffeda3" stroke="#ffeda3" stroke-width="1.51"/><path d="M-362,519L-311,294L-280,-57Z" fill="#ffe796" stroke="#ffe796" stroke-width="1.51"/><path d="M-374,800L-419,1675L-300,1168Z" fill="#ffb073" stroke="#ffb073" stroke-width="1.51"/></svg>