<svg xmlns:dc="http://purl.org/dc/elements/1.1/" xmlns:cc="http://creativecommons.org/ns#" xmlns:rdf="http://www.w3.org/1999/02/22-rdf-syntax-ns#" xmlns="http://www.w3.org/2000/svg" xmlns:xlink="http://www.w3.org/1999/xlink" width="448" height="413"><metadata><rdf:RDF><cc:Work><dc:format>image/svg+xml</dc:format><dc:type rdf:resource="http://purl.org/dc/dcmitype/StillImage"/><dc:title/></cc:Work></rdf:RDF></metadata><g transform="translate(-176.102 -132.586)"><path d="m 411.57164,212.17742 c 0.0174,-0.12735 0.058,-0.23895 0.1227,-0.3341 0.22657,-0.33319 0.57773,-0.33793 1.05371,-0.0143 0.76158,0.5179 1.22603,1.21664 1.39353,2.09605 1.54559,8.98576 3.56625,15.7888 6.06199,20.40937 0.34451,0.72156 0.41971,1.22501 0.22554,1.51054 -0.22659,0.3332 -0.74619,0.43216 -1.5591,0.29692 -5.21447,-0.62266 -12.284,-0.001 -21.20883,1.86416 -0.87941,0.16754 -1.69998,-0.008 -2.46155,-0.52553 -0.47596,-0.32367 -0.60063,-0.65199 -0.37404,-0.98518 0.0647,-0.0951 0.15389,-0.17386 0.2656,-0.23693 3.80757,-2.63083 8.45464,-4.55164 13.94129,-5.76223 L 366.74321,200.2941 c -0.23415,-0.16723 -0.40737,-0.39883 -0.50824,-0.71107 -0.10085,-0.31223 -0.0866,-0.5635 0.043,-0.75393 l 0.12003,-0.0228 0.0971,-0.14276 c 1.60671,-1.13456 2.87712,-1.41568 3.76661,-0.77947 l 41.0042,29.32822 c -0.90985,-5.21252 -0.80778,-10.2241 0.30592,-15.03484" fill="#fafafa"/><text style="line-height:125%;-inkscape-font-specification:'EB Garamond';text-align:start" x="250.585" y="511.592" font-size="8.525" font-family="EB Garamond" letter-spacing="4.078" word-spacing="0"/><text style="line-height:125%;-inkscape-font-specification:'EB Garamond';text-align:start" x="243.187" y="470.78" font-size="8.525" font-family="EB Garamond" letter-spacing="4.078" word-spacing="0"/><g><g id="a"><path d="m 362.36479,-64.052932 c 0,-13.333333 3.5,-24.5 10.5,-33.499999 7,-8.999999 15.16667,-14.166669 24.5,-15.499999 l 112,-13 c 17.33333,-2.66667 26,-8.66667 26,-18 0,-10 -8.66667,-15 -26,-15 l -164,0 c -12.66667,0 -21,1.33333 -25,4 -4,2.66667 -6,9.66667 -6,21 l 0,268.13173 48,0 z" fill="#fafafa" transform="matrix(.184 0 0 -.184 118.259 516.321)"/></g><use height="128" width="287.983" transform="matrix(1 0 0 -1 0 678.172)" xlink:href="#a"/><use height="128" width="287.983" transform="matrix(-1 0 0 -1 800.204 678.172)" xlink:href="#a"/><use height="128" width="287.983" transform="matrix(-1 0 0 1 800.204 0)" xlink:href="#a"/></g><path d="m 218.33403,309.56571 c -0.0823,0.0115 -0.25736,0.13318 -0.4303,0.25426 -2.08748,-0.0658 -4.03806,0.11473 -6.6304,0.88015 -22.98043,1.20107 -31.67454,23.96645 -23.99855,40.01713 3.56391,10.24063 13.59988,18.15303 25.40678,17.13344 -0.24932,0.8785 1.89301,1.27085 10.91376,-0.39117 0.14292,-0.0263 0.26767,-0.0604 0.39118,-0.11736 l 3.69659,-0.29338 c 0.69919,-0.87897 1.16071,-3.23696 2.11234,-2.64042 0.95136,0.59634 -2.38774,3.67406 -1.4669,3.0316 7.01557,-4.8947 14.79413,-9.54243 16.97697,-17.32903 3.19435,-11.39488 1.28023,-27.41534 -8.03864,-34.57981 -3.38629,-2.60343 -7.81691,-3.33241 -11.95037,-4.5963 0.45252,-0.28975 0.73514,-0.52916 0.37161,-0.48897 -0.42238,0.0467 -0.83325,0.12475 -1.25175,0.19559 -0.40807,-0.13498 -0.81362,-0.27912 -1.21264,-0.43029 -1.7455,-0.13096 -3.19609,-0.27822 -4.55719,-0.35206 -0.15224,-0.20647 -0.23113,-0.30759 -0.33249,-0.29338 z m 0.72367,2.34705 c -1.56732,0.40601 -3.1293,0.7598 -4.73321,0.93881 -0.87361,0.0975 -1.79605,-0.35429 -2.67955,-0.62587 0.045,-0.0284 0.0917,-0.0496 0.13691,-0.0782 0.0607,-0.0215 0.1506,-0.0642 0.19559,-0.0782 l 7.08026,-0.15647 z m -13.24125,3.87262 c -0.86438,1.01234 -1.71507,2.05233 -2.69911,2.91425 -0.42994,0.37659 -1.03926,0.45767 -1.54514,0.72367 -1.28159,0.67391 -2.54329,1.39849 -3.81395,2.09279 -0.0388,0.0277 -0.0788,0.0504 -0.11735,0.0782 1.77408,-1.90434 4.5231,-3.60774 8.17555,-5.80894 z m 14.35609,5.57424 c 4.56325,0 7.70614,4.00347 7.70614,8.56672 0,5.51557 -2.91365,14.87038 -13.98448,18.60034 -0.23808,0.11904 -0.31632,0.4096 -0.0782,0.48897 2.93636,0.83328 5.91418,5.43732 9.5251,5.43732 2.93635,0 5.3702,-2.50352 5.96541,-2.50352 0.27776,0 0.54764,0.2682 0.54764,0.665 0,1.38882 -3.48932,4.20512 -8.44937,4.20512 -4.84101,0 -6.99257,-5.94585 -11.7939,-5.94585 -3.01571,0 -6.65601,1.38867 -7.60834,1.38867 -0.55553,0 -1.27132,0.008 -1.27132,-0.54764 -0.0794,-0.75393 0.36092,-1.38473 1.11485,-1.66249 4.08708,-1.54754 7.22404,-1.76409 10.87464,-2.87513 0.35712,-0.0794 0.27889,-0.5074 -0.0782,-0.58677 -4.24581,-0.7936 -7.27584,-4.8853 -7.27584,-9.3295 0,-8.57097 7.06827,-15.90124 14.80594,-15.90124 z m -0.58676,1.85808 c -5.75366,0 -10.28788,8.0227 -10.28788,16.03814 0,2.53955 1.70019,5.71115 4.55718,5.71115 6.03142,0 10.0923,-7.50757 10.0923,-14.61036 0,-3.41252 -0.94909,-7.13893 -4.3616,-7.13893 z m 10.1901,38.88273 c 1.27634,10e-4 2.33775,0.18199 1.56469,0.91926 -1.44633,1.37937 -3.73815,1.33641 -5.65247,1.99499 0.069,-0.14002 0.14288,-0.27457 0.21515,-0.41074 -4.67998,3.23388 -3.83336,3.4141 -7.23673,1.97543 2.71118,-0.91829 5.45792,-2.31425 8.21467,-4.28336 0.11101,-0.0106 1.61834,-0.19701 2.89469,-0.19558 z m -3.87263,2.50351 c 0.34268,-0.23679 0.62902,-0.43359 1.03661,-0.70411 0.1293,-0.0858 -0.22637,-0.44571 -0.3325,-0.3325 -0.27187,0.29001 -0.50033,0.65266 -0.70411,1.03661 z m -9.70112,0.68456 c -0.0399,0.0203 -0.3029,0.16759 -0.46941,0.25426 -0.0199,-0.005 -0.0387,-0.0147 -0.0587,-0.0196 0.23545,-0.10912 0.57801,-0.26003 0.52809,-0.2347 z m 5.92629,2.19058 c -0.92331,0.12052 -1.82587,0.19314 -2.69911,0.21514 l 2.69911,-0.21514 z" fill="#fafafa"/><path d="m 514.91276,235.54356 c 0.0357,-0.12348 0.0435,-0.24203 0.0229,-0.35518 -0.0724,-0.39638 -0.39165,-0.54277 -0.95788,-0.43931 -0.90598,0.16554 -1.6134,0.61665 -2.12235,1.35312 -5.04862,7.59239 -9.64869,12.99644 -13.80032,16.21239 -0.60697,0.52051 -0.87941,0.9505 -0.81734,1.29018 0.0724,0.39637 0.50757,0.69707 1.30569,0.90226 5.02064,1.54005 11.23447,4.96825 18.64172,10.28475 0.73646,0.50898 1.55776,0.68073 2.46374,0.51516 0.56621,-0.10345 0.81305,-0.35327 0.74062,-0.74964 -0.0207,-0.1132 -0.0704,-0.22126 -0.14704,-0.32413 -2.41781,-3.94627 -5.89058,-7.58284 -10.41848,-10.90956 l 31.62154,-5.77771 c 0.28304,-0.0517 0.53389,-0.19995 0.75244,-0.44468 0.21855,-0.24474 0.30715,-0.4803 0.26575,-0.70685 l -0.10052,-0.0695 -0.031,-0.16982 c -1.0104,-1.68757 -2.05353,-2.43319 -3.12932,-2.23662 l -30.09275,5.49838 c 2.94077,-4.39887 4.87484,-9.02334 5.8025,-13.87338" fill="#fafafa"/><g><path d="m 364.25,0 c -0.13143,0.01842229 -0.41119,0.21279072 -0.6875,0.40625 C 360.22722,0.30105764 357.11067,0.58955364 352.96875,1.8125 316.2517,3.7315251 302.36066,40.104966 314.625,65.75 c 5.69733,16.370853 21.74723,29.020394 40.625,27.375 -0.40332,1.405452 2.98441,2.032143 17.40625,-0.625 0.2186,-0.04028 0.40366,-0.102271 0.59375,-0.1875 l 5.96875,-0.46875 c 1.11713,-1.40439 1.82327,-5.17186 3.34375,-4.21875 1.52003,0.95281 -3.81503,5.87025 -2.34375,4.84375 11.20915,-7.82052 23.63737,-15.24644 27.125,-27.6875 C 412.44753,46.57504 409.38925,20.9783 394.5,9.53125 389.08953,5.3716153 382.01049,4.2068863 375.40625,2.1875 376.12926,1.724545 376.58083,1.342025 376,1.40625 c -0.67487,0.07462 -1.33133,0.1993147 -2,0.3125 -0.65198,-0.2156647 -1.29995,-0.4459616 -1.9375,-0.6875 -2.78888,-0.20924605 -5.10656,-0.44452681 -7.28125,-0.5625 C 364.53801,0.13886087 364.41195,-0.02270074 364.25,0 Z m 1.15625,3.75 c -2.50102,0.6477486 -5.00312,1.2143501 -7.5625,1.5 -1.39582,0.155784 -2.86964,-0.5660777 -4.28125,-1 0.0719,-0.04545 0.14653,-0.079271 0.21875,-0.125 0.0969,-0.034423 0.24061,-0.1026078 0.3125,-0.125 l 11.3125,-0.25 z M 344.25,9.9375 c -1.38105,1.617459 -2.74025,3.279118 -4.3125,4.65625 -0.68694,0.60169 -1.66049,0.73124 -2.46875,1.15625 -2.04767,1.07673 -4.06356,2.23444 -6.09375,3.34375 -0.0551,0.03936 -0.10142,0.08555 -0.15625,0.125 2.83475,-3.037927 7.20287,-5.768693 13.03125,-9.28125 z M 372.96875,27.5 c 0.88759,0 1.0027,0.32486 0.8125,1.65625 l -3.875,28.03125 c -0.3804,2.85298 0.0106,4.80531 1.46875,5.3125 1.71179,0.634 3.0625,0.95526 3.0625,1.90625 0,0.634 -0.95436,1.0625 -1.96875,1.0625 -0.76079,0 -4.01932,-0.375 -7.0625,-0.375 -2.97977,0 -4.799,0.375 -5.75,0.375 -1.01439,0 -2.09375,-0.4285 -2.09375,-1.0625 0,-0.95099 2.01057,-1.20975 3.46875,-1.84375 2.09219,-0.95099 2.9928,-2.20502 3.5,-5.375 l 0.6875,-4.84375 c 0.0634,-0.4438 -0.0535,-0.6875 -0.6875,-0.6875 l -9.4375,0 c -0.634,0 -1.08746,0.2419 -1.53125,0.8125 L 349,57.75 c -2.15558,2.47258 -1.70819,4.24281 -0.25,4.75 1.71179,0.634 3.03125,0.95526 3.03125,1.90625 0,0.634 -0.95435,1.0625 -1.96875,1.0625 -0.76079,0 -4.73808,-0.375 -7.78125,-0.375 -2.97978,0 -4.70526,0.375 -5.65625,0.375 -1.01439,0 -2.09375,-0.4285 -2.09375,-1.0625 0,-0.95099 2.04181,-1.20975 3.5,-1.84375 2.09218,-0.95099 4.48358,-1.78978 7.84375,-5.59375 l 20.3125,-23.25 c 1.07779,-1.14119 1.96066,-3.36781 2.53125,-3.875 1.39479,-1.20459 3.67581,-2.34375 4.5,-2.34375 z m -6.0625,9.90625 c -0.19391,0.08693 -0.4783,0.375729 -0.90625,0.875 l -7.875,9 c -0.88759,1.0144 -0.50719,1.21875 0,1.21875 l 7.03125,0 c 0.634,0 0.65445,-0.39905 0.78125,-0.90625 l 1.25,-9.1875 c 0.0793,-0.752869 0.0419,-1.144877 -0.28125,-1 z m 15.625,46.53125 c 2.03928,0.0023 3.73516,0.290785 2.5,1.46875 -2.31088,2.203897 -5.97265,2.135255 -9.03125,3.1875 0.11018,-0.223708 0.22829,-0.438697 0.34375,-0.65625 -7.4653,5.159807 -6.12735,5.453798 -11.5625,3.15625 4.33179,-1.467202 8.72041,-3.697612 13.125,-6.84375 0.17737,-0.01695 2.58572,-0.314785 4.625,-0.3125 z m -6.1875,4 c 0.55044,-0.380446 1.00081,-0.689978 1.65625,-1.125 0.20658,-0.13711 -0.36168,-0.71214 -0.53125,-0.53125 -0.43439,0.463358 -0.79941,1.042789 -1.125,1.65625 z m -15.5,1.09375 c -0.0638,0.03237 -0.48395,0.267769 -0.75,0.40625 -0.0318,-0.0078 -0.0619,-0.02349 -0.0937,-0.03125 0.37619,-0.174345 0.92352,-0.415464 0.84375,-0.375 z m 9.46875,3.5 c -1.46588,0.191345 -2.89417,0.307986 -4.28125,0.34375 l 4.28125,-0.34375 z" transform="matrix(.625 0 0 .625 354.256 210.038)" fill="#fafafa"/></g><g><path transform="matrix(.625 0 0 .625 350.78 364.099)" d="m 364.25,0 c -0.13143,0.01842229 -0.41119,0.21279072 -0.6875,0.40625 C 360.22722,0.30105764 357.11067,0.58955364 352.96875,1.8125 316.2517,3.7315251 302.36066,40.104966 314.625,65.75 c 5.69733,16.370853 21.74723,29.020394 40.625,27.375 -0.40332,1.405452 2.98441,2.032143 17.40625,-0.625 0.2186,-0.04028 0.40366,-0.102271 0.59375,-0.1875 l 5.96875,-0.46875 c 1.11713,-1.40439 1.82327,-5.17186 3.34375,-4.21875 1.52003,0.95281 -3.81503,5.87025 -2.34375,4.84375 11.20915,-7.82052 23.63737,-15.24644 27.125,-27.6875 C 412.44753,46.57504 409.38925,20.9783 394.5,9.53125 389.08953,5.3716153 382.01049,4.2068863 375.40625,2.1875 376.12926,1.724545 376.58083,1.342025 376,1.40625 c -0.67487,0.07462 -1.33133,0.1993147 -2,0.3125 -0.65198,-0.2156647 -1.29995,-0.4459616 -1.9375,-0.6875 -2.78888,-0.20924605 -5.10656,-0.44452681 -7.28125,-0.5625 C 364.53801,0.13886087 364.41195,-0.02270074 364.25,0 Z m 1.15625,3.75 c -2.50102,0.6477486 -5.00312,1.2143501 -7.5625,1.5 -1.39582,0.155784 -2.86964,-0.5660777 -4.28125,-1 0.0719,-0.04545 0.14653,-0.079271 0.21875,-0.125 0.0969,-0.034423 0.24061,-0.1026078 0.3125,-0.125 l 11.3125,-0.25 z M 344.25,9.9375 c -1.38105,1.617459 -2.74025,3.279118 -4.3125,4.65625 -0.68694,0.60169 -1.66049,0.73124 -2.46875,1.15625 -2.04767,1.07673 -4.06356,2.23444 -6.09375,3.34375 -0.0551,0.03936 -0.10142,0.08555 -0.15625,0.125 2.83475,-3.037927 7.20287,-5.768693 13.03125,-9.28125 z M 372.96875,27.5 c 0.88759,0 1.0027,0.32486 0.8125,1.65625 l -3.875,28.03125 c -0.3804,2.85298 0.0106,4.80531 1.46875,5.3125 1.71179,0.634 3.0625,0.95526 3.0625,1.90625 0,0.634 -0.95436,1.0625 -1.96875,1.0625 -0.76079,0 -4.01932,-0.375 -7.0625,-0.375 -2.97977,0 -4.799,0.375 -5.75,0.375 -1.01439,0 -2.09375,-0.4285 -2.09375,-1.0625 0,-0.95099 2.01057,-1.20975 3.46875,-1.84375 2.09219,-0.95099 2.9928,-2.20502 3.5,-5.375 l 0.6875,-4.84375 c 0.0634,-0.4438 -0.0535,-0.6875 -0.6875,-0.6875 l -9.4375,0 c -0.634,0 -1.08746,0.2419 -1.53125,0.8125 L 349,57.75 c -2.15558,2.47258 -1.70819,4.24281 -0.25,4.75 1.71179,0.634 3.03125,0.95526 3.03125,1.90625 0,0.634 -0.95435,1.0625 -1.96875,1.0625 -0.76079,0 -4.73808,-0.375 -7.78125,-0.375 -2.97978,0 -4.70526,0.375 -5.65625,0.375 -1.01439,0 -2.09375,-0.4285 -2.09375,-1.0625 0,-0.95099 2.04181,-1.20975 3.5,-1.84375 2.09218,-0.95099 4.48358,-1.78978 7.84375,-5.59375 l 20.3125,-23.25 c 1.07779,-1.14119 1.96066,-3.36781 2.53125,-3.875 1.39479,-1.20459 3.67581,-2.34375 4.5,-2.34375 z m -6.0625,9.90625 c -0.19391,0.08693 -0.4783,0.375729 -0.90625,0.875 l -7.875,9 c -0.88759,1.0144 -0.50719,1.21875 0,1.21875 l 7.03125,0 c 0.634,0 0.65445,-0.39905 0.78125,-0.90625 l 1.25,-9.1875 c 0.0793,-0.752869 0.0419,-1.144877 -0.28125,-1 z m 15.625,46.53125 c 2.03928,0.0023 3.73516,0.290785 2.5,1.46875 -2.31088,2.203897 -5.97265,2.135255 -9.03125,3.1875 0.11018,-0.223708 0.22829,-0.438697 0.34375,-0.65625 -7.4653,5.159807 -6.12735,5.453798 -11.5625,3.15625 4.33179,-1.467202 8.72041,-3.697612 13.125,-6.84375 0.17737,-0.01695 2.58572,-0.314785 4.625,-0.3125 z m -6.1875,4 c 0.55044,-0.380446 1.00081,-0.689978 1.65625,-1.125 0.20658,-0.13711 -0.36168,-0.71214 -0.53125,-0.53125 -0.43439,0.463358 -0.79941,1.042789 -1.125,1.65625 z m -15.5,1.09375 c -0.0638,0.03237 -0.48395,0.267769 -0.75,0.40625 -0.0318,-0.0078 -0.0619,-0.02349 -0.0937,-0.03125 0.37619,-0.174345 0.92352,-0.415464 0.84375,-0.375 z m 9.46875,3.5 c -1.46588,0.191345 -2.89417,0.307986 -4.28125,0.34375 l 4.28125,-0.34375 z" fill="#fafafa"/></g><path id="b" d="m 461.80756,311.35503 c -0.0821,0.0115 -0.257,0.133 -0.42968,0.25391 -2.08446,-0.0657 -4.03251,0.11459 -6.6211,0.8789 -22.94717,1.19934 -31.62777,23.93348 -23.96289,39.96094 3.56068,10.23135 13.59057,18.13575 25.38867,17.10743 -0.25205,0.87836 1.86563,1.27002 10.87891,-0.39063 0.13662,-0.0252 0.2523,-0.0639 0.37109,-0.11718 l 3.73047,-0.29298 c 0.69819,-0.8777 1.13959,-3.23239 2.08985,-2.63672 0.94997,0.59548 -2.38436,3.66888 -1.46485,3.02735 7.00542,-4.88762 14.77151,-9.52741 16.95118,-17.30274 3.18973,-11.37839 1.27999,-27.37715 -8.0254,-34.53125 -3.3814,-2.59966 -7.80612,-3.32778 -11.93359,-4.58984 0.45186,-0.28934 0.7341,-0.52842 0.37109,-0.48828 -0.42177,0.0466 -0.83209,0.12457 -1.25,0.19531 -0.40747,-0.13478 -0.81248,-0.27873 -1.21093,-0.42969 -1.74297,-0.13077 -3.19166,-0.27783 -4.55078,-0.35156 -0.15202,-0.20617 -0.23081,-0.30716 -0.33204,-0.29297 z m 0.72266,2.34375 c -1.56306,0.40483 -3.12702,0.75898 -4.72656,0.9375 -0.87235,0.0974 -1.79356,-0.35381 -2.67578,-0.625 0.0449,-0.0284 0.0916,-0.0496 0.13672,-0.0781 0.0606,-0.0215 0.15038,-0.0641 0.19531,-0.0781 l 7.07031,-0.15625 z m -13.22266,3.86719 c -0.86311,1.01087 -1.7127,2.04948 -2.69531,2.91015 -0.42932,0.37604 -1.03783,0.45704 -1.54297,0.72266 -1.27974,0.67293 -2.53978,1.39655 -3.80859,2.08984 -0.0344,0.0246 -0.0634,0.0535 -0.0977,0.0781 1.77165,-1.89862 4.50195,-3.60553 8.14453,-5.80078 z m 21.47266,9.51953 c 0.9,0 1.34992,0.31492 1.16992,1.16992 -0.135,0.585 -0.67539,2.07015 -0.90039,3.28516 -0.22499,0.98999 -0.58492,1.34961 -1.16992,1.34961 -0.54,0 -0.62883,-0.31452 -0.67383,-1.39453 -0.135,-1.71 -0.58609,-2.29493 -1.62109,-2.29493 l -5.17383,0 c -1.665,0 -2.20594,0.31391 -2.83594,2.87891 l -1.34961,5.40039 c -0.315,1.215 -0.31617,1.66406 0.67383,1.66406 l 4.58985,0 c 1.66499,0 2.79008,-1.88867 3.33007,-1.88867 0.54,0 0.67625,0.76422 0.40625,1.57422 -0.35999,0.98999 -0.85515,2.74593 -1.03515,3.96094 -0.135,0.72 -0.45079,1.12501 -0.67578,1.12501 -0.67501,0 -0.72016,-0.31486 -1.03516,-1.21486 -0.225,-0.67499 -0.89844,-1.39648 -2.02344,-1.39648 l -3.6914,0 c -1.305,0 -1.66376,0.81133 -1.84375,1.48633 l -1.39649,5.58007 c -0.675,2.79 -0.22343,4.09376 1.35156,4.09376 l 6.79493,0 c 1.44,0 2.69976,-0.76446 3.50976,-1.43946 0.9,-0.71999 1.84407,-2.20507 2.78906,-2.20507 0.54001,0 0.58594,0.18054 0.58594,0.81054 0,1.125 -1.12492,3.06023 -2.29492,4.36523 -0.36,0.405 -1.12586,0.58399 -1.75586,0.58399 -5.13,0 -12.41891,-0.31445 -14.12891,-0.31445 -2.115,0 -3.96172,0.17968 -4.63671,0.17968 -0.72001,0 -1.48438,-0.31562 -1.48438,-0.76562 0,-0.675 1.4396,-0.85469 2.47461,-1.30469 1.485,-0.67499 2.02656,-1.97921 2.47656,-3.82422 l 4.09375,-16.4707 c 0.495,-1.98 0.0451,-2.65508 -2.29492,-3.33008 -0.405,-0.09 -0.71875,-0.35867 -0.71875,-0.76367 0,-0.54 0.89922,-0.81055 1.57422,-0.81055 1.755,0 3.37414,0.22461 4.99414,0.22461 l 7.875,0 c 1.62,0 3.24078,-0.31445 4.05078,-0.31445 z m 2.45313,36.72851 c 1.2745,10e-4 2.33444,0.18177 1.5625,0.91797 -1.44424,1.37739 -3.73299,1.33458 -5.64454,1.99219 0.0689,-0.13981 0.14269,-0.27419 0.21485,-0.41016 -4.66562,3.22474 -3.82973,3.40858 -7.22656,1.97266 2.70725,-0.91696 5.45037,-2.31109 8.20312,-4.27734 0.11085,-0.0106 1.61614,-0.19675 2.89063,-0.19532 z m -3.86719,2.5 c 0.34401,-0.23777 0.62552,-0.43123 1.03515,-0.70312 0.12911,-0.0857 -0.22605,-0.44508 -0.33203,-0.33203 -0.27148,0.28959 -0.49964,0.65176 -0.70312,1.03515 z m -3.76953,2.87111 c -0.91615,0.11958 -1.80889,0.19248 -2.67578,0.21484 l 2.67578,-0.21484 z" fill="#0cf7de"/><use xlink:href="#b" transform="translate(0 -165.354)" width="100%" height="100%"/><use xlink:href="#b" transform="translate(0 -82.677)" width="100%" height="100%"/><path id="c" d="m 337.2232,227.31615 c -0.0821,0.0115 -0.257,0.133 -0.42969,0.25391 -2.08446,-0.0657 -4.0325,0.1146 -6.62109,0.87891 -22.94717,1.19934 -31.62777,23.93348 -23.96289,39.96093 3.56068,10.23135 13.59057,18.13575 25.38867,17.10743 -0.25206,0.87837 1.86564,1.27002 10.87891,-0.39063 0.13662,-0.0252 0.25229,-0.0639 0.37109,-0.11718 l 3.73047,-0.29297 c 0.69818,-0.87771 1.13959,-3.23239 2.08984,-2.63672 0.94998,0.59548 -2.38435,3.66888 -1.46484,3.02734 7.00542,-4.88762 14.7715,-9.5274 16.95117,-17.30273 3.18973,-11.3784 1.28,-27.37716 -8.02539,-34.53126 -3.3814,-2.59965 -7.80612,-3.32778 -11.93359,-4.58984 0.45186,-0.28933 0.7341,-0.52842 0.37109,-0.48828 -0.42177,0.0466 -0.8321,0.12457 -1.25,0.19532 -0.40747,-0.13479 -0.81248,-0.27874 -1.21094,-0.42969 -1.74297,-0.13078 -3.19165,-0.27783 -4.55078,-0.35157 -0.15201,-0.20617 -0.23081,-0.30715 -0.33203,-0.29297 z m 0.72266,2.34375 c -1.56307,0.40483 -3.12702,0.75898 -4.72656,0.93751 -0.87235,0.0973 -1.79357,-0.35381 -2.67579,-0.625 0.0449,-0.0284 0.0916,-0.0496 0.13672,-0.0781 0.0606,-0.0215 0.15039,-0.0641 0.19532,-0.0781 l 7.07031,-0.15625 z m -13.22266,3.86719 c -0.86312,1.01087 -1.7127,2.04949 -2.69531,2.91016 -0.42932,0.37604 -1.03783,0.45704 -1.54297,0.72266 -1.27974,0.67292 -2.53978,1.39655 -3.80859,2.08984 -0.0344,0.0246 -0.0634,0.0535 -0.0977,0.0781 1.77164,-1.89863 4.50195,-3.60553 8.14453,-5.80079 z m 14.44336,8.86719 c 2.745,0 3.82547,1.08156 5.35547,1.35156 0.36,0.09 0.85367,0.31383 0.76367,0.67383 -0.18,0.765 -0.58375,2.79102 -0.71875,3.91601 -0.09,0.72001 -0.45071,1.16993 -0.7207,1.16993 -0.54,0 -0.63039,-0.27125 -0.90039,-1.53125 -0.495,-2.16 -1.97851,-3.7793 -4.22852,-3.7793 -2.79,0 -4.99609,1.44008 -4.99609,4.45508 0,1.25999 1.48593,3.01461 2.83594,4.72461 l 3.41992,4.32031 c 1.305,1.665 2.38476,3.73445 2.38476,4.81445 0,5.355 -5.4457,8.68555 -10.8457,8.68555 -2.835,0 -5.66984,-1.39531 -6.83984,-2.07031 -0.495,-0.27 -0.90039,-0.62952 -0.90039,-1.39453 0,-0.945 0.40586,-4.00547 0.63086,-5.35547 0.135,-0.765 0.45023,-1.43945 0.99023,-1.43945 0.72,0 0.945,0.49398 1.125,1.70898 0.495,3.6 1.70985,6.57031 5.71484,6.57031 2.97,0 5.44532,-2.33859 5.44532,-5.30859 0,-1.62 -0.67508,-2.70023 -2.20508,-4.36523 l -3.33008,-3.96094 c -1.57499,-1.89 -2.38476,-3.32969 -2.38476,-5.80469 0,-4.815 4.6343,-7.38086 9.40429,-7.38086 z m 9.48242,37.38086 c 1.2745,10e-4 2.33445,0.18178 1.5625,0.91797 -1.44423,1.37738 -3.73298,1.33456 -5.64453,1.99219 0.0689,-0.13981 0.14269,-0.2742 0.21485,-0.41016 -4.66562,3.22474 -3.82974,3.40856 -7.22657,1.97265 2.70726,-0.91696 5.45038,-2.31108 8.20313,-4.27734 0.11085,-0.0106 1.61613,-0.19674 2.89062,-0.19531 z m -3.86718,2.5 c 0.34401,-0.23777 0.62552,-0.43125 1.03515,-0.70312 0.12911,-0.0857 -0.22605,-0.44509 -0.33203,-0.33203 -0.27148,0.28958 -0.49964,0.65176 -0.70312,1.03515 z m -3.76953,2.8711 c -0.91614,0.11958 -1.8089,0.19249 -2.67579,0.21484 l 2.67579,-0.21484 z" fill="#f7560c"/><use xlink:href="#c" transform="translate(0 81.316)" width="100%" height="100%"/><use xlink:href="#c" transform="translate(0 162.631)" width="100%" height="100%"/><path d="m 337.2232,146.00057 c -0.0821,0.0115 -0.257,0.133 -0.42969,0.25391 -2.08446,-0.0657 -4.0325,0.1146 -6.62109,0.87891 -22.94717,1.19934 -31.62777,23.93348 -23.96289,39.96093 3.56068,10.23135 13.59057,18.13575 25.38867,17.10743 -0.25206,0.87837 1.86564,1.27002 10.87891,-0.39063 0.13662,-0.0252 0.25229,-0.0639 0.37109,-0.11718 l 3.73047,-0.29297 c 0.69818,-0.87771 1.13959,-3.23239 2.08984,-2.63672 0.94998,0.59548 -2.38435,3.66888 -1.46484,3.02734 7.00542,-4.88762 14.7715,-9.5274 16.95117,-17.30273 3.18973,-11.3784 1.28,-27.37716 -8.02539,-34.53126 -3.3814,-2.59965 -7.80612,-3.32778 -11.93359,-4.58984 0.45186,-0.28933 0.7341,-0.52842 0.37109,-0.48828 -0.42177,0.0466 -0.8321,0.12457 -1.25,0.19532 -0.40747,-0.13479 -0.81248,-0.27874 -1.21094,-0.42969 -1.74297,-0.13078 -3.19165,-0.27783 -4.55078,-0.35157 -0.15201,-0.20617 -0.23081,-0.30715 -0.33203,-0.29297 z m 0.72266,2.34375 c -1.56307,0.40483 -3.12702,0.75898 -4.72656,0.93751 -0.87235,0.0973 -1.79357,-0.35381 -2.67579,-0.625 0.0449,-0.0284 0.0916,-0.0496 0.13672,-0.0781 0.0606,-0.0215 0.15039,-0.0641 0.19532,-0.0781 l 7.07031,-0.15625 z m -13.22266,3.86719 c -0.86312,1.01087 -1.7127,2.04949 -2.69531,2.91016 -0.42932,0.37604 -1.03783,0.45704 -1.54297,0.72266 -1.27974,0.67292 -2.53978,1.39655 -3.80859,2.08984 -0.0344,0.0246 -0.0634,0.0535 -0.0977,0.0781 1.77164,-1.89863 4.50195,-3.60553 8.14453,-5.80079 z m 14.44336,8.86719 c 2.745,0 3.82547,1.08156 5.35547,1.35156 0.36,0.09 0.85367,0.31383 0.76367,0.67383 -0.18,0.765 -0.58375,2.79102 -0.71875,3.91601 -0.09,0.72001 -0.45071,1.16993 -0.7207,1.16993 -0.54,0 -0.63039,-0.27125 -0.90039,-1.53125 -0.495,-2.16 -1.97851,-3.7793 -4.22852,-3.7793 -2.79,0 -4.99609,1.44008 -4.99609,4.45508 0,1.25999 1.48593,3.01461 2.83594,4.72461 l 3.41992,4.32031 c 1.305,1.665 2.38476,3.73445 2.38476,4.81445 0,5.355 -5.4457,8.68555 -10.8457,8.68555 -2.835,0 -5.66984,-1.39531 -6.83984,-2.07031 -0.495,-0.27 -0.90039,-0.62952 -0.90039,-1.39453 0,-0.945 0.40586,-4.00547 0.63086,-5.35547 0.135,-0.765 0.45023,-1.43945 0.99023,-1.43945 0.72,0 0.945,0.49398 1.125,1.70898 0.495,3.6 1.70985,6.57031 5.71484,6.57031 2.97,0 5.44532,-2.33859 5.44532,-5.30859 0,-1.62 -0.67508,-2.70023 -2.20508,-4.36523 l -3.33008,-3.96094 c -1.57499,-1.89 -2.38476,-3.32969 -2.38476,-5.80469 0,-4.815 4.6343,-7.38086 9.40429,-7.38086 z m 9.48242,37.38086 c 1.2745,10e-4 2.33445,0.18178 1.5625,0.91797 -1.44423,1.37738 -3.73298,1.33456 -5.64453,1.99219 0.0689,-0.13981 0.14269,-0.2742 0.21485,-0.41016 -4.66562,3.22474 -3.82974,3.40856 -7.22657,1.97265 2.70726,-0.91696 5.45038,-2.31108 8.20313,-4.27734 0.11085,-0.0106 1.61613,-0.19674 2.89062,-0.19531 z m -3.86718,2.5 c 0.34401,-0.23777 0.62552,-0.43125 1.03515,-0.70312 0.12911,-0.0857 -0.22605,-0.44509 -0.33203,-0.33203 -0.27148,0.28958 -0.49964,0.65176 -0.70312,1.03515 z m -3.76953,2.8711 c -0.91614,0.11958 -1.8089,0.19249 -2.67579,0.21484 l 2.67579,-0.21484 z" fill="#f7560c"/><use xlink:href="#c" transform="translate(0 243.947)" width="100%" height="100%"/><path d="m 277.42381,324.14651 c -0.0573,-0.11506 -0.0864,-0.23021 -0.0864,-0.34528 0,-0.40293 0.28771,-0.60432 0.86332,-0.60432 0.92098,0 1.69797,0.31662 2.331,0.94962 6.33104,6.5613 11.82751,11.05053 16.48956,13.4679 0.69064,0.40294 1.03593,0.77696 1.03593,1.12226 0,0.40294 -0.37402,0.77696 -1.12226,1.12226 -4.66206,2.41737 -10.15852,6.9066 -16.48956,13.46789 -0.63298,0.63307 -1.41003,0.94964 -2.33101,0.94964 -0.57558,0 -0.8633,-0.20139 -0.8633,-0.60432 0,-0.11507 0.0295,-0.2303 0.0864,-0.34528 1.66913,-4.31658 4.43171,-8.51811 8.28793,-12.60449 l -32.14504,0 c -0.28773,0 -0.56113,-0.10073 -0.82012,-0.3022 -0.25897,-0.20147 -0.38847,-0.41727 -0.38847,-0.64757 l 0.0864,-0.0864 0,-0.17264 c 0.69062,-1.84169 1.58275,-2.76265 2.67634,-2.76265 l 30.59096,0 c -3.68353,-3.79866 -6.4173,-8.00019 -8.2016,-12.60451" fill="#fafafa"/><path d="m 395.62009,152.23788 c -0.0573,-0.11506 -0.0864,-0.23021 -0.0864,-0.34528 0,-0.40293 0.28771,-0.60432 0.86332,-0.60432 0.92098,0 1.69797,0.31662 2.331,0.94962 6.33104,6.5613 11.82751,11.05053 16.48956,13.4679 0.69064,0.40294 1.03593,0.77696 1.03593,1.12226 0,0.40294 -0.37402,0.77696 -1.12226,1.12226 -4.66206,2.41737 -10.15852,6.9066 -16.48956,13.46789 -0.63298,0.63307 -1.41003,0.94964 -2.33101,0.94964 -0.57558,0 -0.8633,-0.20139 -0.8633,-0.60432 0,-0.11507 0.0295,-0.2303 0.0864,-0.34528 1.66913,-4.31658 4.43171,-8.51811 8.28793,-12.60449 l -32.14504,0 c -0.28773,0 -0.56113,-0.10073 -0.82012,-0.3022 -0.25897,-0.20147 -0.38847,-0.41727 -0.38847,-0.64757 l 0.0864,-0.0864 0,-0.17264 c 0.69062,-1.84169 1.58275,-2.76265 2.67634,-2.76265 l 30.59096,0 c -3.68353,-3.79866 -6.4173,-8.00019 -8.2016,-12.60451" fill="#fafafa"/><path d="m 400.681,323.51986 c -0.0573,-0.11506 -0.0864,-0.23021 -0.0864,-0.34528 0,-0.40293 0.28771,-0.60432 0.86332,-0.60432 0.92098,0 1.69797,0.31662 2.331,0.94962 6.33104,6.5613 11.82751,11.05053 16.48956,13.4679 0.69064,0.40294 1.03593,0.77696 1.03593,1.12226 0,0.40294 -0.37402,0.77696 -1.12226,1.12226 -4.66206,2.41737 -10.15852,6.9066 -16.48956,13.46789 -0.63298,0.63307 -1.41003,0.94964 -2.33101,0.94964 -0.57558,0 -0.8633,-0.20139 -0.8633,-0.60432 0,-0.11507 0.0295,-0.2303 0.0864,-0.34528 1.66913,-4.31658 4.43171,-8.51811 8.28793,-12.60449 l -32.14504,0 c -0.28773,0 -0.56113,-0.10073 -0.82012,-0.3022 -0.25897,-0.20147 -0.38847,-0.41727 -0.38847,-0.64757 l 0.0864,-0.0864 0,-0.17264 c 0.69062,-1.84169 1.58275,-2.76265 2.67634,-2.76265 l 30.59096,0 c -3.68353,-3.79866 -6.4173,-8.00019 -8.2016,-12.60451" fill="#fafafa"/><path d="m 516.53783,202.32468 c -0.008,0.12829 -0.0403,0.24257 -0.0978,0.34222 -0.20146,0.34895 -0.55132,0.3795 -1.04981,0.0917 -0.79761,-0.46049 -1.31218,-1.12319 -1.5439,-1.9879 -2.20219,-8.84777 -4.71766,-15.48379 -7.54643,-19.90832 -0.39664,-0.69427 -0.50866,-1.19083 -0.33601,-1.48987 0.20147,-0.34896 0.71239,-0.48586 1.53304,-0.41077 5.24614,0.23752 12.25083,-0.90204 21.01432,-3.41876 0.86471,-0.23176 1.69594,-0.1174 2.49353,0.34309 0.49847,0.28779 0.64694,0.60606 0.44548,0.95501 -0.0575,0.0996 -0.14069,0.1847 -0.24746,0.25582 -3.6038,2.9037 -8.09703,5.16105 -13.4798,6.77184 l 29.55121,16.07252 c 0.25277,0.13748 0.43559,0.3678 0.55915,0.67177 0.12354,0.30397 0.12779,0.55561 0.0126,0.75505 l -0.11803,0.0316 -0.0863,0.14951 c -1.51893,1.24964 -2.73776,1.57567 -3.6991,1.05435 l -28.20535,-15.29548 c 1.2907,5.1315 1.55745,10.13702 0.80054,15.01663" fill="#fafafa"/><path d="m 512.96184,285.25381 c -0.0267,-0.12577 -0.0751,-0.23413 -0.14655,-0.32435 -0.25009,-0.31593 -0.60068,-0.29523 -1.05198,0.062 -0.72211,0.57165 -1.13477,1.30218 -1.23819,2.19141 -0.89123,9.07405 -2.41426,16.00548 -4.56906,20.79455 -0.29139,0.7446 -0.32997,1.25216 -0.1156,1.5229 0.25011,0.31594 0.77551,0.37703 1.5765,0.18332 5.15573,-0.99841 12.2517,-0.89029 21.28813,0.32439 0.88923,0.10346 1.69498,-0.13065 2.41706,-0.70229 0.45129,-0.35727 0.55186,-0.69375 0.30177,-1.00968 -0.0714,-0.0901 -0.16607,-0.16225 -0.28206,-0.21708 -3.98798,-2.34837 -8.76187,-3.92785 -14.32173,-4.73819 l 26.89779,-20.20169 c 0.23007,-0.17282 0.37744,-0.42728 0.45545,-0.74599 0.078,-0.3187 0.0456,-0.56829 -0.0974,-0.74885 l -0.12138,-0.014 -0.10713,-0.13536 c -1.68461,-1.0153 -2.9379,-1.16051 -3.81316,-0.50484 l -25.67933,19.23708 c 0.53022,-5.2647 0.0657,-10.25576 -1.39319,-14.97328" fill="#fafafa"/><path d="m 512.53783,375.41436 c -0.008,0.12829 -0.0403,0.24257 -0.0978,0.34222 -0.20146,0.34895 -0.55132,0.3795 -1.04981,0.0917 -0.79761,-0.46049 -1.31218,-1.12319 -1.5439,-1.9879 -2.20219,-8.84777 -4.71766,-15.48379 -7.54643,-19.90832 -0.39664,-0.69427 -0.50866,-1.19083 -0.33601,-1.48987 0.20147,-0.34896 0.71239,-0.48586 1.53304,-0.41077 5.24614,0.23752 12.25083,-0.90204 21.01432,-3.41876 0.86471,-0.23176 1.69594,-0.1174 2.49353,0.34309 0.49847,0.28779 0.64694,0.60606 0.44548,0.95501 -0.0575,0.0996 -0.14069,0.1847 -0.24746,0.25582 -3.6038,2.9037 -8.09703,5.16105 -13.4798,6.77184 l 29.55121,16.07252 c 0.25277,0.13748 0.43559,0.3678 0.55915,0.67177 0.12354,0.30397 0.12779,0.55561 0.0126,0.75505 l -0.11803,0.0316 -0.0863,0.14951 c -1.51893,1.24964 -2.73776,1.57567 -3.6991,1.05435 l -28.20535,-15.29548 c 1.2907,5.1315 1.55745,10.13702 0.80054,15.01663" fill="#fafafa"/></g></svg>