<svg xmlns="http://www.w3.org/2000/svg" width="256" height="228.59"><g><text x="280.946" y="497.736" style="text-align:start;line-height:125%;-inkscape-font-specification:EB Garamond" font-size="12" letter-spacing="5.74" word-spacing="0" font-family="EB Garamond" transform="translate(-153.975 -340.667)"/><text x="270.531" y="440.287" style="text-align:start;line-height:125%;-inkscape-font-specification:EB Garamond" font-size="12" letter-spacing="5.74" word-spacing="0" font-family="EB Garamond" transform="translate(-153.975 -340.667)"/><path d="M33.742 84.827c-.082.012-.257.133-.43.254-2.084-.065-4.032.115-6.62.88-22.95 1.2-31.63 23.933-23.966 39.96 3.56 10.227 13.58 18.128 25.37 17.11-.248.877 1.892 1.27 10.9-.39.143-.027.267-.06.39-.118l3.692-.293c.698-.878 1.16-3.233 2.11-2.637.95.595-2.385 3.67-1.466 3.027 7.006-4.888 14.774-9.53 16.954-17.305 3.19-11.38 1.278-27.377-8.028-34.53-3.38-2.6-7.806-3.33-11.933-4.59.452-.29.734-.53.37-.49-.42.048-.83.125-1.25.196-.407-.134-.812-.278-1.21-.428-1.743-.13-3.192-.278-4.55-.352-.153-.206-.232-.307-.333-.293zm20.98-82.483c-1.564.405-3.124.758-4.726.937-.872.1-1.793-.353-2.676-.624.045-.028.092-.05.137-.078.06-.02.15-.064.195-.078l7.07-.156zM42.368 9.023c-.864 1.01-1.713 2.05-2.696 2.91-.43.376-1.038.457-1.543.723-1.28.673-2.54 1.397-3.808 2.09-.04.028-.08.05-.117.078 1.77-1.902 4.516-3.603 8.164-5.8zm6.402 7.887c4.557 0 7.695 3.998 7.695 8.555 0 5.506-2.908 14.848-13.964 18.573-.237.12-.315.41-.078.488 2.933.833 5.906 5.43 9.512 5.43 2.932 0 5.363-2.5 5.957-2.5.277 0 .547.27.547.665 0 1.387-3.485 4.2-8.438 4.2-4.834 0-6.982-5.938-11.777-5.938-3.012 0-6.648 1.386-7.6 1.386-.553 0-1.268.008-1.268-.547-.08-.752.36-1.382 1.113-1.66 4.082-1.545 7.214-1.76 10.86-2.87.356-.08.278-.508-.08-.587-4.238-.793-7.264-4.88-7.264-9.317 0-8.56 7.06-15.88 14.786-15.88zm8.016 5.195c-5.746 0-10.274 8.01-10.274 16.015 0 2.536 1.698 5.703 4.55 5.703 6.024 0 10.08-7.497 10.08-14.59 0-3.408-.95-7.13-4.356-7.13zm9.824 39.94c1.274.002 2.334.182 1.562.92-1.444 1.376-3.733 1.333-5.644 1.99.07-.14.142-.273.215-.41-4.675 3.23-3.83 3.41-7.228 1.973 2.707-.917 5.45-2.31 8.203-4.277.11-.01 1.616-.197 2.89-.195zm2.238 25.797c.342-.236.628-.432 1.035-.703.128-.085-.227-.445-.333-.332-.27.29-.5.652-.703 1.035zM54.086 90.12c-.04.02-.302.168-.468.255-.02-.005-.04-.015-.06-.02.236-.108.578-.26.528-.234zm.106 2.6c-.922.12-1.824.192-2.696.214l2.696-.215z" fill="#fff"/><g><path d="M144.468 99.71c-.057-.117-.087-.232-.087-.347 0-.403.29-.604.865-.604.92 0 1.698.316 2.33.95 6.332 6.56 11.828 11.05 16.49 13.466.69.403 1.036.777 1.036 1.123 0 .402-.373.776-1.12 1.12-4.663 2.418-10.16 6.908-16.49 13.47-.634.632-1.41.948-2.332.948-.575 0-.863-.2-.863-.604 0-.115.03-.23.086-.345 1.67-4.318 4.433-8.52 8.29-12.606H88.523c-.287 0-.56-.1-.82-.302-.26-.2-.388-.417-.388-.647l.086-.087v-.172c.69-1.842 1.583-2.763 2.676-2.763h62.59c-3.682-3.8-6.416-8-8.2-12.605" fill="#fff"/><path d="M227.648 84.826c-.082.012-.257.133-.43.254-2.084-.066-4.032.114-6.62.88-22.95 1.198-31.63 23.932-23.965 39.96 3.56 10.232 13.592 18.137 25.39 17.11-.252.878 1.866 1.27 10.88-.392.136-.025.25-.063.37-.117l3.73-.292c.7-.877 1.14-3.232 2.09-2.636.95.595-2.384 3.67-1.464 3.027 7.004-4.89 14.772-9.53 16.952-17.306 3.19-11.38 1.278-27.377-8.028-34.53-3.38-2.6-7.805-3.33-11.933-4.59.453-.29.735-.53.372-.49-.422.048-.832.125-1.25.196-.407-.135-.812-.28-1.21-.43-1.744-.13-3.193-.277-4.552-.35-.152-.207-.23-.308-.332-.294zm137.325-82.482c-1.563.405-3.127.76-4.727.937-.872.1-1.793-.353-2.676-.624.045-.028.092-.05.137-.078.06-.02.15-.064.195-.078l7.07-.156zm-12.79 5.273c-.863 1.01-1.712 2.05-2.695 2.91-.43.376-1.038.457-1.543.723-1.28.673-2.54 1.397-3.808 2.09-.035.024-.064.053-.098.078 1.77-1.9 4.5-3.605 8.144-5.8zm10.016 13.297c.554 0 .626.203.507 1.035l-2.422 17.52c-.238 1.782.007 3.002.918 3.32 1.07.395 1.914.596 1.914 1.19 0 .397-.596.665-1.23.665-.476 0-2.512-.235-4.414-.235-1.863 0-3 .235-3.594.235-.635 0-1.31-.268-1.31-.665 0-.594 1.257-.756 2.168-1.152 1.308-.594 1.87-1.378 2.188-3.36l.43-3.027c.04-.276-.034-.428-.43-.428h-5.9c-.395 0-.678.15-.956.508l-2.85 3.3c-1.348 1.546-1.07 2.652-.158 2.97 1.07.395 1.895.596 1.895 1.19 0 .397-.596.665-1.23.665-.476 0-2.962-.235-4.864-.235-1.862 0-2.94.235-3.535.235-.634 0-1.308-.268-1.308-.665 0-.594 1.276-.756 2.187-1.152 1.308-.594 2.802-1.118 4.902-3.496l12.695-14.53c.673-.714 1.225-2.106 1.582-2.423.87-.754 2.297-1.466 2.812-1.466zm6.98 12.777c-.122.056-.3.236-.567.548l-4.922 5.625c-.553.634-.316.762 0 .762h4.396c.396 0 .41-.25.488-.566l.78-5.744c.05-.47.028-.715-.174-.625zm7.492 32.798c1.274.002 2.334.182 1.562.918-1.444 1.378-3.733 1.335-5.644 1.992.07-.14.143-.274.215-.41-4.666 3.225-3.83 3.41-7.227 1.973 2.707-.916 5.45-2.31 8.203-4.276.112-.01 1.617-.197 2.892-.196zm1.992 19.95c.344-.238.626-.432 1.035-.704.128-.085-.227-.445-.333-.332-.27.29-.5.652-.703 1.035zm-12.008 2.183c-.04.02-.302.168-.47.255-.018-.005-.037-.015-.057-.02.234-.108.576-.26.526-.234zm.106 2.6c-.916.118-1.81.19-2.676.214l2.676-.215z" fill="#fff"/></g><g><path d="M126.787 51.48c-.1-.08-.177-.172-.226-.276-.173-.364 0-.67.52-.917.832-.396 1.67-.444 2.514-.145 8.538 3.203 15.432 4.893 20.68 5.07.798.068 1.27.257 1.42.57.172.363-.005.862-.532 1.495-3.17 4.188-6.203 10.605-9.1 19.252-.298.843-.864 1.463-1.695 1.86-.52.247-.866.19-1.04-.175-.05-.104-.072-.22-.07-.35-.35-4.615.34-9.597 2.064-14.945L83.4 90.502c-.26.124-.55.15-.87.08-.32-.07-.53-.21-.63-.418l.04-.115-.073-.157c-.168-1.96.24-3.175 1.23-3.645l56.518-26.914c-4.96-1.846-9.235-4.465-12.826-7.855" fill="#fff"/><path d="M207.503.64c-.082.013-.254.138-.423.263-2.086-.015-4.03.212-6.6 1.038-22.92 1.75-31.056 24.693-23.006 40.537 3.806 10.147 14.027 17.812 25.8 16.5-.23.885 1.897 1.226 10.87-.65.137-.03.25-.07.37-.127l3.722-.383c.678-.894 1.062-3.26 2.027-2.687.964.573-2.296 3.726-1.392 3.063 6.89-5.056 14.545-9.884 16.54-17.712 2.915-11.454.62-27.406-8.858-34.337-3.443-2.52-7.885-3.14-12.043-4.304.444-.3.72-.547.358-.498-.42.057-.83.144-1.245.225-.41-.125-.82-.26-1.22-.4-1.748-.09-3.2-.202-4.56-.243-.158-.202-.24-.3-.34-.285zm157.526 1.686c-1.555.443-3.11.834-4.705 1.05-.87.12-1.802-.31-2.69-.56.043-.03.09-.05.134-.08.06-.024.148-.07.192-.084l7.067-.326zm-12.754 5.61c-.838 1.03-1.663 2.09-2.625 2.973-.42.386-1.026.48-1.525.76-1.263.703-2.506 1.457-3.758 2.18-.034.026-.062.055-.096.08 1.727-1.94 4.416-3.713 8.006-5.995zm10.187 12.547c.554-.013.63.188.532 1.023l-2 17.578c-.196 1.79.078 3.003.997 3.298 1.08.37 1.928.55 1.942 1.146.01.396-.58.678-1.214.693-.476.013-2.518-.173-4.42-.127-1.862.045-2.994.306-3.588.32-.634.016-1.315-.236-1.325-.632-.014-.594 1.24-.785 2.14-1.204 1.294-.625 1.838-1.423 2.108-3.41l.357-3.04c.033-.277-.044-.428-.44-.418l-5.9.14c-.395.01-.675.17-.944.532l-2.772 3.37c-1.31 1.577-1.004 2.676-.085 2.972 1.08.37 1.91.55 1.924 1.146.01.396-.58.678-1.214.693-.476.013-2.967-.162-4.87-.117-1.862.045-2.935.305-3.53.32-.633.015-1.314-.237-1.323-.633-.015-.594 1.258-.787 2.16-1.205 1.293-.626 2.775-1.186 4.818-3.614l12.346-14.835c.658-.73 1.176-2.134 1.525-2.46.854-.773 2.263-1.52 2.778-1.532zm6.865 13.3c-.12.057-.293.24-.553.56l-4.787 5.743c-.54.647-.3.77.018.762l4.395-.106c.397-.01.404-.26.476-.578l.643-5.76c.037-.473.008-.717-.192-.622zm8.042 32.47c1.274-.028 2.34.127 1.584.88-1.41 1.413-3.7 1.425-5.596 2.13.065-.142.136-.28.205-.416-4.59 3.337-3.748 3.5-7.18 2.146 2.686-.982 5.395-2.442 8.1-4.474.112-.015 1.612-.237 2.887-.266zm1.354 20.277c.338-.246.615-.446 1.018-.728.127-.088-.236-.44-.34-.324-.264.296-.484.664-.678 1.052zm-12.05 2.324c-.04.02-.3.174-.464.265-.02-.006-.04-.015-.06-.02.233-.114.572-.273.523-.246zm.14 2.223c-.913.14-1.804.236-2.67.28l2.67-.28z" fill="#fff"/></g><g><path d="M139.47 151.114c-.003-.128.02-.245.07-.348.173-.364.52-.422 1.04-.175.83.397 1.396 1.017 1.696 1.86 2.895 8.648 5.928 15.065 9.1 19.253.45.66.6 1.147.45 1.46-.172.363-.67.54-1.494.53-5.25.178-12.143 1.868-20.682 5.07-.844.3-1.68.252-2.513-.144-.52-.25-.693-.554-.52-.918.05-.104.126-.196.227-.275 3.363-3.18 7.664-5.786 12.904-7.818l-57.923-27.583c-.26-.124-.464-.332-.61-.626-.148-.292-.172-.543-.073-.75l.115-.04.074-.157c1.417-1.366 2.618-1.814 3.606-1.344l56.52 26.913c-1.693-5.014-2.355-9.984-1.987-14.91" fill="#fff"/><path d="M207.797 169.813c-.082.012-.255.136-.426.26-2.084-.036-4.03.172-6.607.974-22.93 1.53-31.286 24.388-23.39 40.306 3.71 10.18 13.854 17.942 25.637 16.744-.24.882 1.884 1.243 10.874-.547.136-.028.25-.068.37-.123l3.725-.347c.685-.887 1.092-3.248 2.05-2.666.96.58-2.33 3.703-1.42 3.048 6.935-4.99 14.636-9.742 16.704-17.55 3.026-11.424.884-27.394-8.525-34.414-3.42-2.552-7.855-3.216-12-4.418.447-.296.726-.54.364-.494-.42.053-.83.136-1.248.213-.41-.13-.816-.268-1.217-.413-1.746-.106-3.196-.232-4.557-.286-.154-.203-.235-.303-.336-.287zm157.21-167.48c-1.558.428-3.117.804-4.714 1.006-.87.11-1.798-.33-2.684-.588.043-.03.09-.05.134-.08.06-.022.15-.066.194-.08l7.068-.26zm-12.768 5.475c-.85 1.023-1.684 2.074-2.654 2.95-.424.38-1.03.47-1.533.743-1.27.693-2.52 1.435-3.778 2.146-.034.025-.063.055-.097.08 1.745-1.925 4.45-3.67 8.06-5.918zm10.117 12.848c.555-.008.63.194.523 1.027l-2.17 17.555c-.212 1.786.05 3.003.966 3.307 1.076.38 1.923.57 1.93 1.164.007.395-.586.67-1.22.68-.475.007-2.515-.198-4.417-.17-1.863.027-2.997.277-3.59.286-.635.01-1.314-.25-1.32-.645-.008-.594 1.246-.774 2.152-1.183 1.3-.613 1.85-1.405 2.14-3.39l.385-3.034c.036-.278-.04-.43-.436-.424l-5.897.084c-.396.006-.678.16-.95.522l-2.804 3.342c-1.326 1.564-1.03 2.667-.114 2.97 1.075.38 1.903.57 1.91 1.165.007.396-.586.672-1.22.68-.475.008-2.964-.19-4.866-.163-1.863.027-2.938.277-3.532.285-.634.01-1.313-.25-1.318-.645-.01-.594 1.265-.774 2.17-1.184 1.3-.613 2.787-1.16 4.853-3.566l12.486-14.714c.662-.723 1.194-2.123 1.546-2.445.86-.764 2.276-1.497 2.79-1.504zm6.912 13.09c-.122.056-.297.24-.56.555l-4.84 5.697c-.546.642-.307.766.01.762l4.395-.065c.396-.005.405-.255.48-.573l.7-5.754c.04-.47.015-.715-.186-.622zm7.82 32.602c1.275-.017 2.338.148 1.576.895-1.424 1.398-3.713 1.388-5.615 2.074.067-.14.14-.277.21-.414-4.62 3.292-3.78 3.464-7.2 2.077 2.695-.956 5.418-2.39 8.143-4.395.11-.013 1.613-.22 2.888-.237zm1.61 20.145c.34-.243.62-.44 1.025-.718.128-.087-.232-.442-.337-.327-.267.293-.49.66-.688 1.045zm-12.034 2.268c-.04.02-.3.172-.465.26-.02-.003-.038-.013-.058-.017.234-.113.574-.268.524-.242zm.127 2.374c-.914.132-1.806.218-2.672.253l2.673-.253z" fill="#fff"/></g></g></svg>