<svg xmlns="http://www.w3.org/2000/svg" xmlns:xlink="http://www.w3.org/1999/xlink" width="180.175" height="180.175"><g transform="translate(-176.102 -365.411)"><text style="text-align:start;line-height:125%;-inkscape-font-specification:EB Garamond" x="280.946" y="497.736" font-size="12" letter-spacing="5.74" word-spacing="0" font-family="EB Garamond"/><text style="text-align:start;line-height:125%;-inkscape-font-specification:EB Garamond" x="270.531" y="440.287" font-size="12" letter-spacing="5.74" word-spacing="0" font-family="EB Garamond"/><path d="M198.845 515.418c0 3.097.508 5.69 2.134 7.78 1.625 2.09 3.602 2.775 5.69 3.6 6.24 1.03 21.79 4.156 29.933 6.146 6.114 1.494 7.444 4.007 7.04 7.383-.386 3.222-4.164 5.26-8.19 5.26h-52.15c-2.943 0-4.878-.31-5.807-.93-.93-.62-1.394-2.245-1.394-4.878v-70.082h22.743z" fill="#fafafa"/><use xlink:href="#g3305-8" transform="matrix(-1 0 0 -1 532.379 910.997)" width="256" height="228.59"/><use xlink:href="#g3305-8" id="a" transform="matrix(-1 0 0 1 532.379 0)" width="256" height="228.59"/><use xlink:href="#a" transform="matrix(-1 0 0 -1 532.379 910.997)" width="256" height="228.59"/><path d="M125.874 463.89c-.057-.114-.086-.23-.086-.344 0-.403.288-.605.863-.605.922 0 1.7.318 2.332.95 6.33 6.562 11.828 11.05 16.49 13.47.69.402 1.036.776 1.036 1.12 0 .404-.374.778-1.123 1.123-4.662 2.418-10.158 6.907-16.49 13.468-.632.634-1.41.95-2.33.95-.576 0-.864-.2-.864-.604 0-.115.03-.23.088-.345 1.67-4.315 4.432-8.517 8.288-12.603H69.93c-.287 0-.56-.1-.82-.303-.258-.2-.388-.417-.388-.647l.087-.086v-.172c.69-1.842 1.58-2.763 2.675-2.763h62.59c-3.683-3.798-6.416-8-8.2-12.604" fill="#fafafa"/><path d="M209.05 448.998c-.08.012-.256.133-.428.254-2.085-.066-4.033.114-6.622.88-22.948 1.198-31.63 23.932-23.964 39.96 3.56 10.232 13.592 18.137 25.39 17.11-.252.878 1.866 1.27 10.88-.392.136-.025.25-.063.37-.117l3.73-.293c.7-.877 1.14-3.232 2.09-2.636.95.595-2.384 3.67-1.464 3.027 7.005-4.887 14.773-9.528 16.953-17.304 3.19-11.38 1.278-27.377-8.028-34.53-3.38-2.6-7.805-3.33-11.933-4.59.452-.29.734-.53.37-.49-.42.048-.83.125-1.25.196-.406-.135-.81-.28-1.21-.43-1.743-.13-3.192-.277-4.55-.35-.153-.207-.232-.308-.333-.294zm155.923-446.654c-1.563.405-3.127.76-4.727.937-.872.1-1.793-.353-2.676-.624.045-.028.092-.05.137-.078.06-.02.15-.064.195-.078l7.07-.156zm-12.79 5.273c-.863 1.01-1.712 2.05-2.695 2.91-.43.376-1.038.457-1.543.723-1.28.673-2.54 1.397-3.808 2.09-.035.024-.064.053-.098.078 1.77-1.9 4.5-3.605 8.144-5.8zm10.016 13.297c.554 0 .626.203.507 1.035l-2.422 17.52c-.238 1.782.007 3.002.918 3.32 1.07.395 1.914.596 1.914 1.19 0 .397-.596.665-1.23.665-.476 0-2.512-.235-4.414-.235-1.863 0-3 .235-3.594.235-.635 0-1.31-.268-1.31-.665 0-.594 1.257-.756 2.168-1.152 1.308-.594 1.87-1.378 2.188-3.36l.43-3.027c.04-.276-.034-.428-.43-.428h-5.9c-.395 0-.678.15-.956.508l-2.85 3.3c-1.348 1.546-1.07 2.652-.158 2.97 1.07.395 1.895.596 1.895 1.19 0 .397-.596.665-1.23.665-.476 0-2.962-.235-4.864-.235-1.862 0-2.94.235-3.535.235-.634 0-1.308-.268-1.308-.665 0-.594 1.276-.756 2.187-1.152 1.308-.594 2.802-1.118 4.902-3.496l12.695-14.53c.673-.714 1.225-2.106 1.582-2.423.87-.754 2.297-1.466 2.812-1.466zm6.98 12.777c-.122.056-.3.236-.567.548l-4.922 5.625c-.553.634-.316.762 0 .762h4.396c.396 0 .41-.25.488-.566l.78-5.744c.05-.47.028-.715-.174-.625zm7.492 32.798c1.274.002 2.334.182 1.562.918-1.444 1.378-3.733 1.335-5.644 1.992.07-.14.143-.274.215-.41-4.666 3.225-3.83 3.41-7.227 1.973 2.707-.916 5.45-2.31 8.203-4.276.112-.01 1.617-.197 2.892-.196zm1.992 19.95c.344-.238.626-.432 1.035-.704.128-.085-.227-.445-.333-.332-.27.29-.5.652-.703 1.035zm-12.008 2.183c-.04.02-.302.168-.47.255-.018-.005-.037-.015-.057-.02.234-.108.576-.26.526-.234zm.106 2.6c-.916.118-1.81.19-2.676.214l2.676-.215z" fill="#fafafa"/><path d="M269.24 422.654c-.092.013-.287.15-.48.284-2.332-.074-4.51.128-7.406.983-25.665 1.342-35.375 26.767-26.802 44.693 3.98 11.437 15.19 20.274 28.375 19.135-.278.982 2.114 1.42 12.19-.436.16-.03.298-.068.436-.132l4.128-.327c.782-.982 1.298-3.615 2.36-2.95 1.063.667-2.666 4.104-1.638 3.387 7.835-5.467 16.523-10.658 18.96-19.354 3.568-12.726 1.43-30.618-8.977-38.62-3.782-2.907-8.73-3.72-13.347-5.133.506-.324.82-.59.415-.546-.47.052-.93.14-1.398.218-.455-.15-.908-.31-1.354-.48-1.948-.146-3.57-.31-5.09-.393-.17-.23-.257-.344-.37-.328zm-214.432-420.033c-1.75.455-3.495.85-5.286 1.05-.976.11-2.006-.396-2.993-.7.05-.03.102-.055.152-.087.068-.024.17-.07.22-.087l7.906-.175zm-14.44 5.455c-.965 1.13-1.915 2.292-3.014 3.255-.48.42-1.16.51-1.726.808-1.43.753-2.84 1.562-4.26 2.337-.043.03-.088.057-.13.088 1.98-2.127 5.05-4.03 9.13-6.488zm9.665 8.088c5.097 0 8.607 4.47 8.607 9.568 0 6.16-3.254 16.608-15.62 20.774-.264.133-.352.457-.086.546 3.28.93 6.605 6.073 10.638 6.073 3.28 0 5.998-2.796 6.662-2.796.31 0 .612.3.612.742 0 1.55-3.897 4.696-9.437 4.696-5.407 0-7.81-6.64-13.172-6.64-3.368 0-7.434 1.55-8.498 1.55-.62 0-1.42.01-1.42-.612-.088-.842.404-1.546 1.246-1.856 4.564-1.73 8.068-1.97 12.145-3.21.4-.09.312-.568-.087-.657-4.74-.885-8.125-5.455-8.125-10.418 0-9.572 7.894-17.76 16.535-17.76zm6.25 4.756c-6.427 0-11.49 8.96-11.49 17.91 0 2.837 1.898 6.38 5.09 6.38 6.735 0 11.27-8.386 11.27-16.318 0-3.81-1.06-7.973-4.87-7.973zM67.098 66.13c1.426 0 2.61.203 1.748 1.027-1.615 1.54-4.175 1.492-6.313 2.228.077-.157.16-.307.24-.46-5.226 3.613-4.28 3.814-8.082 2.207 3.028-1.025 6.096-2.585 9.175-4.784.124-.012 1.807-.22 3.233-.218zm.576 21.495c.383-.264.703-.484 1.158-.786.144-.096-.253-.498-.37-.37-.305.323-.56.728-.788 1.157zm-12.697 1.97c-.045.022-.34.186-.525.283-.022-.005-.043-.016-.066-.022.262-.122.645-.29.59-.262zm1.952 2.775c-1.03.134-2.04.215-3.014.24l3.014-.24z" fill="#fafafa"/></g></svg>