<svg xmlns:dc="http://purl.org/dc/elements/1.1/" xmlns:cc="http://creativecommons.org/ns#" xmlns:rdf="http://www.w3.org/1999/02/22-rdf-syntax-ns#" xmlns="http://www.w3.org/2000/svg" width="256" height="228.59"><metadata><rdf:RDF><cc:Work><dc:format>image/svg+xml</dc:format><dc:type rdf:resource="http://purl.org/dc/dcmitype/StillImage"/><dc:title/></cc:Work></rdf:RDF></metadata><g><text x="280.946" y="497.736" style="text-align:start;line-height:125%;-inkscape-font-specification:EB Garamond" font-size="12" letter-spacing="5.74" word-spacing="0" font-family="EB Garamond" transform="translate(-153.975 -340.667)"/><text x="270.531" y="440.287" style="text-align:start;line-height:125%;-inkscape-font-specification:EB Garamond" font-size="12" letter-spacing="5.74" word-spacing="0" font-family="EB Garamond" transform="translate(-153.975 -340.667)"/><g><path d="M 54,0 C 53.868575,0.01842229 53.588808,0.21279072 53.3125,0.40625 49.977223,0.30105764 46.86067,0.58955364 42.71875,1.8125 6.001699,3.7315251 -7.8893377,40.104966 4.375,65.75 c 5.694245,16.361995 21.729242,29.004057 40.59375,27.375 -0.398352,1.403627 3.024562,2.030502 17.4375,-0.625 0.228351,-0.04207 0.427665,-0.09653 0.625,-0.1875 l 5.90625,-0.46875 c 1.11713,-1.40439 1.85452,-5.17186 3.375,-4.21875 1.52003,0.95281 -3.81503,5.87025 -2.34375,4.84375 C 81.1779,84.64823 93.60612,77.22231 97.09375,64.78125 102.19753,46.57504 99.13925,20.9783 84.25,9.53125 78.839534,5.3716153 71.760494,4.2068863 65.15625,2.1875 65.879264,1.724545 66.33083,1.342025 65.75,1.40625 65.075128,1.48087 64.418666,1.6055647 63.75,1.71875 63.098018,1.5030853 62.45005,1.2727884 61.8125,1.03125 59.023624,0.82200395 56.705939,0.58672319 54.53125,0.46875 54.28801,0.13886087 54.161948,-0.02270074 54,0 z m 1.15625,3.75 C 52.652061,4.398707 50.156397,4.9639855 47.59375,5.25 46.197932,5.405784 44.724109,4.6839223 43.3125,4.25 43.38443,4.20455 43.45903,4.170729 43.53125,4.125 43.62815,4.090577 43.771857,4.0223922 43.84375,4 L 55.15625,3.75 z M 34,9.9375 c -1.381055,1.617459 -2.740248,3.279118 -4.3125,4.65625 -0.68694,0.60169 -1.66049,0.73124 -2.46875,1.15625 -2.04767,1.07673 -4.06356,2.23444 -6.09375,3.34375 -0.062,0.04428 -0.125837,0.0806 -0.1875,0.125 C 23.772047,16.176086 28.164293,13.454471 34,9.9375 z m 22.9375,8.90625 c 7.29094,0 12.3125,6.39656 12.3125,13.6875 0,8.81253 -4.65529,23.7592 -22.34375,29.71875 -0.38039,0.1902 -0.50539,0.65445 -0.125,0.78125 4.69157,1.33139 9.4494,8.6875 15.21875,8.6875 4.69157,0 8.58025,-4 9.53125,-4 0.44379,0 0.875,0.42851 0.875,1.0625 0,2.21899 -5.57507,6.71875 -13.5,6.71875 -7.73474,0 -11.17241,-9.5 -18.84375,-9.5 -4.81836,0 -10.63466,2.21875 -12.15625,2.21875 -0.88759,0 -2.03125,0.01259 -2.03125,-0.875 -0.1268,-1.20459 0.57666,-2.21245 1.78125,-2.65625 6.53015,-2.47258 11.54224,-2.81857 17.375,-4.59375 0.57059,-0.1268 0.44559,-0.8107 -0.125,-0.9375 -6.78375,-1.26799 -11.625,-7.80551 -11.625,-14.90625 0,-13.69429 11.29335,-25.40625 23.65625,-25.40625 z M 56,21.8125 c -9.19293,0 -16.4375,12.8183 -16.4375,25.625 0,4.05756 2.71649,9.125 7.28125,9.125 9.63672,0 16.125,-11.99524 16.125,-23.34375 0,-5.45236 -1.5164,-11.40625 -6.96875,-11.40625 z m 16.28125,62.125 c 2.039278,0.0023 3.73516,0.290785 2.5,1.46875 -2.310885,2.203897 -5.972647,2.135255 -9.03125,3.1875 0.110185,-0.223708 0.228287,-0.438697 0.34375,-0.65625 -7.477449,5.166938 -6.124767,5.454889 -11.5625,3.15625 4.331791,-1.467202 8.720406,-3.697612 13.125,-6.84375 0.17737,-0.01695 2.585722,-0.314785 4.625,-0.3125 z m -6.1875,4 c 0.547524,-0.37834 1.005026,-0.692778 1.65625,-1.125 0.20658,-0.13711 -0.36168,-0.71214 -0.53125,-0.53125 -0.434392,0.463358 -0.799414,1.042789 -1.125,1.65625 z m -15.5,1.09375 c -0.06381,0.03237 -0.483951,0.267769 -0.75,0.40625 -0.03178,-0.0078 -0.06189,-0.02349 -0.09375,-0.03125 0.376191,-0.174345 0.923519,-0.415464 0.84375,-0.375 z m 9.46875,3.5 C 58.587286,92.723814 57.145219,92.839843 55.75,92.875 l 4.3125,-0.34375 z" transform="matrix(.625 0 0 .625 -.009 84.827)" fill="#fff"/></g><g><path d="m 298.44271,440.37554 c -0.0572,-0.11505 -0.0864,-0.23024 -0.0864,-0.3453 0,-0.40291 0.28772,-0.60432 0.86332,-0.60432 0.92098,0 1.69797,0.31659 2.331,0.94962 6.33104,6.5613 11.82751,11.05053 16.48956,13.4679 0.69062,0.4029 1.03593,0.77695 1.03593,1.12226 0,0.40291 -0.37405,0.77696 -1.12226,1.12226 -4.66206,2.41737 -10.15852,6.90661 -16.48956,13.4679 -0.63302,0.63304 -1.41003,0.94963 -2.33101,0.94963 -0.57558,0 -0.8633,-0.20139 -0.8633,-0.60432 0,-0.11504 0.0291,-0.23027 0.0864,-0.34531 1.66913,-4.31658 4.43171,-8.51811 8.28793,-12.60449 l -64.14504,0 c -0.28774,0 -0.56113,-0.10073 -0.82012,-0.30219 -0.25898,-0.20147 -0.38847,-0.41729 -0.38847,-0.64754 l 0.0864,-0.0864 0,-0.17266 c 0.69062,-1.84165 1.58275,-2.76262 2.67634,-2.76262 l 62.59096,0 c -3.68353,-3.79865 -6.4173,-8.00019 -8.2016,-12.6045" fill="#fff" transform="translate(-153.975 -340.667)"/><g><path d="m 364.25,0 c -0.13143,0.01842229 -0.41119,0.21279072 -0.6875,0.40625 C 360.22722,0.30105764 357.11067,0.58955364 352.96875,1.8125 316.2517,3.7315251 302.36066,40.104966 314.625,65.75 c 5.69733,16.370853 21.74723,29.020394 40.625,27.375 -0.40332,1.405452 2.98441,2.032143 17.40625,-0.625 0.2186,-0.04028 0.40366,-0.102271 0.59375,-0.1875 l 5.96875,-0.46875 c 1.11713,-1.40439 1.82327,-5.17186 3.34375,-4.21875 1.52003,0.95281 -3.81503,5.87025 -2.34375,4.84375 11.20915,-7.82052 23.63737,-15.24644 27.125,-27.6875 C 412.44753,46.57504 409.38925,20.9783 394.5,9.53125 389.08953,5.3716153 382.01049,4.2068863 375.40625,2.1875 376.12926,1.724545 376.58083,1.342025 376,1.40625 c -0.67487,0.07462 -1.33133,0.1993147 -2,0.3125 -0.65198,-0.2156647 -1.29995,-0.4459616 -1.9375,-0.6875 -2.78888,-0.20924605 -5.10656,-0.44452681 -7.28125,-0.5625 C 364.53801,0.13886087 364.41195,-0.02270074 364.25,0 z m 1.15625,3.75 c -2.50102,0.6477486 -5.00312,1.2143501 -7.5625,1.5 -1.39582,0.155784 -2.86964,-0.5660777 -4.28125,-1 0.0719,-0.04545 0.14653,-0.079271 0.21875,-0.125 0.0969,-0.034423 0.24061,-0.1026078 0.3125,-0.125 l 11.3125,-0.25 z M 344.25,9.9375 c -1.38105,1.617459 -2.74025,3.279118 -4.3125,4.65625 -0.68694,0.60169 -1.66049,0.73124 -2.46875,1.15625 -2.04767,1.07673 -4.06356,2.23444 -6.09375,3.34375 -0.0551,0.03936 -0.10142,0.08555 -0.15625,0.125 2.83475,-3.037927 7.20287,-5.768693 13.03125,-9.28125 z M 372.96875,27.5 c 0.88759,0 1.0027,0.32486 0.8125,1.65625 l -3.875,28.03125 c -0.3804,2.85298 0.0106,4.80531 1.46875,5.3125 1.71179,0.634 3.0625,0.95526 3.0625,1.90625 0,0.634 -0.95436,1.0625 -1.96875,1.0625 -0.76079,0 -4.01932,-0.375 -7.0625,-0.375 -2.97977,0 -4.799,0.375 -5.75,0.375 -1.01439,0 -2.09375,-0.4285 -2.09375,-1.0625 0,-0.95099 2.01057,-1.20975 3.46875,-1.84375 2.09219,-0.95099 2.9928,-2.20502 3.5,-5.375 l 0.6875,-4.84375 c 0.0634,-0.4438 -0.0535,-0.6875 -0.6875,-0.6875 l -9.4375,0 c -0.634,0 -1.08746,0.2419 -1.53125,0.8125 L 349,57.75 c -2.15558,2.47258 -1.70819,4.24281 -0.25,4.75 1.71179,0.634 3.03125,0.95526 3.03125,1.90625 0,0.634 -0.95435,1.0625 -1.96875,1.0625 -0.76079,0 -4.73808,-0.375 -7.78125,-0.375 -2.97978,0 -4.70526,0.375 -5.65625,0.375 -1.01439,0 -2.09375,-0.4285 -2.09375,-1.0625 0,-0.95099 2.04181,-1.20975 3.5,-1.84375 2.09218,-0.95099 4.48358,-1.78978 7.84375,-5.59375 l 20.3125,-23.25 c 1.07779,-1.14119 1.96066,-3.36781 2.53125,-3.875 1.39479,-1.20459 3.67581,-2.34375 4.5,-2.34375 z m -6.0625,9.90625 c -0.19391,0.08693 -0.4783,0.375729 -0.90625,0.875 l -7.875,9 c -0.88759,1.0144 -0.50719,1.21875 0,1.21875 l 7.03125,0 c 0.634,0 0.65445,-0.39905 0.78125,-0.90625 l 1.25,-9.1875 c 0.0793,-0.752869 0.0419,-1.144877 -0.28125,-1 z m 15.625,46.53125 c 2.03928,0.0023 3.73516,0.290785 2.5,1.46875 -2.31088,2.203897 -5.97265,2.135255 -9.03125,3.1875 0.11018,-0.223708 0.22829,-0.438697 0.34375,-0.65625 -7.4653,5.159807 -6.12735,5.453798 -11.5625,3.15625 4.33179,-1.467202 8.72041,-3.697612 13.125,-6.84375 0.17737,-0.01695 2.58572,-0.314785 4.625,-0.3125 z m -6.1875,4 c 0.55044,-0.380446 1.00081,-0.689978 1.65625,-1.125 0.20658,-0.13711 -0.36168,-0.71214 -0.53125,-0.53125 -0.43439,0.463358 -0.79941,1.042789 -1.125,1.65625 z m -15.5,1.09375 c -0.0638,0.03237 -0.48395,0.267769 -0.75,0.40625 -0.0318,-0.0078 -0.0619,-0.02349 -0.0937,-0.03125 0.37619,-0.174345 0.92352,-0.415464 0.84375,-0.375 z m 9.46875,3.5 c -1.46588,0.191345 -2.89417,0.307986 -4.28125,0.34375 l 4.28125,-0.34375 z" transform="matrix(.625 0 0 .625 -.009 84.827)" fill="#fff"/></g></g><g><path d="m 298.44271,440.37554 c -0.0572,-0.11505 -0.0864,-0.23024 -0.0864,-0.3453 0,-0.40291 0.28772,-0.60432 0.86332,-0.60432 0.92098,0 1.69797,0.31659 2.331,0.94962 6.33104,6.5613 11.82751,11.05053 16.48956,13.4679 0.69062,0.4029 1.03593,0.77695 1.03593,1.12226 0,0.40291 -0.37405,0.77696 -1.12226,1.12226 -4.66206,2.41737 -10.15852,6.90661 -16.48956,13.4679 -0.63302,0.63304 -1.41003,0.94963 -2.33101,0.94963 -0.57558,0 -0.8633,-0.20139 -0.8633,-0.60432 0,-0.11504 0.0291,-0.23027 0.0864,-0.34531 1.66913,-4.31658 4.43171,-8.51811 8.28793,-12.60449 l -64.14504,0 c -0.28774,0 -0.56113,-0.10073 -0.82012,-0.30219 -0.25898,-0.20147 -0.38847,-0.41729 -0.38847,-0.64754 l 0.0864,-0.0864 0,-0.17266 c 0.69062,-1.84165 1.58275,-2.76262 2.67634,-2.76262 l 62.59096,0 c -3.68353,-3.79865 -6.4173,-8.00019 -8.2016,-12.6045" fill="#fff" transform="matrix(.903 -.43 .43 .903 -332.068 -217.849)"/><g><path d="m 364.25,0 c -0.13143,0.01842229 -0.41119,0.21279072 -0.6875,0.40625 C 360.22722,0.30105764 357.11067,0.58955364 352.96875,1.8125 316.2517,3.7315251 302.36066,40.104966 314.625,65.75 c 5.69733,16.370853 21.74723,29.020394 40.625,27.375 -0.40332,1.405452 2.98441,2.032143 17.40625,-0.625 0.2186,-0.04028 0.40366,-0.102271 0.59375,-0.1875 l 5.96875,-0.46875 c 1.11713,-1.40439 1.82327,-5.17186 3.34375,-4.21875 1.52003,0.95281 -3.81503,5.87025 -2.34375,4.84375 11.20915,-7.82052 23.63737,-15.24644 27.125,-27.6875 C 412.44753,46.57504 409.38925,20.9783 394.5,9.53125 389.08953,5.3716153 382.01049,4.2068863 375.40625,2.1875 376.12926,1.724545 376.58083,1.342025 376,1.40625 c -0.67487,0.07462 -1.33133,0.1993147 -2,0.3125 -0.65198,-0.2156647 -1.29995,-0.4459616 -1.9375,-0.6875 -2.78888,-0.20924605 -5.10656,-0.44452681 -7.28125,-0.5625 C 364.53801,0.13886087 364.41195,-0.02270074 364.25,0 z m 1.15625,3.75 c -2.50102,0.6477486 -5.00312,1.2143501 -7.5625,1.5 -1.39582,0.155784 -2.86964,-0.5660777 -4.28125,-1 0.0719,-0.04545 0.14653,-0.079271 0.21875,-0.125 0.0969,-0.034423 0.24061,-0.1026078 0.3125,-0.125 l 11.3125,-0.25 z M 344.25,9.9375 c -1.38105,1.617459 -2.74025,3.279118 -4.3125,4.65625 -0.68694,0.60169 -1.66049,0.73124 -2.46875,1.15625 -2.04767,1.07673 -4.06356,2.23444 -6.09375,3.34375 -0.0551,0.03936 -0.10142,0.08555 -0.15625,0.125 2.83475,-3.037927 7.20287,-5.768693 13.03125,-9.28125 z M 372.96875,27.5 c 0.88759,0 1.0027,0.32486 0.8125,1.65625 l -3.875,28.03125 c -0.3804,2.85298 0.0106,4.80531 1.46875,5.3125 1.71179,0.634 3.0625,0.95526 3.0625,1.90625 0,0.634 -0.95436,1.0625 -1.96875,1.0625 -0.76079,0 -4.01932,-0.375 -7.0625,-0.375 -2.97977,0 -4.799,0.375 -5.75,0.375 -1.01439,0 -2.09375,-0.4285 -2.09375,-1.0625 0,-0.95099 2.01057,-1.20975 3.46875,-1.84375 2.09219,-0.95099 2.9928,-2.20502 3.5,-5.375 l 0.6875,-4.84375 c 0.0634,-0.4438 -0.0535,-0.6875 -0.6875,-0.6875 l -9.4375,0 c -0.634,0 -1.08746,0.2419 -1.53125,0.8125 L 349,57.75 c -2.15558,2.47258 -1.70819,4.24281 -0.25,4.75 1.71179,0.634 3.03125,0.95526 3.03125,1.90625 0,0.634 -0.95435,1.0625 -1.96875,1.0625 -0.76079,0 -4.73808,-0.375 -7.78125,-0.375 -2.97978,0 -4.70526,0.375 -5.65625,0.375 -1.01439,0 -2.09375,-0.4285 -2.09375,-1.0625 0,-0.95099 2.04181,-1.20975 3.5,-1.84375 2.09218,-0.95099 4.48358,-1.78978 7.84375,-5.59375 l 20.3125,-23.25 c 1.07779,-1.14119 1.96066,-3.36781 2.53125,-3.875 1.39479,-1.20459 3.67581,-2.34375 4.5,-2.34375 z m -6.0625,9.90625 c -0.19391,0.08693 -0.4783,0.375729 -0.90625,0.875 l -7.875,9 c -0.88759,1.0144 -0.50719,1.21875 0,1.21875 l 7.03125,0 c 0.634,0 0.65445,-0.39905 0.78125,-0.90625 l 1.25,-9.1875 c 0.0793,-0.752869 0.0419,-1.144877 -0.28125,-1 z m 15.625,46.53125 c 2.03928,0.0023 3.73516,0.290785 2.5,1.46875 -2.31088,2.203897 -5.97265,2.135255 -9.03125,3.1875 0.11018,-0.223708 0.22829,-0.438697 0.34375,-0.65625 -7.4653,5.159807 -6.12735,5.453798 -11.5625,3.15625 4.33179,-1.467202 8.72041,-3.697612 13.125,-6.84375 0.17737,-0.01695 2.58572,-0.314785 4.625,-0.3125 z m -6.1875,4 c 0.55044,-0.380446 1.00081,-0.689978 1.65625,-1.125 0.20658,-0.13711 -0.36168,-0.71214 -0.53125,-0.53125 -0.43439,0.463358 -0.79941,1.042789 -1.125,1.65625 z m -15.5,1.09375 c -0.0638,0.03237 -0.48395,0.267769 -0.75,0.40625 -0.0318,-0.0078 -0.0619,-0.02349 -0.0937,-0.03125 0.37619,-0.174345 0.92352,-0.415464 0.84375,-0.375 z m 9.46875,3.5 c -1.46588,0.191345 -2.89417,0.307986 -4.28125,0.34375 l 4.28125,-0.34375 z" transform="matrix(.625 -.015 .015 .625 -20.153 6.105)" fill="#fff"/></g></g><g><path d="m 298.44271,440.37554 c -0.0572,-0.11505 -0.0864,-0.23024 -0.0864,-0.3453 0,-0.40291 0.28772,-0.60432 0.86332,-0.60432 0.92098,0 1.69797,0.31659 2.331,0.94962 6.33104,6.5613 11.82751,11.05053 16.48956,13.4679 0.69062,0.4029 1.03593,0.77695 1.03593,1.12226 0,0.40291 -0.37405,0.77696 -1.12226,1.12226 -4.66206,2.41737 -10.15852,6.90661 -16.48956,13.4679 -0.63302,0.63304 -1.41003,0.94963 -2.33101,0.94963 -0.57558,0 -0.8633,-0.20139 -0.8633,-0.60432 0,-0.11504 0.0291,-0.23027 0.0864,-0.34531 1.66913,-4.31658 4.43171,-8.51811 8.28793,-12.60449 l -64.14504,0 c -0.28774,0 -0.56113,-0.10073 -0.82012,-0.30219 -0.25898,-0.20147 -0.38847,-0.41729 -0.38847,-0.64754 l 0.0864,-0.0864 0,-0.17266 c 0.69062,-1.84165 1.58275,-2.76262 2.67634,-2.76262 l 62.59096,0 c -3.68353,-3.79865 -6.4173,-8.00019 -8.2016,-12.6045" fill="#fff" transform="matrix(.903 .43 -.43 .903 59.336 -374.874)"/><g><path d="m 364.25,0 c -0.13143,0.01842229 -0.41119,0.21279072 -0.6875,0.40625 C 360.22722,0.30105764 357.11067,0.58955364 352.96875,1.8125 316.2517,3.7315251 302.36066,40.104966 314.625,65.75 c 5.69733,16.370853 21.74723,29.020394 40.625,27.375 -0.40332,1.405452 2.98441,2.032143 17.40625,-0.625 0.2186,-0.04028 0.40366,-0.102271 0.59375,-0.1875 l 5.96875,-0.46875 c 1.11713,-1.40439 1.82327,-5.17186 3.34375,-4.21875 1.52003,0.95281 -3.81503,5.87025 -2.34375,4.84375 11.20915,-7.82052 23.63737,-15.24644 27.125,-27.6875 C 412.44753,46.57504 409.38925,20.9783 394.5,9.53125 389.08953,5.3716153 382.01049,4.2068863 375.40625,2.1875 376.12926,1.724545 376.58083,1.342025 376,1.40625 c -0.67487,0.07462 -1.33133,0.1993147 -2,0.3125 -0.65198,-0.2156647 -1.29995,-0.4459616 -1.9375,-0.6875 -2.78888,-0.20924605 -5.10656,-0.44452681 -7.28125,-0.5625 C 364.53801,0.13886087 364.41195,-0.02270074 364.25,0 z m 1.15625,3.75 c -2.50102,0.6477486 -5.00312,1.2143501 -7.5625,1.5 -1.39582,0.155784 -2.86964,-0.5660777 -4.28125,-1 0.0719,-0.04545 0.14653,-0.079271 0.21875,-0.125 0.0969,-0.034423 0.24061,-0.1026078 0.3125,-0.125 l 11.3125,-0.25 z M 344.25,9.9375 c -1.38105,1.617459 -2.74025,3.279118 -4.3125,4.65625 -0.68694,0.60169 -1.66049,0.73124 -2.46875,1.15625 -2.04767,1.07673 -4.06356,2.23444 -6.09375,3.34375 -0.0551,0.03936 -0.10142,0.08555 -0.15625,0.125 2.83475,-3.037927 7.20287,-5.768693 13.03125,-9.28125 z M 372.96875,27.5 c 0.88759,0 1.0027,0.32486 0.8125,1.65625 l -3.875,28.03125 c -0.3804,2.85298 0.0106,4.80531 1.46875,5.3125 1.71179,0.634 3.0625,0.95526 3.0625,1.90625 0,0.634 -0.95436,1.0625 -1.96875,1.0625 -0.76079,0 -4.01932,-0.375 -7.0625,-0.375 -2.97977,0 -4.799,0.375 -5.75,0.375 -1.01439,0 -2.09375,-0.4285 -2.09375,-1.0625 0,-0.95099 2.01057,-1.20975 3.46875,-1.84375 2.09219,-0.95099 2.9928,-2.20502 3.5,-5.375 l 0.6875,-4.84375 c 0.0634,-0.4438 -0.0535,-0.6875 -0.6875,-0.6875 l -9.4375,0 c -0.634,0 -1.08746,0.2419 -1.53125,0.8125 L 349,57.75 c -2.15558,2.47258 -1.70819,4.24281 -0.25,4.75 1.71179,0.634 3.03125,0.95526 3.03125,1.90625 0,0.634 -0.95435,1.0625 -1.96875,1.0625 -0.76079,0 -4.73808,-0.375 -7.78125,-0.375 -2.97978,0 -4.70526,0.375 -5.65625,0.375 -1.01439,0 -2.09375,-0.4285 -2.09375,-1.0625 0,-0.95099 2.04181,-1.20975 3.5,-1.84375 2.09218,-0.95099 4.48358,-1.78978 7.84375,-5.59375 l 20.3125,-23.25 c 1.07779,-1.14119 1.96066,-3.36781 2.53125,-3.875 1.39479,-1.20459 3.67581,-2.34375 4.5,-2.34375 z m -6.0625,9.90625 c -0.19391,0.08693 -0.4783,0.375729 -0.90625,0.875 l -7.875,9 c -0.88759,1.0144 -0.50719,1.21875 0,1.21875 l 7.03125,0 c 0.634,0 0.65445,-0.39905 0.78125,-0.90625 l 1.25,-9.1875 c 0.0793,-0.752869 0.0419,-1.144877 -0.28125,-1 z m 15.625,46.53125 c 2.03928,0.0023 3.73516,0.290785 2.5,1.46875 -2.31088,2.203897 -5.97265,2.135255 -9.03125,3.1875 0.11018,-0.223708 0.22829,-0.438697 0.34375,-0.65625 -7.4653,5.159807 -6.12735,5.453798 -11.5625,3.15625 4.33179,-1.467202 8.72041,-3.697612 13.125,-6.84375 0.17737,-0.01695 2.58572,-0.314785 4.625,-0.3125 z m -6.1875,4 c 0.55044,-0.380446 1.00081,-0.689978 1.65625,-1.125 0.20658,-0.13711 -0.36168,-0.71214 -0.53125,-0.53125 -0.43439,0.463358 -0.79941,1.042789 -1.125,1.65625 z m -15.5,1.09375 c -0.0638,0.03237 -0.48395,0.267769 -0.75,0.40625 -0.0318,-0.0078 -0.0619,-0.02349 -0.0937,-0.03125 0.37619,-0.174345 0.92352,-0.415464 0.84375,-0.375 z m 9.46875,3.5 c -1.46588,0.191345 -2.89417,0.307986 -4.28125,0.34375 l 4.28125,-0.34375 z" transform="matrix(.625 -.009 .009 .625 -19.86 173.092)" fill="#fff"/></g></g></g></svg>