<svg xmlns="http://www.w3.org/2000/svg" width="62.102" height="58.958"><g><text style="text-align:start;line-height:125%;-inkscape-font-specification:EB Garamond" x="280.946" y="497.736" font-size="12" letter-spacing="5.74" word-spacing="0" font-family="EB Garamond" transform="translate(-153.975 -425.482)"/><text style="text-align:start;line-height:125%;-inkscape-font-specification:EB Garamond" x="270.531" y="440.287" font-size="12" letter-spacing="5.74" word-spacing="0" font-family="EB Garamond" transform="translate(-153.975 -425.482)"/><path d="M33.742.013c-.082.012-.257.133-.43.254-2.084-.066-4.032.114-6.62.88C3.74 2.344-4.94 25.078 2.725 41.106c3.56 10.226 13.58 18.127 25.37 17.11-.248.876 1.892 1.268 10.9-.392.143-.026.267-.06.39-.117l3.692-.293c.698-.877 1.16-3.232 2.11-2.636.95.594-2.385 3.668-1.466 3.026 7.006-4.888 14.774-9.53 16.954-17.305 3.19-11.378 1.278-27.376-8.028-34.53-3.38-2.6-7.806-3.328-11.933-4.59.452-.29.734-.528.37-.488-.42.047-.83.124-1.25.195-.407-.135-.812-.28-1.21-.43-1.743-.13-3.192-.277-4.55-.35-.153-.207-.232-.308-.333-.294zm20.98 2.33c-1.564.406-3.124.76-4.726.938-.872.1-1.793-.353-2.676-.624.045-.028.092-.05.137-.078.06-.02.15-.064.195-.078l7.07-.156zM42.368 9.024c-.864 1.01-1.713 2.05-2.696 2.91-.43.376-1.038.457-1.543.723-1.28.673-2.54 1.397-3.808 2.09-.04.028-.08.05-.117.078 1.77-1.902 4.516-3.603 8.164-5.8zm6.402 7.887c4.557 0 7.695 3.998 7.695 8.555 0 5.506-2.908 14.848-13.964 18.573-.237.12-.315.41-.078.488 2.933.833 5.906 5.43 9.512 5.43 2.932 0 5.363-2.5 5.957-2.5.277 0 .547.27.547.665 0 1.387-3.485 4.2-8.438 4.2-4.834 0-6.982-5.938-11.777-5.938-3.012 0-6.648 1.386-7.6 1.386-.553 0-1.268.008-1.268-.547-.08-.752.36-1.382 1.113-1.66 4.082-1.545 7.214-1.76 10.86-2.87.356-.08.278-.508-.08-.587-4.238-.793-7.264-4.88-7.264-9.317 0-8.56 7.06-15.88 14.786-15.88zm8.016 5.195c-5.746 0-10.274 8.01-10.274 16.015 0 2.536 1.698 5.703 4.55 5.703 6.024 0 10.08-7.497 10.08-14.59 0-3.408-.95-7.13-4.356-7.13zm9.824 39.94c1.274.002 2.334.182 1.562.92-1.444 1.376-3.733 1.333-5.644 1.99.07-.14.142-.273.215-.41-4.675 3.23-3.83 3.41-7.228 1.973 2.707-.917 5.45-2.31 8.203-4.277.11-.01 1.616-.197 2.89-.195zm2.238 25.797c.342-.236.628-.432 1.035-.703.128-.085-.227-.445-.333-.332-.27.29-.5.652-.703 1.035zM54.086 90.12c-.04.02-.302.168-.468.255-.02-.005-.04-.015-.06-.02.236-.108.578-.26.528-.234zm.106 2.6c-.922.12-1.824.192-2.696.214l2.696-.215z" fill="#fff"/></g></svg>