<svg xmlns:dc="http://purl.org/dc/elements/1.1/" xmlns:cc="http://creativecommons.org/ns#" xmlns:rdf="http://www.w3.org/1999/02/22-rdf-syntax-ns#" xmlns="http://www.w3.org/2000/svg" width="62.102" height="58.958"><metadata><rdf:RDF><cc:Work><dc:format>image/svg+xml</dc:format><dc:type rdf:resource="http://purl.org/dc/dcmitype/StillImage"/><dc:title/></cc:Work></rdf:RDF></metadata><g><text style="text-align:start;line-height:125%;-inkscape-font-specification:EB Garamond" x="280.946" y="497.736" font-size="12" letter-spacing="5.74" word-spacing="0" font-family="EB Garamond" transform="translate(-153.975 -425.482)"/><text style="text-align:start;line-height:125%;-inkscape-font-specification:EB Garamond" x="270.531" y="440.287" font-size="12" letter-spacing="5.74" word-spacing="0" font-family="EB Garamond" transform="translate(-153.975 -425.482)"/><g><path transform="matrix(.625 0 0 .625 -.009 .012)" d="M 54,0 C 53.868575,0.01842229 53.588808,0.21279072 53.3125,0.40625 49.977223,0.30105764 46.86067,0.58955364 42.71875,1.8125 6.001699,3.7315251 -7.8893377,40.104966 4.375,65.75 c 5.694245,16.361995 21.729242,29.004057 40.59375,27.375 -0.398352,1.403627 3.024562,2.030502 17.4375,-0.625 0.228351,-0.04207 0.427665,-0.09653 0.625,-0.1875 l 5.90625,-0.46875 c 1.11713,-1.40439 1.85452,-5.17186 3.375,-4.21875 1.52003,0.95281 -3.81503,5.87025 -2.34375,4.84375 C 81.1779,84.64823 93.60612,77.22231 97.09375,64.78125 102.19753,46.57504 99.13925,20.9783 84.25,9.53125 78.839534,5.3716153 71.760494,4.2068863 65.15625,2.1875 65.879264,1.724545 66.33083,1.342025 65.75,1.40625 65.075128,1.48087 64.418666,1.6055647 63.75,1.71875 63.098018,1.5030853 62.45005,1.2727884 61.8125,1.03125 59.023624,0.82200395 56.705939,0.58672319 54.53125,0.46875 54.28801,0.13886087 54.161948,-0.02270074 54,0 z m 1.15625,3.75 C 52.652061,4.398707 50.156397,4.9639855 47.59375,5.25 46.197932,5.405784 44.724109,4.6839223 43.3125,4.25 43.38443,4.20455 43.45903,4.170729 43.53125,4.125 43.62815,4.090577 43.771857,4.0223922 43.84375,4 L 55.15625,3.75 z M 34,9.9375 c -1.381055,1.617459 -2.740248,3.279118 -4.3125,4.65625 -0.68694,0.60169 -1.66049,0.73124 -2.46875,1.15625 -2.04767,1.07673 -4.06356,2.23444 -6.09375,3.34375 -0.062,0.04428 -0.125837,0.0806 -0.1875,0.125 C 23.772047,16.176086 28.164293,13.454471 34,9.9375 z m 22.9375,8.90625 c 7.29094,0 12.3125,6.39656 12.3125,13.6875 0,8.81253 -4.65529,23.7592 -22.34375,29.71875 -0.38039,0.1902 -0.50539,0.65445 -0.125,0.78125 4.69157,1.33139 9.4494,8.6875 15.21875,8.6875 4.69157,0 8.58025,-4 9.53125,-4 0.44379,0 0.875,0.42851 0.875,1.0625 0,2.21899 -5.57507,6.71875 -13.5,6.71875 -7.73474,0 -11.17241,-9.5 -18.84375,-9.5 -4.81836,0 -10.63466,2.21875 -12.15625,2.21875 -0.88759,0 -2.03125,0.01259 -2.03125,-0.875 -0.1268,-1.20459 0.57666,-2.21245 1.78125,-2.65625 6.53015,-2.47258 11.54224,-2.81857 17.375,-4.59375 0.57059,-0.1268 0.44559,-0.8107 -0.125,-0.9375 -6.78375,-1.26799 -11.625,-7.80551 -11.625,-14.90625 0,-13.69429 11.29335,-25.40625 23.65625,-25.40625 z M 56,21.8125 c -9.19293,0 -16.4375,12.8183 -16.4375,25.625 0,4.05756 2.71649,9.125 7.28125,9.125 9.63672,0 16.125,-11.99524 16.125,-23.34375 0,-5.45236 -1.5164,-11.40625 -6.96875,-11.40625 z m 16.28125,62.125 c 2.039278,0.0023 3.73516,0.290785 2.5,1.46875 -2.310885,2.203897 -5.972647,2.135255 -9.03125,3.1875 0.110185,-0.223708 0.228287,-0.438697 0.34375,-0.65625 -7.477449,5.166938 -6.124767,5.454889 -11.5625,3.15625 4.331791,-1.467202 8.720406,-3.697612 13.125,-6.84375 0.17737,-0.01695 2.585722,-0.314785 4.625,-0.3125 z m -6.1875,4 c 0.547524,-0.37834 1.005026,-0.692778 1.65625,-1.125 0.20658,-0.13711 -0.36168,-0.71214 -0.53125,-0.53125 -0.434392,0.463358 -0.799414,1.042789 -1.125,1.65625 z m -15.5,1.09375 c -0.06381,0.03237 -0.483951,0.267769 -0.75,0.40625 -0.03178,-0.0078 -0.06189,-0.02349 -0.09375,-0.03125 0.376191,-0.174345 0.923519,-0.415464 0.84375,-0.375 z m 9.46875,3.5 C 58.587286,92.723814 57.145219,92.839843 55.75,92.875 l 4.3125,-0.34375 z" fill="#fff"/></g></g></svg>