<svg xmlns="http://www.w3.org/2000/svg" width="1920" height="1080" opacity=".3"><path d="M513,-265L1281,-203L1382,-225Z" fill="#ffbb78" stroke="#ffbb78" stroke-width="1.51"/><path d="M513,-265L1382,-225L1623,-246Z" fill="#ffb476" stroke="#ffb476" stroke-width="1.51"/><path d="M326,-279L513,-265L1623,-246Z" fill="#ffcc82" stroke="#ffcc82" stroke-width="1.51"/><path d="M1662,1249L1495,1269L2023,1252Z" fill="#bf0924" stroke="#bf0924" stroke-width="1.51"/><path d="M1495,1269L864,1362L2023,1252Z" fill="#c52026" stroke="#c52026" stroke-width="1.51"/><path d="M1773,1232L1662,1249L2023,1252Z" fill="#bc0525" stroke="#bc0525" stroke-width="1.51"/><path d="M326,-279L1623,-246L2071,-240Z" fill="#ffa872" stroke="#ffa872" stroke-width="1.51"/><path d="M1623,-246L1842,-217L2071,-240Z" fill="#ee946a" stroke="#ee946a" stroke-width="1.51"/><path d="M2050,1048L2236,1068L2243,908Z" fill="#b70a23" stroke="#b70a23" stroke-width="1.51"/><path d="M2241,668L1981,667L2243,908Z" fill="#c92e29" stroke="#c92e29" stroke-width="1.51"/><path d="M1981,667L1951,879L2243,908Z" fill="#cf2727" stroke="#cf2727" stroke-width="1.51"/><path d="M2067,598L2188,606L2260,390Z" fill="#c95332" stroke="#c95332" stroke-width="1.51"/><path d="M2054,336L2067,598L2260,390Z" fill="#ce5c35" stroke="#ce5c35" stroke-width="1.51"/><path d="M2191,127L2054,336L2260,390Z" fill="#cb6a3d" stroke="#cb6a3d" stroke-width="1.51"/><path d="M2188,606L2241,668L2260,390Z" fill="#c34e32" stroke="#c34e32" stroke-width="1.51"/><path d="M2192,-86L2191,127L2260,390Z" fill="#c87649" stroke="#c87649" stroke-width="1.51"/><path d="M2241,668L2243,908L2260,390Z" fill="#c13e2e" stroke="#c13e2e" stroke-width="1.51"/><path d="M2027,-30L2191,127L2192,-86Z" fill="#d28055" stroke="#d28055" stroke-width="1.51"/><path d="M2050,1048L2187,1231L2236,1068Z" fill="#b00425" stroke="#b00425" stroke-width="1.51"/><path d="M2188,606L2067,598L2241,668Z" fill="#c9452f" stroke="#c9452f" stroke-width="1.51"/><path d="M2067,598L1981,667L2241,668Z" fill="#d0432d" stroke="#d0432d" stroke-width="1.51"/><path d="M1951,879L2050,1048L2243,908Z" fill="#c61223" stroke="#c61223" stroke-width="1.51"/><path d="M513,-265L854,-177L1281,-203Z" fill="#ffc77b" stroke="#ffc77b" stroke-width="1.51"/><path d="M2050,1048L2023,1252L2187,1231Z" fill="#b10026" stroke="#b10026" stroke-width="1.51"/><path d="M1953,139L2054,336L2191,127Z" fill="#d77544" stroke="#d77544" stroke-width="1.51"/><path d="M2027,-30L1953,139L2191,127Z" fill="#d87f4f" stroke="#d87f4f" stroke-width="1.51"/><path d="M2170,-166L2027,-30L2192,-86Z" fill="#d3855e" stroke="#d3855e" stroke-width="1.51"/><path d="M2071,-240L2027,-30L2170,-166Z" fill="#d88963" stroke="#d88963" stroke-width="1.51"/><path d="M1816,1156L2023,1252L2050,1048Z" fill="#bf0226" stroke="#bf0226" stroke-width="1.51"/><path d="M1953,139L1863,321L2054,336Z" fill="#e1723e" stroke="#e1723e" stroke-width="1.51"/><path d="M1863,321L1869,567L2054,336Z" fill="#e06535" stroke="#e06535" stroke-width="1.51"/><path d="M2054,336L1869,567L2067,598Z" fill="#da5a32" stroke="#da5a32" stroke-width="1.51"/><path d="M1869,567L1981,667L2067,598Z" fill="#dc4b2e" stroke="#dc4b2e" stroke-width="1.51"/><path d="M1842,-217L2027,-30L2071,-240Z" fill="#e48d65" stroke="#e48d65" stroke-width="1.51"/><path d="M1842,-217L1812,-79L2027,-30Z" fill="#e98d5f" stroke="#e98d5f" stroke-width="1.51"/><path d="M1951,879L1831,923L2050,1048Z" fill="#d21322" stroke="#d21322" stroke-width="1.51"/><path d="M1831,923L1816,1156L2050,1048Z" fill="#cd0c23" stroke="#cd0c23" stroke-width="1.51"/><path d="M1193,1243L864,1362L1495,1269Z" fill="#cc3b2c" stroke="#cc3b2c" stroke-width="1.51"/><path d="M1823,674L1951,879L1981,667Z" fill="#de3428" stroke="#de3428" stroke-width="1.51"/><path d="M1868,106L1953,139L2027,-30Z" fill="#e3844f" stroke="#e3844f" stroke-width="1.51"/><path d="M1812,-79L1868,106L2027,-30Z" fill="#e78855" stroke="#e78855" stroke-width="1.51"/><path d="M1816,1156L1773,1232L2023,1252Z" fill="#bd0325" stroke="#bd0325" stroke-width="1.51"/><path d="M1868,106L1863,321L1953,139Z" fill="#e57b44" stroke="#e57b44" stroke-width="1.51"/><path d="M1869,567L1823,674L1981,667Z" fill="#e1492c" stroke="#e1492c" stroke-width="1.51"/><path d="M1823,674L1831,923L1951,879Z" fill="#dd2a25" stroke="#dd2a25" stroke-width="1.51"/><path d="M854,-177L1064,-164L1281,-203Z" fill="#ffb972" stroke="#ffb972" stroke-width="1.51"/><path d="M1614,1149L1816,1156L1831,923Z" fill="#d21022" stroke="#d21022" stroke-width="1.51"/><path d="M1823,674L1642,769L1831,923Z" fill="#e53025" stroke="#e53025" stroke-width="1.51"/><path d="M1605,115L1556,358L1863,321Z" fill="#f17939" stroke="#f17939" stroke-width="1.51"/><path d="M1812,-79L1654,-51L1868,106Z" fill="#ef8b54" stroke="#ef8b54" stroke-width="1.51"/><path d="M1654,-51L1605,115L1868,106Z" fill="#f28a4d" stroke="#f28a4d" stroke-width="1.51"/><path d="M1605,115L1863,321L1868,106Z" fill="#ec7f43" stroke="#ec7f43" stroke-width="1.51"/><path d="M1863,321L1690,489L1869,567Z" fill="#e76331" stroke="#e76331" stroke-width="1.51"/><path d="M1690,489L1823,674L1869,567Z" fill="#e7562d" stroke="#e7562d" stroke-width="1.51"/><path d="M1556,358L1690,489L1863,321Z" fill="#ee6c32" stroke="#ee6c32" stroke-width="1.51"/><path d="M1623,-246L1654,-51L1812,-79Z" fill="#f6935e" stroke="#f6935e" stroke-width="1.51"/><path d="M1584,899L1614,1149L1831,923Z" fill="#de181e" stroke="#de181e" stroke-width="1.51"/><path d="M1623,-246L1812,-79L1842,-217Z" fill="#f39464" stroke="#f39464" stroke-width="1.51"/><path d="M1642,769L1584,899L1831,923Z" fill="#e52920" stroke="#e52920" stroke-width="1.51"/><path d="M1690,489L1642,769L1823,674Z" fill="#eb4c29" stroke="#eb4c29" stroke-width="1.51"/><path d="M1614,1149L1773,1232L1816,1156Z" fill="#c90a23" stroke="#c90a23" stroke-width="1.51"/><path d="M1614,1149L1662,1249L1773,1232Z" fill="#c80b23" stroke="#c80b23" stroke-width="1.51"/><path d="M1623,-246L1483,-65L1654,-51Z" fill="#fb975e" stroke="#fb975e" stroke-width="1.51"/><path d="M1471,572L1642,769L1690,489Z" fill="#f25629" stroke="#f25629" stroke-width="1.51"/><path d="M1556,358L1471,572L1690,489Z" fill="#f4692f" stroke="#f4692f" stroke-width="1.51"/><path d="M999,1279L864,1362L1193,1243Z" fill="#cc4d30" stroke="#cc4d30" stroke-width="1.51"/><path d="M1584,899L1490,889L1614,1149Z" fill="#e4211e" stroke="#e4211e" stroke-width="1.51"/><path d="M1471,572L1426,748L1642,769Z" fill="#f44b28" stroke="#f44b28" stroke-width="1.51"/><path d="M1483,-65L1605,115L1654,-51Z" fill="#f99252" stroke="#f99252" stroke-width="1.51"/><path d="M1614,1149L1495,1269L1662,1249Z" fill="#cb1322" stroke="#cb1322" stroke-width="1.51"/><path d="M1490,889L1378,1118L1614,1149Z" fill="#e02521" stroke="#e02521" stroke-width="1.51"/><path d="M1447,389L1471,572L1556,358Z" fill="#f77031" stroke="#f77031" stroke-width="1.51"/><path d="M1389,148L1556,358L1605,115Z" fill="#f98640" stroke="#f98640" stroke-width="1.51"/><path d="M1490,889L1584,899L1642,769Z" fill="#ec3120" stroke="#ec3120" stroke-width="1.51"/><path d="M1426,748L1490,889L1642,769Z" fill="#f13b23" stroke="#f13b23" stroke-width="1.51"/><path d="M1382,-225L1483,-65L1623,-246Z" fill="#ff9d66" stroke="#ff9d66" stroke-width="1.51"/><path d="M350,1272L-59,1361L864,1362Z" fill="#cb7447" stroke="#cb7447" stroke-width="1.51"/><path d="M1483,-65L1389,148L1605,115Z" fill="#fb924e" stroke="#fb924e" stroke-width="1.51"/><path d="M1378,1118L1495,1269L1614,1149Z" fill="#d51f24" stroke="#d51f24" stroke-width="1.51"/><path d="M1389,148L1447,389L1556,358Z" fill="#f97f39" stroke="#f97f39" stroke-width="1.51"/><path d="M1389,148L1281,188L1447,389Z" fill="#fd8a41" stroke="#fd8a41" stroke-width="1.51"/><path d="M1277,679L1426,748L1471,572Z" fill="#f9582b" stroke="#f9582b" stroke-width="1.51"/><path d="M1447,389L1256,589L1471,572Z" fill="#fa6d31" stroke="#fa6d31" stroke-width="1.51"/><path d="M1254,34L1389,148L1483,-65Z" fill="#ff9a54" stroke="#ff9a54" stroke-width="1.51"/><path d="M1232,852L1378,1118L1490,889Z" fill="#ee3422" stroke="#ee3422" stroke-width="1.51"/><path d="M1378,1118L1193,1243L1495,1269Z" fill="#d62b27" stroke="#d62b27" stroke-width="1.51"/><path d="M1426,748L1232,852L1490,889Z" fill="#f44125" stroke="#f44125" stroke-width="1.51"/><path d="M1382,-225L1281,-203L1483,-65Z" fill="#ffa267" stroke="#ffa267" stroke-width="1.51"/><path d="M1281,-203L1254,34L1483,-65Z" fill="#ffa160" stroke="#ffa160" stroke-width="1.51"/><path d="M1220,394L1256,589L1447,389Z" fill="#fe7835" stroke="#fe7835" stroke-width="1.51"/><path d="M1256,589L1277,679L1471,572Z" fill="#fb632f" stroke="#fb632f" stroke-width="1.51"/><path d="M1232,852L1249,1114L1378,1118Z" fill="#ea3724" stroke="#ea3724" stroke-width="1.51"/><path d="M1281,188L1220,394L1447,389Z" fill="#fe843a" stroke="#fe843a" stroke-width="1.51"/><path d="M1249,1114L1193,1243L1378,1118Z" fill="#de3428" stroke="#de3428" stroke-width="1.51"/><path d="M1277,679L1232,852L1426,748Z" fill="#fb4d2a" stroke="#fb4d2a" stroke-width="1.51"/><path d="M1254,34L1281,188L1389,148Z" fill="#ff984d" stroke="#ff984d" stroke-width="1.51"/><path d="M1232,852L1033,904L1249,1114Z" fill="#f14926" stroke="#f14926" stroke-width="1.51"/><path d="M1076,717L1232,852L1277,679Z" fill="#fd5a2c" stroke="#fd5a2c" stroke-width="1.51"/><path d="M1072,-53L1254,34L1281,-203Z" fill="#ffaa64" stroke="#ffaa64" stroke-width="1.51"/><path d="M1064,-164L1072,-53L1281,-203Z" fill="#ffb26c" stroke="#ffb26c" stroke-width="1.51"/><path d="M1075,339L1220,394L1281,188Z" fill="#ff903f" stroke="#ff903f" stroke-width="1.51"/><path d="M1061,175L1075,339L1281,188Z" fill="#ff9b47" stroke="#ff9b47" stroke-width="1.51"/><path d="M1254,34L1061,175L1281,188Z" fill="#ff9f50" stroke="#ff9f50" stroke-width="1.51"/><path d="M1220,394L984,504L1256,589Z" fill="#fd8138" stroke="#fd8138" stroke-width="1.51"/><path d="M1256,589L1076,717L1277,679Z" fill="#fd6730" stroke="#fd6730" stroke-width="1.51"/><path d="M1033,904L991,1148L1249,1114Z" fill="#e84e2b" stroke="#e84e2b" stroke-width="1.51"/><path d="M1072,-53L1061,175L1254,34Z" fill="#ffaa5a" stroke="#ffaa5a" stroke-width="1.51"/><path d="M984,504L1076,717L1256,589Z" fill="#fd7835" stroke="#fd7835" stroke-width="1.51"/><path d="M991,1148L1193,1243L1249,1114Z" fill="#de442c" stroke="#de442c" stroke-width="1.51"/><path d="M1075,339L984,504L1220,394Z" fill="#fe8d3c" stroke="#fe8d3c" stroke-width="1.51"/><path d="M1076,717L1033,904L1232,852Z" fill="#f95c2c" stroke="#f95c2c" stroke-width="1.51"/><path d="M-243,-216L-46,-209L326,-279Z" fill="#fff1ab" stroke="#fff1ab" stroke-width="1.51"/><path d="M991,1148L999,1279L1193,1243Z" fill="#d74b2e" stroke="#d74b2e" stroke-width="1.51"/><path d="M669,1266L350,1272L864,1362Z" fill="#ce6739" stroke="#ce6739" stroke-width="1.51"/><path d="M917,1142L991,1148L1033,904Z" fill="#e85a2d" stroke="#e85a2d" stroke-width="1.51"/><path d="M883,910L917,1142L1033,904Z" fill="#f0602c" stroke="#f0602c" stroke-width="1.51"/><path d="M920,99L808,348L1061,175Z" fill="#ffad50" stroke="#ffad50" stroke-width="1.51"/><path d="M1064,-164L854,-177L1072,-53Z" fill="#ffbd70" stroke="#ffbd70" stroke-width="1.51"/><path d="M920,99L1061,175L1072,-53Z" fill="#ffb15b" stroke="#ffb15b" stroke-width="1.51"/><path d="M1061,175L808,348L1075,339Z" fill="#fea247" stroke="#fea247" stroke-width="1.51"/><path d="M808,348L984,504L1075,339Z" fill="#fe9a41" stroke="#fe9a41" stroke-width="1.51"/><path d="M984,504L925,577L1076,717Z" fill="#fd8238" stroke="#fd8238" stroke-width="1.51"/><path d="M884,720L1033,904L1076,717Z" fill="#fc6b31" stroke="#fc6b31" stroke-width="1.51"/><path d="M925,577L884,720L1076,717Z" fill="#fd7c36" stroke="#fd7c36" stroke-width="1.51"/><path d="M884,720L883,910L1033,904Z" fill="#f86b30" stroke="#f86b30" stroke-width="1.51"/><path d="M802,-22L920,99L1072,-53Z" fill="#ffba64" stroke="#ffba64" stroke-width="1.51"/><path d="M854,-177L802,-22L1072,-53Z" fill="#ffc06d" stroke="#ffc06d" stroke-width="1.51"/><path d="M513,-265L646,-164L854,-177Z" fill="#ffd180" stroke="#ffd180" stroke-width="1.51"/><path d="M991,1148L917,1142L999,1279Z" fill="#dd5631" stroke="#dd5631" stroke-width="1.51"/><path d="M917,1142L864,1362L999,1279Z" fill="#d25632" stroke="#d25632" stroke-width="1.51"/><path d="M808,348L925,577L984,504Z" fill="#fe9640" stroke="#fe9640" stroke-width="1.51"/><path d="M711,987L725,1101L883,910Z" fill="#ef6a30" stroke="#ef6a30" stroke-width="1.51"/><path d="M695,741L883,910L884,720Z" fill="#fc7635" stroke="#fc7635" stroke-width="1.51"/><path d="M669,1266L864,1362L917,1142Z" fill="#d35d35" stroke="#d35d35" stroke-width="1.51"/><path d="M725,1101L669,1266L917,1142Z" fill="#e06435" stroke="#e06435" stroke-width="1.51"/><path d="M883,910L725,1101L917,1142Z" fill="#ea6331" stroke="#ea6331" stroke-width="1.51"/><path d="M634,153L808,348L920,99Z" fill="#ffb554" stroke="#ffb554" stroke-width="1.51"/><path d="M666,552L884,720L925,577Z" fill="#fe8b3b" stroke="#fe8b3b" stroke-width="1.51"/><path d="M808,348L666,552L925,577Z" fill="#fe9a41" stroke="#fe9a41" stroke-width="1.51"/><path d="M802,-22L634,153L920,99Z" fill="#ffbf61" stroke="#ffbf61" stroke-width="1.51"/><path d="M695,741L711,987L883,910Z" fill="#f77333" stroke="#f77333" stroke-width="1.51"/><path d="M666,552L695,741L884,720Z" fill="#fe893b" stroke="#fe893b" stroke-width="1.51"/><path d="M628,410L666,552L808,348Z" fill="#fea546" stroke="#fea546" stroke-width="1.51"/><path d="M646,-164L802,-22L854,-177Z" fill="#ffc975" stroke="#ffc975" stroke-width="1.51"/><path d="M518,1230L350,1272L669,1266Z" fill="#d5703f" stroke="#d5703f" stroke-width="1.51"/><path d="M646,-164L639,-33L802,-22Z" fill="#ffcb72" stroke="#ffcb72" stroke-width="1.51"/><path d="M639,-33L634,153L802,-22Z" fill="#ffc668" stroke="#ffc668" stroke-width="1.51"/><path d="M634,153L628,410L808,348Z" fill="#feb14d" stroke="#feb14d" stroke-width="1.51"/><path d="M467,333L628,410L634,153Z" fill="#feb852" stroke="#feb852" stroke-width="1.51"/><path d="M487,764L477,964L695,741Z" fill="#fc843c" stroke="#fc843c" stroke-width="1.51"/><path d="M695,741L477,964L711,987Z" fill="#f77a35" stroke="#f77a35" stroke-width="1.51"/><path d="M429,1126L518,1230L725,1101Z" fill="#e3723c" stroke="#e3723c" stroke-width="1.51"/><path d="M711,987L477,964L725,1101Z" fill="#ee7233" stroke="#ee7233" stroke-width="1.51"/><path d="M477,964L429,1126L725,1101Z" fill="#eb763a" stroke="#eb763a" stroke-width="1.51"/><path d="M518,1230L669,1266L725,1101Z" fill="#dd6b38" stroke="#dd6b38" stroke-width="1.51"/><path d="M666,552L487,764L695,741Z" fill="#ff8e3d" stroke="#ff8e3d" stroke-width="1.51"/><path d="M519,507L487,764L666,552Z" fill="#fe9c45" stroke="#fe9c45" stroke-width="1.51"/><path d="M445,123L634,153L639,-33Z" fill="#ffca68" stroke="#ffca68" stroke-width="1.51"/><path d="M489,-73L639,-33L646,-164Z" fill="#ffd178" stroke="#ffd178" stroke-width="1.51"/><path d="M628,410L519,507L666,552Z" fill="#fea647" stroke="#fea647" stroke-width="1.51"/><path d="M445,123L467,333L634,153Z" fill="#ffc45f" stroke="#ffc45f" stroke-width="1.51"/><path d="M489,-73L445,123L639,-33Z" fill="#ffd172" stroke="#ffd172" stroke-width="1.51"/><path d="M513,-265L489,-73L646,-164Z" fill="#ffd782" stroke="#ffd782" stroke-width="1.51"/><path d="M467,333L519,507L628,410Z" fill="#feb04e" stroke="#feb04e" stroke-width="1.51"/><path d="M445,123L316,285L467,333Z" fill="#ffc762" stroke="#ffc762" stroke-width="1.51"/><path d="M333,795L302,909L477,964Z" fill="#fa8b45" stroke="#fa8b45" stroke-width="1.51"/><path d="M254,547L333,795L487,764Z" fill="#ff9d4d" stroke="#ff9d4d" stroke-width="1.51"/><path d="M333,795L477,964L487,764Z" fill="#fc8b43" stroke="#fc8b43" stroke-width="1.51"/><path d="M326,103L445,123L489,-73Z" fill="#ffd574" stroke="#ffd574" stroke-width="1.51"/><path d="M326,-279L489,-73L513,-265Z" fill="#ffdf8c" stroke="#ffdf8c" stroke-width="1.51"/><path d="M254,547L487,764L519,507Z" fill="#ffa44e" stroke="#ffa44e" stroke-width="1.51"/><path d="M467,333L254,547L519,507Z" fill="#ffb354" stroke="#ffb354" stroke-width="1.51"/><path d="M429,1126L350,1272L518,1230Z" fill="#d74" stroke="#d74" stroke-width="1.51"/><path d="M316,285L254,547L467,333Z" fill="#ffbe5c" stroke="#ffbe5c" stroke-width="1.51"/><path d="M280,1053L429,1126L477,964Z" fill="#ee8042" stroke="#ee8042" stroke-width="1.51"/><path d="M326,-279L262,-16L489,-73Z" fill="#ffe089" stroke="#ffe089" stroke-width="1.51"/><path d="M262,-16L326,103L489,-73Z" fill="#ffda7d" stroke="#ffda7d" stroke-width="1.51"/><path d="M302,909L280,1053L477,964Z" fill="#f58643" stroke="#f58643" stroke-width="1.51"/><path d="M326,103L316,285L445,123Z" fill="#ffd06d" stroke="#ffd06d" stroke-width="1.51"/><path d="M280,1053L350,1272L429,1126Z" fill="#e47f48" stroke="#e47f48" stroke-width="1.51"/><path d="M160,393L254,547L316,285Z" fill="#ffc062" stroke="#ffc062" stroke-width="1.51"/><path d="M57,152L316,285L326,103Z" fill="#ffd574" stroke="#ffd574" stroke-width="1.51"/><path d="M-46,-209L107,-152L326,-279Z" fill="#ffeca1" stroke="#ffeca1" stroke-width="1.51"/><path d="M107,-152L262,-16L326,-279Z" fill="#ffe794" stroke="#ffe794" stroke-width="1.51"/><path d="M254,547L131,702L333,795Z" fill="#ffa456" stroke="#ffa456" stroke-width="1.51"/><path d="M162,1157L45,1237L350,1272Z" fill="#dd8352" stroke="#dd8352" stroke-width="1.51"/><path d="M45,1237L-59,1361L350,1272Z" fill="#d38156" stroke="#d38156" stroke-width="1.51"/><path d="M280,1053L162,1157L350,1272Z" fill="#e5834d" stroke="#e5834d" stroke-width="1.51"/><path d="M131,702L302,909L333,795Z" fill="#ff974f" stroke="#ff974f" stroke-width="1.51"/><path d="M262,-16L57,152L326,103Z" fill="#ffdd7f" stroke="#ffdd7f" stroke-width="1.51"/><path d="M120,968L280,1053L302,909Z" fill="#f68c4b" stroke="#f68c4b" stroke-width="1.51"/><path d="M131,702L120,968L302,909Z" fill="#fd9651" stroke="#fd9651" stroke-width="1.51"/><path d="M57,152L160,393L316,285Z" fill="#ffce6e" stroke="#ffce6e" stroke-width="1.51"/><path d="M108,589L131,702L254,547Z" fill="#ffaf5e" stroke="#ffaf5e" stroke-width="1.51"/><path d="M120,968L162,1157L280,1053Z" fill="#ef894f" stroke="#ef894f" stroke-width="1.51"/><path d="M160,393L108,589L254,547Z" fill="#ffba61" stroke="#ffba61" stroke-width="1.51"/><path d="M107,-152L61,-86L262,-16Z" fill="#ffe693" stroke="#ffe693" stroke-width="1.51"/><path d="M61,-86L57,152L262,-16Z" fill="#ffe28a" stroke="#ffe28a" stroke-width="1.51"/><path d="M-122,743L-133,934L120,968Z" fill="#fe9b5e" stroke="#fe9b5e" stroke-width="1.51"/><path d="M-122,743L120,968L131,702Z" fill="#ff9e5d" stroke="#ff9e5d" stroke-width="1.51"/><path d="M-28,222L-129,416L160,393Z" fill="#ffcd73" stroke="#ffcd73" stroke-width="1.51"/><path d="M57,152L-28,222L160,393Z" fill="#ffd377" stroke="#ffd377" stroke-width="1.51"/><path d="M-90,482L108,589L160,393Z" fill="#ffbf6a" stroke="#ffbf6a" stroke-width="1.51"/><path d="M120,968L-109,1117L162,1157Z" fill="#ee8c57" stroke="#ee8c57" stroke-width="1.51"/><path d="M-109,1117L45,1237L162,1157Z" fill="#e68a5b" stroke="#e68a5b" stroke-width="1.51"/><path d="M-129,416L-90,482L160,393Z" fill="#ffc671" stroke="#ffc671" stroke-width="1.51"/><path d="M-65,-64L57,152L61,-86Z" fill="#ffe693" stroke="#ffe693" stroke-width="1.51"/><path d="M108,589L-122,743L131,702Z" fill="#ffab62" stroke="#ffab62" stroke-width="1.51"/><path d="M-133,934L-109,1117L120,968Z" fill="#f6935b" stroke="#f6935b" stroke-width="1.51"/><path d="M-90,482L-122,743L108,589Z" fill="#ffb66a" stroke="#ffb66a" stroke-width="1.51"/><path d="M-46,-209L61,-86L107,-152Z" fill="#ffeca0" stroke="#ffeca0" stroke-width="1.51"/><path d="M-65,-64L-28,222L57,152Z" fill="#ffe28b" stroke="#ffe28b" stroke-width="1.51"/><path d="M-46,-209L-65,-64L61,-86Z" fill="#ffeda1" stroke="#ffeda1" stroke-width="1.51"/><path d="M-65,-64L-226,6L-28,222Z" fill="#ffe795" stroke="#ffe795" stroke-width="1.51"/><path d="M-109,1117L-59,1361L45,1237Z" fill="#dc885f" stroke="#dc885f" stroke-width="1.51"/><path d="M-280,545L-122,743L-90,482Z" fill="#ffbb74" stroke="#ffbb74" stroke-width="1.51"/><path d="M-109,1117L-288,1228L-59,1361Z" fill="#dd8b66" stroke="#dd8b66" stroke-width="1.51"/><path d="M-226,6L-308,101L-28,222Z" fill="#ffe796" stroke="#ffe796" stroke-width="1.51"/><path d="M-294,390L-129,416L-28,222Z" fill="#ffd17d" stroke="#ffd17d" stroke-width="1.51"/><path d="M-308,101L-294,390L-28,222Z" fill="#ffdc8b" stroke="#ffdc8b" stroke-width="1.51"/><path d="M-243,-216L-65,-64L-46,-209Z" fill="#fff1ac" stroke="#fff1ac" stroke-width="1.51"/><path d="M-280,545L-307,662L-122,743Z" fill="#ffb675" stroke="#ffb675" stroke-width="1.51"/><path d="M-243,-216L-226,6L-65,-64Z" fill="#fff0a9" stroke="#fff0a9" stroke-width="1.51"/><path d="M-247,918L-133,934L-122,743Z" fill="#ff9f67" stroke="#ff9f67" stroke-width="1.51"/><path d="M-133,934L-247,918L-109,1117Z" fill="#f99763" stroke="#f99763" stroke-width="1.51"/><path d="M-129,416L-280,545L-90,482Z" fill="#ffc678" stroke="#ffc678" stroke-width="1.51"/><path d="M-247,918L-303,1170L-109,1117Z" fill="#f29568" stroke="#f29568" stroke-width="1.51"/><path d="M-303,1170L-288,1228L-109,1117Z" fill="#e8916b" stroke="#e8916b" stroke-width="1.51"/><path d="M-294,390L-280,545L-129,416Z" fill="#ffcb7f" stroke="#ffcb7f" stroke-width="1.51"/><path d="M-307,662L-247,918L-122,743Z" fill="#ffa86f" stroke="#ffa86f" stroke-width="1.51"/><path d="M-243,-216L-308,101L-226,6Z" fill="#fff0a8" stroke="#fff0a8" stroke-width="1.51"/><path d="M-307,662L-303,1170L-247,918Z" fill="#ff9e6d" stroke="#ff9e6d" stroke-width="1.51"/><path d="M-294,390L-307,662L-280,545Z" fill="#ffc57f" stroke="#ffc57f" stroke-width="1.51"/><path d="M-308,101L-307,662L-294,390Z" fill="#ffd186" stroke="#ffd186" stroke-width="1.51"/></svg>