<svg xmlns="http://www.w3.org/2000/svg" xmlns:xlink="http://www.w3.org/1999/xlink" width="128" height="128"><g><text style="text-align:start;line-height:125%;-inkscape-font-specification:EB Garamond" x="250.585" y="511.592" font-size="8.525" letter-spacing="4.078" word-spacing="0" font-family="EB Garamond" transform="translate(-176.102 -417.586)"/><text style="text-align:start;line-height:125%;-inkscape-font-specification:EB Garamond" x="243.187" y="470.78" font-size="8.525" letter-spacing="4.078" word-spacing="0" font-family="EB Garamond" transform="translate(-176.102 -417.586)"/><g transform="matrix(5.818 0 0 5.818 -29.091 -29.091)"><path d="M7.206 23.887c0 .38.065.687.26.95.164.22.44.34.695.44.763.126 3.233.26 4.227.502.747.182.864.232.86.578-.004.396-.508.642-1 .642H5.88c-.36 0-.596-.038-.71-.113-.113-.076-.17-.275-.17-.596v-8.556h2.206z" fill="#fafafa"/><use height="228.59" width="256" transform="matrix(-1 0 0 -1 32 32)" xlink:href="#g3305-8"/><use height="228.59" width="256" transform="matrix(-1 0 0 1 32 0)" id="a" xlink:href="#g3305-8"/><use height="228.59" width="256" transform="matrix(-1 0 0 -1 32 32)" xlink:href="#a"/></g><path d="M66.75 34.564c-.082.012-.257.133-.43.254-2.088-.066-4.04.115-6.632.88C36.703 36.9 28.008 59.67 35.685 75.725 39.25 85.966 49.287 93.88 61.095 92.86c-.248.88 1.895 1.27 10.917-.39.143-.027.268-.06.392-.118l3.697-.294c.7-.88 1.162-3.237 2.114-2.64.95.596-2.39 3.674-1.468 3.03 7.017-4.894 14.797-9.543 16.98-17.33 3.196-11.398 1.28-27.422-8.04-34.587-3.386-2.603-7.818-3.332-11.952-4.597.452-.29.735-.53.372-.49-.423.048-.834.126-1.252.197-.41-.135-.814-.28-1.213-.43-1.745-.13-3.196-.28-4.557-.353-.153-.206-.232-.307-.333-.293zM41.974-32.216c-1.568.406-3.13.76-4.734.94-.874.096-1.797-.356-2.68-.627.045-.028.09-.05.137-.078.06-.02.15-.064.195-.078l7.082-.157zM42.344 9.025c-.864 1.013-1.715 2.053-2.7 2.915-.43.377-1.04.458-1.545.724-1.28.674-2.543 1.4-3.814 2.093-.04.028-.08.05-.118.078 1.775-1.904 4.524-3.608 8.177-5.81zm6.447 7.89c4.563 0 7.706 4.004 7.706 8.568 0 5.518-2.914 14.874-13.987 18.605-.24.12-.317.41-.08.49 2.938.833 5.916 5.438 9.528 5.438 2.937 0 5.37-2.504 5.967-2.504.277 0 .547.267.547.664 0 1.39-3.49 4.206-8.45 4.206-4.843 0-6.995-5.947-11.797-5.947-3.016 0-6.657 1.39-7.61 1.39-.555 0-1.27.006-1.27-.55-.08-.753.36-1.384 1.114-1.662 4.087-1.547 7.224-1.763 10.876-2.875.357-.08.28-.507-.08-.587-4.245-.793-7.276-4.886-7.276-9.33 0-8.574 7.07-15.905 14.81-15.905zm7.99 5.19c-5.754 0-10.29 8.023-10.29 16.04 0 2.54 1.7 5.713 4.56 5.713 6.03 0 10.093-7.51 10.093-14.614 0-3.413-.95-7.14-4.362-7.14zm9.842 40c1.277 0 2.338.182 1.565.92-1.447 1.38-3.74 1.336-5.654 1.995.07-.14.143-.275.216-.41-4.682 3.233-3.835 3.414-7.24 1.975 2.712-.92 5.46-2.315 8.217-4.285.11-.01 1.618-.197 2.895-.195zm2.216 25.738c.343-.235.63-.432 1.037-.703.13-.086-.227-.446-.333-.332-.272.29-.5.652-.704 1.037zM54.077 90.12c-.04.02-.302.168-.47.254-.02-.004-.037-.014-.057-.02.235-.108.578-.26.528-.234zm.13 2.6c-.922.12-1.825.193-2.698.215l2.7-.215z" fill="#fafafa"/></g></svg>