<svg xmlns="http://www.w3.org/2000/svg" width="1920" height="1080" opacity="0.5"><path d="M-220,-222L-39,-218L220,-236Z" fill="#970f27" stroke="#970f27" stroke-width="1.51"/><path d="M-220,-222L220,-236L471,-264Z" fill="#a12c31" stroke="#a12c31" stroke-width="1.51"/><path d="M1014,-277L1227,-238L1625,-259Z" fill="#aa7173" stroke="#aa7173" stroke-width="1.51"/><path d="M702,1353L614,1355L1780,1358Z" fill="#818181" stroke="#818181" stroke-width="1.51"/><path d="M1056,1348L702,1353L1780,1358Z" fill="#787878" stroke="#787878" stroke-width="1.51"/><path d="M1633,1319L1056,1348L1780,1358Z" fill="#636363" stroke="#636363" stroke-width="1.51"/><path d="M1625,-259L1727,-236L2030,-236Z" fill="#784345" stroke="#784345" stroke-width="1.51"/><path d="M1991,666L2055,724L2059,518Z" fill="#8b8b8b" stroke="#8b8b8b" stroke-width="1.51"/><path d="M1889,1316L1780,1358L2076,1288Z" fill="#3a3a3a" stroke="#3a3a3a" stroke-width="1.51"/><path d="M2047,1177L2076,1288L2099,1030Z" fill="#414141" stroke="#414141" stroke-width="1.51"/><path d="M1937,335L2088,425L2129,221Z" fill="#8f796e" stroke="#8f796e" stroke-width="1.51"/><path d="M1947,35L2026,148L2131,-86Z" fill="#82493f" stroke="#82493f" stroke-width="1.51"/><path d="M2026,148L2129,221L2131,-86Z" fill="#804d41" stroke="#804d41" stroke-width="1.51"/><path d="M2088,425L2059,518L2148,874Z" fill="#858585" stroke="#858585" stroke-width="1.51"/><path d="M2059,518L2055,724L2148,874Z" fill="#7e7e7e" stroke="#7e7e7e" stroke-width="1.51"/><path d="M1947,817L2099,1030L2148,874Z" fill="#6a6a6a" stroke="#6a6a6a" stroke-width="1.51"/><path d="M2055,724L1947,817L2148,874Z" fill="#787878" stroke="#787878" stroke-width="1.51"/><path d="M2099,1030L2076,1288L2148,874Z" fill="#4e4e4e" stroke="#4e4e4e" stroke-width="1.51"/><path d="M2129,221L2088,425L2148,874Z" fill="#888583" stroke="#888583" stroke-width="1.51"/><path d="M2131,-86L2129,221L2148,874Z" fill="#857065" stroke="#857065" stroke-width="1.51"/><path d="M1947,817L1883,951L2099,1030Z" fill="#717171" stroke="#717171" stroke-width="1.51"/><path d="M2026,148L1963,183L2129,221Z" fill="#8d6555" stroke="#8d6555" stroke-width="1.51"/><path d="M1963,183L1937,335L2129,221Z" fill="#947263" stroke="#947263" stroke-width="1.51"/><path d="M1905,-22L1947,35L2131,-86Z" fill="#82453d" stroke="#82453d" stroke-width="1.51"/><path d="M2030,-236L1901,-170L2131,-86Z" fill="#6d302f" stroke="#6d302f" stroke-width="1.51"/><path d="M1901,-170L1905,-22L2131,-86Z" fill="#7f3c38" stroke="#7f3c38" stroke-width="1.51"/><path d="M1967,569L1991,666L2059,518Z" fill="#939393" stroke="#939393" stroke-width="1.51"/><path d="M1954,1204L2047,1177L2099,1030Z" fill="#4a4a4a" stroke="#4a4a4a" stroke-width="1.51"/><path d="M1883,951L1954,1204L2099,1030Z" fill="#5e5e5e" stroke="#5e5e5e" stroke-width="1.51"/><path d="M2047,1177L1954,1204L2076,1288Z" fill="#3d3d3d" stroke="#3d3d3d" stroke-width="1.51"/><path d="M1937,335L2059,518L2088,425Z" fill="#938882" stroke="#938882" stroke-width="1.51"/><path d="M1727,-236L1901,-170L2030,-236Z" fill="#733b3c" stroke="#733b3c" stroke-width="1.51"/><path d="M1937,335L1967,569L2059,518Z" fill="#99928e" stroke="#99928e" stroke-width="1.51"/><path d="M1954,1204L1889,1316L2076,1288Z" fill="#3c3c3c" stroke="#3c3c3c" stroke-width="1.51"/><path d="M1937,335L1834,447L1967,569Z" fill="#a39994" stroke="#a39994" stroke-width="1.51"/><path d="M1991,666L1947,817L2055,724Z" fill="#868686" stroke="#868686" stroke-width="1.51"/><path d="M1883,951L1818,1159L1954,1204Z" fill="#616161" stroke="#616161" stroke-width="1.51"/><path d="M1947,35L1963,183L2026,148Z" fill="#916053" stroke="#916053" stroke-width="1.51"/><path d="M1847,288L1937,335L1963,183Z" fill="#a08173" stroke="#a08173" stroke-width="1.51"/><path d="M1834,447L1839,570L1967,569Z" fill="#a6a6a5" stroke="#a6a6a5" stroke-width="1.51"/><path d="M1851,802L1947,817L1991,666Z" fill="#8c8c8c" stroke="#8c8c8c" stroke-width="1.51"/><path d="M1846,628L1851,802L1991,666Z" fill="#979797" stroke="#979797" stroke-width="1.51"/><path d="M1967,569L1846,628L1991,666Z" fill="#999999" stroke="#999999" stroke-width="1.51"/><path d="M1293,1264L1056,1348L1633,1319Z" fill="#767676" stroke="#767676" stroke-width="1.51"/><path d="M1760,1025L1818,1159L1883,951Z" fill="#737373" stroke="#737373" stroke-width="1.51"/><path d="M1851,802L1883,951L1947,817Z" fill="#868686" stroke="#868686" stroke-width="1.51"/><path d="M1947,35L1790,20L1963,183Z" fill="#986255" stroke="#986255" stroke-width="1.51"/><path d="M1839,570L1846,628L1967,569Z" fill="#a2a2a2" stroke="#a2a2a2" stroke-width="1.51"/><path d="M1790,20L1847,288L1963,183Z" fill="#a27666" stroke="#a27666" stroke-width="1.51"/><path d="M1818,1159L1889,1316L1954,1204Z" fill="#4c4c4c" stroke="#4c4c4c" stroke-width="1.51"/><path d="M1790,20L1676,178L1847,288Z" fill="#af8171" stroke="#af8171" stroke-width="1.51"/><path d="M1901,-170L1795,-56L1905,-22Z" fill="#8e4b45" stroke="#8e4b45" stroke-width="1.51"/><path d="M1905,-22L1790,20L1947,35Z" fill="#95584e" stroke="#95584e" stroke-width="1.51"/><path d="M1847,288L1834,447L1937,335Z" fill="#a7948a" stroke="#a7948a" stroke-width="1.51"/><path d="M471,-264L933,-259L1014,-277Z" fill="#ba7a76" stroke="#ba7a76" stroke-width="1.51"/><path d="M1818,1159L1780,1358L1889,1316Z" fill="#4a4a4a" stroke="#4a4a4a" stroke-width="1.51"/><path d="M1795,-56L1790,20L1905,-22Z" fill="#995951" stroke="#995951" stroke-width="1.51"/><path d="M1727,-236L1795,-56L1901,-170Z" fill="#8b4947" stroke="#8b4947" stroke-width="1.51"/><path d="M1846,628L1682,720L1851,802Z" fill="#a2a2a2" stroke="#a2a2a2" stroke-width="1.51"/><path d="M1851,802L1760,1025L1883,951Z" fill="#848484" stroke="#848484" stroke-width="1.51"/><path d="M1669,1196L1780,1358L1818,1159Z" fill="#5a5a5a" stroke="#5a5a5a" stroke-width="1.51"/><path d="M1834,447L1588,519L1839,570Z" fill="#b8b5b3" stroke="#b8b5b3" stroke-width="1.51"/><path d="M1568,422L1834,447L1847,288Z" fill="#b8a89f" stroke="#b8a89f" stroke-width="1.51"/><path d="M1676,178L1568,422L1847,288Z" fill="#bea294" stroke="#bea294" stroke-width="1.51"/><path d="M1602,875L1760,1025L1851,802Z" fill="#949494" stroke="#949494" stroke-width="1.51"/><path d="M1682,720L1602,875L1851,802Z" fill="#a4a4a4" stroke="#a4a4a4" stroke-width="1.51"/><path d="M1839,570L1682,720L1846,628Z" fill="#aaaaaa" stroke="#aaaaaa" stroke-width="1.51"/><path d="M1227,-238L1525,-217L1625,-259Z" fill="#a16768" stroke="#a16768" stroke-width="1.51"/><path d="M1602,875L1614,971L1760,1025Z" fill="#959595" stroke="#959595" stroke-width="1.51"/><path d="M1654,69L1676,178L1790,20Z" fill="#b37b6e" stroke="#b37b6e" stroke-width="1.51"/><path d="M1588,519L1682,720L1839,570Z" fill="#b8b8b8" stroke="#b8b8b8" stroke-width="1.51"/><path d="M1568,422L1588,519L1834,447Z" fill="#c3bbb6" stroke="#c3bbb6" stroke-width="1.51"/><path d="M1669,1196L1633,1319L1780,1358Z" fill="#585858" stroke="#585858" stroke-width="1.51"/><path d="M1727,-236L1619,-117L1795,-56Z" fill="#9c5653" stroke="#9c5653" stroke-width="1.51"/><path d="M1760,1025L1669,1196L1818,1159Z" fill="#6e6e6e" stroke="#6e6e6e" stroke-width="1.51"/><path d="M1537,247L1568,422L1676,178Z" fill="#caab9d" stroke="#caab9d" stroke-width="1.51"/><path d="M1654,69L1790,20L1795,-56Z" fill="#a7695e" stroke="#a7695e" stroke-width="1.51"/><path d="M1619,-117L1654,69L1795,-56Z" fill="#ac6860" stroke="#ac6860" stroke-width="1.51"/><path d="M1482,1250L1293,1264L1633,1319Z" fill="#717171" stroke="#717171" stroke-width="1.51"/><path d="M1614,971L1669,1196L1760,1025Z" fill="#818181" stroke="#818181" stroke-width="1.51"/><path d="M1625,-259L1619,-117L1727,-236Z" fill="#935656" stroke="#935656" stroke-width="1.51"/><path d="M153,1322L-197,1354L457,1357Z" fill="#71362f" stroke="#71362f" stroke-width="1.51"/><path d="M1619,-117L1529,-48L1654,69Z" fill="#b67269" stroke="#b67269" stroke-width="1.51"/><path d="M1529,-48L1553,69L1654,69Z" fill="#be7e72" stroke="#be7e72" stroke-width="1.51"/><path d="M1614,971L1463,1156L1669,1196Z" fill="#848484" stroke="#848484" stroke-width="1.51"/><path d="M1654,69L1553,69L1676,178Z" fill="#be8879" stroke="#be8879" stroke-width="1.51"/><path d="M1479,755L1602,875L1682,720Z" fill="#b4b4b4" stroke="#b4b4b4" stroke-width="1.51"/><path d="M1588,519L1479,755L1682,720Z" fill="#c1c1c1" stroke="#c1c1c1" stroke-width="1.51"/><path d="M1482,1250L1633,1319L1669,1196Z" fill="#686868" stroke="#686868" stroke-width="1.51"/><path d="M1553,69L1537,247L1676,178Z" fill="#c69787" stroke="#c69787" stroke-width="1.51"/><path d="M1525,-217L1619,-117L1625,-259Z" fill="#9c5d5c" stroke="#9c5d5c" stroke-width="1.51"/><path d="M1463,1156L1482,1250L1669,1196Z" fill="#787878" stroke="#787878" stroke-width="1.51"/><path d="M1227,-238L1399,-182L1525,-217Z" fill="#ad6f6e" stroke="#ad6f6e" stroke-width="1.51"/><path d="M1443,1007L1463,1156L1614,971Z" fill="#979797" stroke="#979797" stroke-width="1.51"/><path d="M1537,247L1457,356L1568,422Z" fill="#d3bcb1" stroke="#d3bcb1" stroke-width="1.51"/><path d="M1395,712L1479,755L1588,519Z" fill="#cccccc" stroke="#cccccc" stroke-width="1.51"/><path d="M1479,755L1488,884L1602,875Z" fill="#b4b4b4" stroke="#b4b4b4" stroke-width="1.51"/><path d="M1602,875L1488,884L1614,971Z" fill="#a5a5a5" stroke="#a5a5a5" stroke-width="1.51"/><path d="M1525,-217L1529,-48L1619,-117Z" fill="#b16863" stroke="#b16863" stroke-width="1.51"/><path d="M1415,477L1395,712L1588,519Z" fill="#d6d6d6" stroke="#d6d6d6" stroke-width="1.51"/><path d="M1488,884L1443,1007L1614,971Z" fill="#a5a5a5" stroke="#a5a5a5" stroke-width="1.51"/><path d="M1398,133L1537,247L1553,69Z" fill="#d09e8e" stroke="#d09e8e" stroke-width="1.51"/><path d="M1568,422L1415,477L1588,519Z" fill="#d3cbc8" stroke="#d3cbc8" stroke-width="1.51"/><path d="M1525,-217L1399,-182L1529,-48Z" fill="#b36c69" stroke="#b36c69" stroke-width="1.51"/><path d="M1457,356L1415,477L1568,422Z" fill="#d7cac3" stroke="#d7cac3" stroke-width="1.51"/><path d="M1529,-48L1398,133L1553,69Z" fill="#c98b7d" stroke="#c98b7d" stroke-width="1.51"/><path d="M1322,-40L1398,133L1529,-48Z" fill="#cf8c81" stroke="#cf8c81" stroke-width="1.51"/><path d="M1310,246L1457,356L1537,247Z" fill="#dcbcae" stroke="#dcbcae" stroke-width="1.51"/><path d="M1398,133L1310,246L1537,247Z" fill="#dcb1a0" stroke="#dcb1a0" stroke-width="1.51"/><path d="M1399,-182L1322,-40L1529,-48Z" fill="#c57b74" stroke="#c57b74" stroke-width="1.51"/><path d="M894,1324L702,1353L1056,1348Z" fill="#87827f" stroke="#87827f" stroke-width="1.51"/><path d="M1276,558L1395,712L1415,477Z" fill="#dedede" stroke="#dedede" stroke-width="1.51"/><path d="M1355,853L1316,938L1443,1007Z" fill="#b5b5b5" stroke="#b5b5b5" stroke-width="1.51"/><path d="M1443,1007L1373,1103L1463,1156Z" fill="#979797" stroke="#979797" stroke-width="1.51"/><path d="M1479,755L1355,853L1488,884Z" fill="#bebebe" stroke="#bebebe" stroke-width="1.51"/><path d="M1355,853L1443,1007L1488,884Z" fill="#b4b4b4" stroke="#b4b4b4" stroke-width="1.51"/><path d="M1354,387L1415,477L1457,356Z" fill="#dfd0c8" stroke="#dfd0c8" stroke-width="1.51"/><path d="M1395,712L1355,853L1479,755Z" fill="#c7c7c7" stroke="#c7c7c7" stroke-width="1.51"/><path d="M1463,1156L1293,1264L1482,1250Z" fill="#7f7f7f" stroke="#7f7f7f" stroke-width="1.51"/><path d="M471,-264L696,-226L933,-259Z" fill="#bc736c" stroke="#bc736c" stroke-width="1.51"/><path d="M1310,246L1354,387L1457,356Z" fill="#e1c8bc" stroke="#e1c8bc" stroke-width="1.51"/><path d="M1373,1103L1293,1264L1463,1156Z" fill="#8b8b8b" stroke="#8b8b8b" stroke-width="1.51"/><path d="M1316,938L1373,1103L1443,1007Z" fill="#a8a8a8" stroke="#a8a8a8" stroke-width="1.51"/><path d="M1322,-40L1206,66L1398,133Z" fill="#db9b8d" stroke="#db9b8d" stroke-width="1.51"/><path d="M1354,387L1276,558L1415,477Z" fill="#e3dcd8" stroke="#e3dcd8" stroke-width="1.51"/><path d="M1316,938L1204,1039L1373,1103Z" fill="#acacac" stroke="#acacac" stroke-width="1.51"/><path d="M1238,1152L1293,1264L1373,1103Z" fill="#919191" stroke="#919191" stroke-width="1.51"/><path d="M1193,643L1355,853L1395,712Z" fill="#d3d3d3" stroke="#d3d3d3" stroke-width="1.51"/><path d="M1276,558L1193,643L1395,712Z" fill="#dfdfdf" stroke="#dfdfdf" stroke-width="1.51"/><path d="M1205,172L1310,246L1398,133Z" fill="#e4b5a3" stroke="#e4b5a3" stroke-width="1.51"/><path d="M1227,-238L1322,-40L1399,-182Z" fill="#c17a76" stroke="#c17a76" stroke-width="1.51"/><path d="M1206,66L1205,172L1398,133Z" fill="#e2ac9c" stroke="#e2ac9c" stroke-width="1.51"/><path d="M1193,643L1138,800L1355,853Z" fill="#d6d6d6" stroke="#d6d6d6" stroke-width="1.51"/><path d="M1222,382L1241,551L1276,558Z" fill="#ece7e4" stroke="#ece7e4" stroke-width="1.51"/><path d="M1310,246L1222,382L1354,387Z" fill="#e8d0c4" stroke="#e8d0c4" stroke-width="1.51"/><path d="M1222,382L1276,558L1354,387Z" fill="#e9ded9" stroke="#e9ded9" stroke-width="1.51"/><path d="M1204,1039L1238,1152L1373,1103Z" fill="#a1a1a1" stroke="#a1a1a1" stroke-width="1.51"/><path d="M1138,800L1316,938L1355,853Z" fill="#c8c8c8" stroke="#c8c8c8" stroke-width="1.51"/><path d="M1135,1241L1056,1348L1293,1264Z" fill="#868686" stroke="#868686" stroke-width="1.51"/><path d="M1227,-238L1164,-10L1322,-40Z" fill="#d38780" stroke="#d38780" stroke-width="1.51"/><path d="M1164,-10L1206,66L1322,-40Z" fill="#dd988c" stroke="#dd988c" stroke-width="1.51"/><path d="M1138,800L1069,940L1204,1039Z" fill="#c8c8c8" stroke="#c8c8c8" stroke-width="1.51"/><path d="M1138,800L1204,1039L1316,938Z" fill="#c2c2c2" stroke="#c2c2c2" stroke-width="1.51"/><path d="M1205,172L1222,382L1310,246Z" fill="#ebc9b9" stroke="#ebc9b9" stroke-width="1.51"/><path d="M1241,551L1193,643L1276,558Z" fill="#e8e8e8" stroke="#e8e8e8" stroke-width="1.51"/><path d="M1238,1152L1135,1241L1293,1264Z" fill="#8e8e8e" stroke="#8e8e8e" stroke-width="1.51"/><path d="M1205,172L1089,173L1222,382Z" fill="#f1cab9" stroke="#f1cab9" stroke-width="1.51"/><path d="M1089,173L973,328L1222,382Z" fill="#f6d7c9" stroke="#f6d7c9" stroke-width="1.51"/><path d="M996,-101L1164,-10L1227,-238Z" fill="#d98b84" stroke="#d98b84" stroke-width="1.51"/><path d="M1204,1039L1135,1241L1238,1152Z" fill="#9e9e9e" stroke="#9e9e9e" stroke-width="1.51"/><path d="M1222,382L1042,600L1241,551Z" fill="#f1eeec" stroke="#f1eeec" stroke-width="1.51"/><path d="M1042,600L1193,643L1241,551Z" fill="#ececec" stroke="#ececec" stroke-width="1.51"/><path d="M1014,-277L996,-101L1227,-238Z" fill="#c68483" stroke="#c68483" stroke-width="1.51"/><path d="M997,1089L1135,1241L1204,1039Z" fill="#a7a7a7" stroke="#a7a7a7" stroke-width="1.51"/><path d="M973,328L1042,600L1222,382Z" fill="#f7ece6" stroke="#f7ece6" stroke-width="1.51"/><path d="M1077,778L1138,800L1193,643Z" fill="#e0e0e0" stroke="#e0e0e0" stroke-width="1.51"/><path d="M1089,173L1205,172L1206,66Z" fill="#ebb6a5" stroke="#ebb6a5" stroke-width="1.51"/><path d="M1164,-10L1037,91L1206,66Z" fill="#e7a698" stroke="#e7a698" stroke-width="1.51"/><path d="M1037,91L1089,173L1206,66Z" fill="#edb4a4" stroke="#edb4a4" stroke-width="1.51"/><path d="M1069,940L997,1089L1204,1039Z" fill="#bbbbbb" stroke="#bbbbbb" stroke-width="1.51"/><path d="M1042,600L1077,778L1193,643Z" fill="#e9e9e9" stroke="#e9e9e9" stroke-width="1.51"/><path d="M1042,600L1017,744L1077,778Z" fill="#e9e9e9" stroke="#e9e9e9" stroke-width="1.51"/><path d="M996,-101L1037,91L1164,-10Z" fill="#e7a195" stroke="#e7a195" stroke-width="1.51"/><path d="M973,328L884,425L1042,600Z" fill="#fff4ef" stroke="#fff4ef" stroke-width="1.51"/><path d="M997,1089L951,1167L1135,1241Z" fill="#a4a4a4" stroke="#a4a4a4" stroke-width="1.51"/><path d="M1077,778L1069,940L1138,800Z" fill="#d7d7d7" stroke="#d7d7d7" stroke-width="1.51"/><path d="M951,1167L1056,1348L1135,1241Z" fill="#939393" stroke="#939393" stroke-width="1.51"/><path d="M884,425L937,597L1042,600Z" fill="#fffefe" stroke="#fffefe" stroke-width="1.51"/><path d="M951,1167L894,1324L1056,1348Z" fill="#929292" stroke="#929292" stroke-width="1.51"/><path d="M1017,744L839,859L1069,940Z" fill="#dedede" stroke="#dedede" stroke-width="1.51"/><path d="M1017,744L1069,940L1077,778Z" fill="#dcdcdc" stroke="#dcdcdc" stroke-width="1.51"/><path d="M1037,91L899,103L1089,173Z" fill="#f5bdad" stroke="#f5bdad" stroke-width="1.51"/><path d="M899,103L973,328L1089,173Z" fill="#fbcebc" stroke="#fbcebc" stroke-width="1.51"/><path d="M933,-259L996,-101L1014,-277Z" fill="#ca8988" stroke="#ca8988" stroke-width="1.51"/><path d="M899,103L834,191L973,328Z" fill="#fdcdb8" stroke="#fdcdb8" stroke-width="1.51"/><path d="M996,-101L899,103L1037,91Z" fill="#f0ad9f" stroke="#f0ad9f" stroke-width="1.51"/><path d="M937,597L1017,744L1042,600Z" fill="#f2f2f2" stroke="#f2f2f2" stroke-width="1.51"/><path d="M830,1030L997,1089L1069,940Z" fill="#c3c3c3" stroke="#c3c3c3" stroke-width="1.51"/><path d="M839,859L830,1030L1069,940Z" fill="#d0cdcb" stroke="#d0cdcb" stroke-width="1.51"/><path d="M890,-93L899,103L996,-101Z" fill="#eba195" stroke="#eba195" stroke-width="1.51"/><path d="M933,-259L890,-93L996,-101Z" fill="#db8f8a" stroke="#db8f8a" stroke-width="1.51"/><path d="M937,597L822,723L1017,744Z" fill="#f1eeed" stroke="#f1eeed" stroke-width="1.51"/><path d="M822,723L839,859L1017,744Z" fill="#e7e2df" stroke="#e7e2df" stroke-width="1.51"/><path d="M830,1030L951,1167L997,1089Z" fill="#b5b3b2" stroke="#b5b3b2" stroke-width="1.51"/><path d="M890,-93L790,22L899,103Z" fill="#eea393" stroke="#eea393" stroke-width="1.51"/><path d="M834,191L884,425L973,328Z" fill="#fedece" stroke="#fedece" stroke-width="1.51"/><path d="M834,191L762,213L884,425Z" fill="#fdd3be" stroke="#fdd3be" stroke-width="1.51"/><path d="M666,1187L894,1324L951,1167Z" fill="#9c938f" stroke="#9c938f" stroke-width="1.51"/><path d="M830,1030L666,1187L951,1167Z" fill="#b0a59f" stroke="#b0a59f" stroke-width="1.51"/><path d="M765,930L830,1030L839,859Z" fill="#d0c6c0" stroke="#d0c6c0" stroke-width="1.51"/><path d="M696,-226L890,-93L933,-259Z" fill="#ce847e" stroke="#ce847e" stroke-width="1.51"/><path d="M735,653L822,723L937,597Z" fill="#f4ebe5" stroke="#f4ebe5" stroke-width="1.51"/><path d="M884,425L707,474L937,597Z" fill="#fff1ea" stroke="#fff1ea" stroke-width="1.51"/><path d="M707,474L735,653L937,597Z" fill="#fbefe8" stroke="#fbefe8" stroke-width="1.51"/><path d="M725,429L707,474L884,425Z" fill="#ffe6d8" stroke="#ffe6d8" stroke-width="1.51"/><path d="M762,213L725,429L884,425Z" fill="#fdddcb" stroke="#fdddcb" stroke-width="1.51"/><path d="M696,-226L674,-88L890,-93Z" fill="#db8377" stroke="#db8377" stroke-width="1.51"/><path d="M666,1187L702,1353L894,1324Z" fill="#91837b" stroke="#91837b" stroke-width="1.51"/><path d="M790,22L834,191L899,103Z" fill="#f5b49f" stroke="#f5b49f" stroke-width="1.51"/><path d="M674,-88L790,22L890,-93Z" fill="#e69383" stroke="#e69383" stroke-width="1.51"/><path d="M790,22L762,213L834,191Z" fill="#f6b7a1" stroke="#f6b7a1" stroke-width="1.51"/><path d="M822,723L678,875L839,859Z" fill="#e2d5ce" stroke="#e2d5ce" stroke-width="1.51"/><path d="M678,875L765,930L839,859Z" fill="#d9cac2" stroke="#d9cac2" stroke-width="1.51"/><path d="M735,653L678,875L822,723Z" fill="#e9dad1" stroke="#e9dad1" stroke-width="1.51"/><path d="M765,930L666,1187L830,1030Z" fill="#bfb0a8" stroke="#bfb0a8" stroke-width="1.51"/><path d="M573,250L725,429L762,213Z" fill="#fbcab1" stroke="#fbcab1" stroke-width="1.51"/><path d="M546,982L666,1187L765,930Z" fill="#c1aa9e" stroke="#c1aa9e" stroke-width="1.51"/><path d="M632,891L546,982L765,930Z" fill="#d1b8ac" stroke="#d1b8ac" stroke-width="1.51"/><path d="M674,-88L576,-34L790,22Z" fill="#e58d79" stroke="#e58d79" stroke-width="1.51"/><path d="M576,-34L550,91L790,22Z" fill="#e9927a" stroke="#e9927a" stroke-width="1.51"/><path d="M550,91L762,213L790,22Z" fill="#f2a990" stroke="#f2a990" stroke-width="1.51"/><path d="M546,982L520,1070L666,1187Z" fill="#b7988a" stroke="#b7988a" stroke-width="1.51"/><path d="M525,689L678,875L735,653Z" fill="#ebd1c4" stroke="#ebd1c4" stroke-width="1.51"/><path d="M707,474L648,476L735,653Z" fill="#ffeade" stroke="#ffeade" stroke-width="1.51"/><path d="M550,91L573,250L762,213Z" fill="#f6b193" stroke="#f6b193" stroke-width="1.51"/><path d="M678,875L632,891L765,930Z" fill="#d7c3b8" stroke="#d7c3b8" stroke-width="1.51"/><path d="M525,689L632,891L678,875Z" fill="#e1c5b7" stroke="#e1c5b7" stroke-width="1.51"/><path d="M471,-264L528,-204L696,-226Z" fill="#bd665b" stroke="#bd665b" stroke-width="1.51"/><path d="M666,1187L614,1355L702,1353Z" fill="#8e796e" stroke="#8e796e" stroke-width="1.51"/><path d="M551,435L648,476L725,429Z" fill="#fedac7" stroke="#fedac7" stroke-width="1.51"/><path d="M573,250L551,435L725,429Z" fill="#fccfb7" stroke="#fccfb7" stroke-width="1.51"/><path d="M648,476L525,689L735,653Z" fill="#f9ddd0" stroke="#f9ddd0" stroke-width="1.51"/><path d="M648,476L707,474L725,429Z" fill="#fee1d1" stroke="#fee1d1" stroke-width="1.51"/><path d="M528,-204L674,-88L696,-226Z" fill="#cd7366" stroke="#cd7366" stroke-width="1.51"/><path d="M551,435L525,689L648,476Z" fill="#fedccc" stroke="#fedccc" stroke-width="1.51"/><path d="M528,-204L576,-34L674,-88Z" fill="#db7664" stroke="#db7664" stroke-width="1.51"/><path d="M457,1357L614,1355L666,1187Z" fill="#8d7063" stroke="#8d7063" stroke-width="1.51"/><path d="M445,1089L457,1357L520,1070Z" fill="#a37c6b" stroke="#a37c6b" stroke-width="1.51"/><path d="M520,1070L457,1357L666,1187Z" fill="#9f7e6f" stroke="#9f7e6f" stroke-width="1.51"/><path d="M493,685L525,689L551,435Z" fill="#f8d1c0" stroke="#f8d1c0" stroke-width="1.51"/><path d="M525,689L417,796L632,891Z" fill="#e4bead" stroke="#e4bead" stroke-width="1.51"/><path d="M402,507L493,685L551,435Z" fill="#fdd2c0" stroke="#fdd2c0" stroke-width="1.51"/><path d="M449,297L551,435L573,250Z" fill="#f9bda0" stroke="#f9bda0" stroke-width="1.51"/><path d="M417,796L546,982L632,891Z" fill="#d8b3a3" stroke="#d8b3a3" stroke-width="1.51"/><path d="M493,685L417,796L525,689Z" fill="#ecc1ae" stroke="#ecc1ae" stroke-width="1.51"/><path d="M417,796L440,977L546,982Z" fill="#d2a795" stroke="#d2a795" stroke-width="1.51"/><path d="M550,91L495,82L573,250Z" fill="#f09e7f" stroke="#f09e7f" stroke-width="1.51"/><path d="M495,82L449,297L573,250Z" fill="#f5a885" stroke="#f5a885" stroke-width="1.51"/><path d="M528,-204L403,-30L576,-34Z" fill="#d96f5b" stroke="#d96f5b" stroke-width="1.51"/><path d="M495,82L550,91L576,-34Z" fill="#e88b6f" stroke="#e88b6f" stroke-width="1.51"/><path d="M403,-30L495,82L576,-34Z" fill="#e37e64" stroke="#e37e64" stroke-width="1.51"/><path d="M231,1298L153,1322L457,1357Z" fill="#7c483d" stroke="#7c483d" stroke-width="1.51"/><path d="M340,156L449,297L495,82Z" fill="#ef9776" stroke="#ef9776" stroke-width="1.51"/><path d="M440,977L520,1070L546,982Z" fill="#c39d8c" stroke="#c39d8c" stroke-width="1.51"/><path d="M449,297L389,387L551,435Z" fill="#f9bda1" stroke="#f9bda1" stroke-width="1.51"/><path d="M389,387L402,507L551,435Z" fill="#fac3ac" stroke="#fac3ac" stroke-width="1.51"/><path d="M445,1089L322,1096L457,1357Z" fill="#9f7263" stroke="#9f7263" stroke-width="1.51"/><path d="M440,977L445,1089L520,1070Z" fill="#bc9381" stroke="#bc9381" stroke-width="1.51"/><path d="M471,-264L403,-30L528,-204Z" fill="#c96051" stroke="#c96051" stroke-width="1.51"/><path d="M402,507L347,696L493,685Z" fill="#f2c0af" stroke="#f2c0af" stroke-width="1.51"/><path d="M322,1096L231,1298L457,1357Z" fill="#8e5d4f" stroke="#8e5d4f" stroke-width="1.51"/><path d="M262,-65L403,-30L471,-264Z" fill="#ce574a" stroke="#ce574a" stroke-width="1.51"/><path d="M220,-236L262,-65L471,-264Z" fill="#b94841" stroke="#b94841" stroke-width="1.51"/><path d="M347,696L417,796L493,685Z" fill="#e9b8a7" stroke="#e9b8a7" stroke-width="1.51"/><path d="M403,-30L340,156L495,82Z" fill="#e47f64" stroke="#e47f64" stroke-width="1.51"/><path d="M417,796L316,957L440,977Z" fill="#d09d8d" stroke="#d09d8d" stroke-width="1.51"/><path d="M340,156L310,290L449,297Z" fill="#ef9b7c" stroke="#ef9b7c" stroke-width="1.51"/><path d="M440,977L322,1096L445,1089Z" fill="#b88878" stroke="#b88878" stroke-width="1.51"/><path d="M389,387L343,483L402,507Z" fill="#f7baa5" stroke="#f7baa5" stroke-width="1.51"/><path d="M316,957L322,1096L440,977Z" fill="#be8a7b" stroke="#be8a7b" stroke-width="1.51"/><path d="M325,359L389,387L449,297Z" fill="#f4af93" stroke="#f4af93" stroke-width="1.51"/><path d="M310,290L325,359L449,297Z" fill="#f2a58a" stroke="#f2a58a" stroke-width="1.51"/><path d="M343,483L347,696L402,507Z" fill="#f6bfaf" stroke="#f6bfaf" stroke-width="1.51"/><path d="M262,-65L340,156L403,-30Z" fill="#da6a54" stroke="#da6a54" stroke-width="1.51"/><path d="M347,696L226,811L417,796Z" fill="#dfa697" stroke="#dfa697" stroke-width="1.51"/><path d="M226,811L316,957L417,796Z" fill="#d59b8d" stroke="#d59b8d" stroke-width="1.51"/><path d="M220,-236L188,-156L262,-65Z" fill="#bc3c3a" stroke="#bc3c3a" stroke-width="1.51"/><path d="M325,359L343,483L389,387Z" fill="#f5b29b" stroke="#f5b29b" stroke-width="1.51"/><path d="M140,145L310,290L340,156Z" fill="#e68468" stroke="#e68468" stroke-width="1.51"/><path d="M262,-65L140,145L340,156Z" fill="#da6953" stroke="#da6953" stroke-width="1.51"/><path d="M325,359L78,371L343,483Z" fill="#efa38e" stroke="#efa38e" stroke-width="1.51"/><path d="M84,714L226,811L347,696Z" fill="#dd9b8e" stroke="#dd9b8e" stroke-width="1.51"/><path d="M343,483L78,533L347,696Z" fill="#f0afa1" stroke="#f0afa1" stroke-width="1.51"/><path d="M78,533L84,714L347,696Z" fill="#e49e93" stroke="#e49e93" stroke-width="1.51"/><path d="M78,371L78,533L343,483Z" fill="#ec9f8f" stroke="#ec9f8f" stroke-width="1.51"/><path d="M88,1090L231,1298L322,1096Z" fill="#995d52" stroke="#995d52" stroke-width="1.51"/><path d="M316,957L116,1049L322,1096Z" fill="#b4786b" stroke="#b4786b" stroke-width="1.51"/><path d="M140,145L106,228L310,290Z" fill="#e37f65" stroke="#e37f65" stroke-width="1.51"/><path d="M116,1049L88,1090L322,1096Z" fill="#a7675d" stroke="#a7675d" stroke-width="1.51"/><path d="M310,290L78,371L325,359Z" fill="#ec9881" stroke="#ec9881" stroke-width="1.51"/><path d="M226,811L116,1049L316,957Z" fill="#c28276" stroke="#c28276" stroke-width="1.51"/><path d="M106,228L78,371L310,290Z" fill="#e58872" stroke="#e58872" stroke-width="1.51"/><path d="M88,1090L31,1235L153,1322Z" fill="#874640" stroke="#874640" stroke-width="1.51"/><path d="M33,956L116,1049L226,811Z" fill="#bc776e" stroke="#bc776e" stroke-width="1.51"/><path d="M88,1090L153,1322L231,1298Z" fill="#874a41" stroke="#874a41" stroke-width="1.51"/><path d="M53,-22L140,145L262,-65Z" fill="#cd5143" stroke="#cd5143" stroke-width="1.51"/><path d="M97,-102L53,-22L262,-65Z" fill="#c33e3a" stroke="#c33e3a" stroke-width="1.51"/><path d="M188,-156L97,-102L262,-65Z" fill="#c23c38" stroke="#c23c38" stroke-width="1.51"/><path d="M84,785L33,956L226,811Z" fill="#c9837a" stroke="#c9837a" stroke-width="1.51"/><path d="M84,714L84,785L226,811Z" fill="#d48e84" stroke="#d48e84" stroke-width="1.51"/><path d="M-39,-218L188,-156L220,-236Z" fill="#a82930" stroke="#a82930" stroke-width="1.51"/><path d="M78,533L22,598L84,714Z" fill="#e0958c" stroke="#e0958c" stroke-width="1.51"/><path d="M53,-22L10,98L140,145Z" fill="#cc5145" stroke="#cc5145" stroke-width="1.51"/><path d="M-39,-218L97,-102L188,-156Z" fill="#af262f" stroke="#af262f" stroke-width="1.51"/><path d="M31,1235L-197,1354L153,1322Z" fill="#6f2d2c" stroke="#6f2d2c" stroke-width="1.51"/><path d="M10,98L106,228L140,145Z" fill="#d66553" stroke="#d66553" stroke-width="1.51"/><path d="M-76,297L78,371L106,228Z" fill="#dd7a68" stroke="#dd7a68" stroke-width="1.51"/><path d="M33,956L88,1090L116,1049Z" fill="#aa655e" stroke="#aa655e" stroke-width="1.51"/><path d="M-84,388L78,533L78,371Z" fill="#e28b7f" stroke="#e28b7f" stroke-width="1.51"/><path d="M22,598L-22,655L84,714Z" fill="#da8d86" stroke="#da8d86" stroke-width="1.51"/><path d="M-79,892L33,956L84,785Z" fill="#c0756f" stroke="#c0756f" stroke-width="1.51"/><path d="M-58,1096L31,1235L88,1090Z" fill="#914b47" stroke="#914b47" stroke-width="1.51"/><path d="M10,98L-76,297L106,228Z" fill="#d66855" stroke="#d66855" stroke-width="1.51"/><path d="M33,956L-58,1096L88,1090Z" fill="#a35c57" stroke="#a35c57" stroke-width="1.51"/><path d="M-39,-218L53,-22L97,-102Z" fill="#b6222e" stroke="#b6222e" stroke-width="1.51"/><path d="M84,714L-22,655L84,785Z" fill="#d68a83" stroke="#d68a83" stroke-width="1.51"/><path d="M-39,-218L-134,-57L53,-22Z" fill="#ae1d2c" stroke="#ae1d2c" stroke-width="1.51"/><path d="M-84,388L22,598L78,533Z" fill="#e39189" stroke="#e39189" stroke-width="1.51"/><path d="M-22,655L-134,726L84,785Z" fill="#ce827d" stroke="#ce827d" stroke-width="1.51"/><path d="M-134,726L-79,892L84,785Z" fill="#c17875" stroke="#c17875" stroke-width="1.51"/><path d="M-76,297L-84,388L78,371Z" fill="#d87c6f" stroke="#d87c6f" stroke-width="1.51"/><path d="M-113,1011L-58,1096L33,956Z" fill="#9f5b58" stroke="#9f5b58" stroke-width="1.51"/><path d="M-134,-57L-102,22L53,-22Z" fill="#b33033" stroke="#b33033" stroke-width="1.51"/><path d="M-102,22L10,98L53,-22Z" fill="#c13e3a" stroke="#c13e3a" stroke-width="1.51"/><path d="M-126,284L-76,297L10,98Z" fill="#cb6556" stroke="#cb6556" stroke-width="1.51"/><path d="M-84,388L-198,579L22,598Z" fill="#d38c88" stroke="#d38c88" stroke-width="1.51"/><path d="M-79,892L-113,1011L33,956Z" fill="#a96461" stroke="#a96461" stroke-width="1.51"/><path d="M-58,1096L-197,1354L31,1235Z" fill="#733635" stroke="#733635" stroke-width="1.51"/><path d="M-224,1130L-197,1354L-58,1096Z" fill="#6c3738" stroke="#6c3738" stroke-width="1.51"/><path d="M-102,22L-126,284L10,98Z" fill="#c25247" stroke="#c25247" stroke-width="1.51"/><path d="M-198,579L-22,655L22,598Z" fill="#d18986" stroke="#d18986" stroke-width="1.51"/><path d="M-198,579L-134,726L-22,655Z" fill="#c48280" stroke="#c48280" stroke-width="1.51"/><path d="M-220,-222L-134,-57L-39,-218Z" fill="#920d27" stroke="#920d27" stroke-width="1.51"/><path d="M-134,726L-225,854L-79,892Z" fill="#ac6f6f" stroke="#ac6f6f" stroke-width="1.51"/><path d="M-126,284L-84,388L-76,297Z" fill="#ca7367" stroke="#ca7367" stroke-width="1.51"/><path d="M-113,1011L-224,1130L-58,1096Z" fill="#864c4c" stroke="#864c4c" stroke-width="1.51"/><path d="M-178,335L-126,284L-102,22Z" fill="#be5f51" stroke="#be5f51" stroke-width="1.51"/><path d="M-126,284L-178,335L-84,388Z" fill="#c67369" stroke="#c67369" stroke-width="1.51"/><path d="M-178,335L-198,579L-84,388Z" fill="#c57e78" stroke="#c57e78" stroke-width="1.51"/><path d="M-225,854L-113,1011L-79,892Z" fill="#a16463" stroke="#a16463" stroke-width="1.51"/><path d="M-134,-57L-178,335L-102,22Z" fill="#b34640" stroke="#b34640" stroke-width="1.51"/><path d="M-220,-222L-178,335L-134,-57Z" fill="#a43234" stroke="#a43234" stroke-width="1.51"/><path d="M-225,854L-224,1130L-113,1011Z" fill="#8c5557" stroke="#8c5557" stroke-width="1.51"/><path d="M-198,579L-225,854L-134,726Z" fill="#b17778" stroke="#b17778" stroke-width="1.51"/><path d="M-220,-222L-198,579L-178,335Z" fill="#b45e52" stroke="#b45e52" stroke-width="1.51"/><path d="M-220,-222L-225,854L-198,579Z" fill="#ba7772" stroke="#ba7772" stroke-width="1.51"/></svg>
