<?xml version="1.0" encoding="UTF-8" standalone="no"?>
<!-- Created with Inkscape (http://www.inkscape.org/) -->

<svg
   xmlns:dc="http://purl.org/dc/elements/1.1/"
   xmlns:cc="http://creativecommons.org/ns#"
   xmlns:rdf="http://www.w3.org/1999/02/22-rdf-syntax-ns#"
   xmlns:svg="http://www.w3.org/2000/svg"
   xmlns="http://www.w3.org/2000/svg"
   xmlns:xlink="http://www.w3.org/1999/xlink"
   xmlns:sodipodi="http://sodipodi.sourceforge.net/DTD/sodipodi-0.dtd"
   xmlns:inkscape="http://www.inkscape.org/namespaces/inkscape"
   width="287.98294"
   height="128"
   id="svg2"
   version="1.1"
   inkscape:version="0.48.5 r10040"
   sodipodi:docname="researchcase_question_and_answer.svg">
  <defs
     id="defs4" />
  <sodipodi:namedview
     id="base"
     pagecolor="#ffffff"
     bordercolor="#666666"
     borderopacity="1.0"
     inkscape:pageopacity="0.0"
     inkscape:pageshadow="2"
     inkscape:zoom="2.4819201"
     inkscape:cx="117.8523"
     inkscape:cy="64.000001"
     inkscape:document-units="px"
     inkscape:current-layer="layer1"
     showgrid="false"
     fit-margin-top="0"
     fit-margin-left="0"
     fit-margin-right="0"
     fit-margin-bottom="0"
     inkscape:window-width="1676"
     inkscape:window-height="1046"
     inkscape:window-x="0"
     inkscape:window-y="0"
     inkscape:window-maximized="0"
     inkscape:snap-page="true"
     inkscape:snap-object-midpoints="true"
     inkscape:snap-nodes="false"
     inkscape:snap-bbox="true" />
  <metadata
     id="metadata7">
    <rdf:RDF>
      <cc:Work
         rdf:about="">
        <dc:format>image/svg+xml</dc:format>
        <dc:type
           rdf:resource="http://purl.org/dc/dcmitype/StillImage" />
        <dc:title />
      </cc:Work>
    </rdf:RDF>
  </metadata>
  <g
     inkscape:label="Layer 1"
     inkscape:groupmode="layer"
     id="layer1"
     transform="translate(-176.1019,-417.58612)">
    <text
       xml:space="preserve"
       style="font-size:8.52505016px;font-style:normal;font-variant:normal;font-weight:normal;font-stretch:normal;text-align:start;line-height:125%;letter-spacing:4.07781553px;word-spacing:0px;writing-mode:lr-tb;text-anchor:start;fill:#000000;fill-opacity:1;stroke:none;font-family:EB Garamond;-inkscape-font-specification:EB Garamond"
       x="250.58539"
       y="511.59232"
       id="text3028"
       sodipodi:linespacing="125%"><tspan
         sodipodi:role="line"
         id="tspan3030"
         x="250.58539"
         y="511.59232" /></text>
    <text
       xml:space="preserve"
       style="font-size:8.52505016px;font-style:normal;font-variant:normal;font-weight:normal;font-stretch:normal;text-align:start;line-height:125%;letter-spacing:4.07781553px;word-spacing:0px;writing-mode:lr-tb;text-anchor:start;fill:#000000;fill-opacity:1;stroke:none;font-family:EB Garamond;-inkscape-font-specification:EB Garamond"
       x="243.18663"
       y="470.77972"
       id="text3072"
       sodipodi:linespacing="125%"><tspan
         sodipodi:role="line"
         id="tspan3074"
         x="243.18663"
         y="470.77972" /></text>
    <g
       id="g3876">
      <path
         inkscape:connector-curvature="0"
         id="path3007"
         d="m 242.79257,452.0655 c -0.0823,0.0115 -0.25736,0.13318 -0.4303,0.25426 -2.08748,-0.0658 -4.03806,0.11473 -6.6304,0.88015 -22.98043,1.20107 -31.67454,23.96645 -23.99855,40.01713 3.56391,10.24063 13.59988,18.15303 25.40678,17.13344 -0.24932,0.8785 1.89301,1.27085 10.91376,-0.39117 0.14292,-0.0263 0.26767,-0.0604 0.39118,-0.11736 l 3.69659,-0.29338 c 0.69919,-0.87897 1.16071,-3.23696 2.11234,-2.64042 0.95136,0.59634 -2.38774,3.67406 -1.4669,3.0316 7.01557,-4.8947 14.79413,-9.54243 16.97697,-17.32903 3.19435,-11.39488 1.28023,-27.41534 -8.03864,-34.57981 -3.38629,-2.60343 -7.81691,-3.33241 -11.95037,-4.5963 0.45252,-0.28975 0.73514,-0.52916 0.37161,-0.48897 -0.42238,0.0467 -0.83325,0.12475 -1.25175,0.19559 -0.40807,-0.13498 -0.81362,-0.27912 -1.21264,-0.43029 -1.7455,-0.13096 -3.19609,-0.27822 -4.55719,-0.35206 -0.15224,-0.20647 -0.23113,-0.30759 -0.33249,-0.29338 z m 0.72367,2.34705 c -1.56732,0.40601 -3.1293,0.7598 -4.73321,0.93881 -0.87361,0.0975 -1.79605,-0.35429 -2.67955,-0.62587 0.045,-0.0284 0.0917,-0.0496 0.13691,-0.0782 0.0607,-0.0215 0.1506,-0.0642 0.19559,-0.0782 l 7.08026,-0.15647 z m -13.24125,3.87262 c -0.86438,1.01234 -1.71507,2.05233 -2.69911,2.91425 -0.42994,0.37659 -1.03926,0.45767 -1.54514,0.72367 -1.28159,0.67391 -2.54329,1.39849 -3.81395,2.09279 -0.0388,0.0277 -0.0788,0.0504 -0.11735,0.0782 1.77408,-1.90434 4.5231,-3.60774 8.17555,-5.80894 z m 14.35609,5.57424 c 4.56325,0 7.70614,4.00347 7.70614,8.56672 0,5.51557 -2.91365,14.87038 -13.98448,18.60034 -0.23808,0.11904 -0.31632,0.4096 -0.0782,0.48897 2.93636,0.83328 5.91418,5.43732 9.5251,5.43732 2.93635,0 5.3702,-2.50352 5.96541,-2.50352 0.27776,0 0.54764,0.2682 0.54764,0.665 0,1.38882 -3.48932,4.20512 -8.44937,4.20512 -4.84101,0 -6.99257,-5.94585 -11.7939,-5.94585 -3.01571,0 -6.65601,1.38867 -7.60834,1.38867 -0.55553,0 -1.27132,0.008 -1.27132,-0.54764 -0.0794,-0.75393 0.36092,-1.38473 1.11485,-1.66249 4.08708,-1.54754 7.22404,-1.76409 10.87464,-2.87513 0.35712,-0.0794 0.27889,-0.5074 -0.0782,-0.58677 -4.24581,-0.7936 -7.27584,-4.8853 -7.27584,-9.3295 0,-8.57097 7.06827,-15.90124 14.80594,-15.90124 z m -0.58676,1.85808 c -5.75366,0 -10.28788,8.0227 -10.28788,16.03814 0,2.53955 1.70019,5.71115 4.55718,5.71115 6.03142,0 10.0923,-7.50757 10.0923,-14.61036 0,-3.41252 -0.94909,-7.13893 -4.3616,-7.13893 z m 10.1901,38.88273 c 1.27634,0.001 2.33775,0.18199 1.56469,0.91926 -1.44633,1.37937 -3.73815,1.33641 -5.65247,1.99499 0.069,-0.14002 0.14288,-0.27457 0.21515,-0.41074 -4.67998,3.23388 -3.83336,3.4141 -7.23673,1.97543 2.71118,-0.91829 5.45792,-2.31425 8.21467,-4.28336 0.11101,-0.0106 1.61834,-0.19701 2.89469,-0.19558 z m -3.87263,2.50351 c 0.34268,-0.23679 0.62902,-0.43359 1.03661,-0.70411 0.1293,-0.0858 -0.22637,-0.44571 -0.3325,-0.3325 -0.27187,0.29001 -0.50033,0.65266 -0.70411,1.03661 z m -9.70112,0.68456 c -0.0399,0.0203 -0.3029,0.16759 -0.46941,0.25426 -0.0199,-0.005 -0.0387,-0.0147 -0.0587,-0.0196 0.23545,-0.10912 0.57801,-0.26003 0.52809,-0.2347 z m 5.92629,2.19058 c -0.92331,0.12052 -1.82587,0.19314 -2.69911,0.21514 l 2.69911,-0.21514 z"
         style="fill:#fafafa;fill-opacity:1;stroke:none" />
      <path
         id="path3067"
         style="fill:#fafafa;fill-opacity:1;fill-rule:nonzero;stroke:none"
         d="m 337.23846,466.9957 c -0.0573,-0.11506 -0.0864,-0.23021 -0.0864,-0.34528 0,-0.40293 0.28771,-0.60432 0.86332,-0.60432 0.92098,0 1.69797,0.31662 2.331,0.94962 6.33104,6.5613 11.82751,11.05053 16.48956,13.4679 0.69064,0.40294 1.03593,0.77696 1.03593,1.12226 0,0.40294 -0.37402,0.77696 -1.12226,1.12226 -4.66206,2.41737 -10.15852,6.9066 -16.48956,13.46789 -0.63298,0.63307 -1.41003,0.94964 -2.33101,0.94964 -0.57558,0 -0.8633,-0.20139 -0.8633,-0.60432 0,-0.11507 0.0295,-0.2303 0.0864,-0.34528 1.66913,-4.31658 4.43171,-8.51811 8.28793,-12.60449 l -64.14504,0 c -0.28773,0 -0.56113,-0.10073 -0.82012,-0.3022 -0.25897,-0.20147 -0.38847,-0.41727 -0.38847,-0.64757 l 0.0864,-0.0864 0,-0.17264 c 0.69062,-1.84169 1.58275,-2.76265 2.67634,-2.76265 l 62.59096,0 c -3.68353,-3.79866 -6.4173,-8.00019 -8.2016,-12.60451"
         inkscape:connector-curvature="0" />
      <g
         id="g3095"
         transform="matrix(0.62497322,0,0,0.62497322,99.157274,197.57652)">
        <path
           inkscape:connector-curvature="0"
           id="use3026"
           transform="translate(117.91447,407.26752)"
           d="m 364.25,0 c -0.13143,0.01842229 -0.41119,0.21279072 -0.6875,0.40625 C 360.22722,0.30105764 357.11067,0.58955364 352.96875,1.8125 316.2517,3.7315251 302.36066,40.104966 314.625,65.75 c 5.69733,16.370853 21.74723,29.020394 40.625,27.375 -0.40332,1.405452 2.98441,2.032143 17.40625,-0.625 0.2186,-0.04028 0.40366,-0.102271 0.59375,-0.1875 l 5.96875,-0.46875 c 1.11713,-1.40439 1.82327,-5.17186 3.34375,-4.21875 1.52003,0.95281 -3.81503,5.87025 -2.34375,4.84375 11.20915,-7.82052 23.63737,-15.24644 27.125,-27.6875 C 412.44753,46.57504 409.38925,20.9783 394.5,9.53125 389.08953,5.3716153 382.01049,4.2068863 375.40625,2.1875 376.12926,1.724545 376.58083,1.342025 376,1.40625 c -0.67487,0.07462 -1.33133,0.1993147 -2,0.3125 -0.65198,-0.2156647 -1.29995,-0.4459616 -1.9375,-0.6875 -2.78888,-0.20924605 -5.10656,-0.44452681 -7.28125,-0.5625 C 364.53801,0.13886087 364.41195,-0.02270074 364.25,0 z m 1.15625,3.75 c -2.50102,0.6477486 -5.00312,1.2143501 -7.5625,1.5 -1.39582,0.155784 -2.86964,-0.5660777 -4.28125,-1 0.0719,-0.04545 0.14653,-0.079271 0.21875,-0.125 0.0969,-0.034423 0.24061,-0.1026078 0.3125,-0.125 l 11.3125,-0.25 z M 344.25,9.9375 c -1.38105,1.617459 -2.74025,3.279118 -4.3125,4.65625 -0.68694,0.60169 -1.66049,0.73124 -2.46875,1.15625 -2.04767,1.07673 -4.06356,2.23444 -6.09375,3.34375 -0.0551,0.03936 -0.10142,0.08555 -0.15625,0.125 2.83475,-3.037927 7.20287,-5.768693 13.03125,-9.28125 z M 372.96875,27.5 c 0.88759,0 1.0027,0.32486 0.8125,1.65625 l -3.875,28.03125 c -0.3804,2.85298 0.0106,4.80531 1.46875,5.3125 1.71179,0.634 3.0625,0.95526 3.0625,1.90625 0,0.634 -0.95436,1.0625 -1.96875,1.0625 -0.76079,0 -4.01932,-0.375 -7.0625,-0.375 -2.97977,0 -4.799,0.375 -5.75,0.375 -1.01439,0 -2.09375,-0.4285 -2.09375,-1.0625 0,-0.95099 2.01057,-1.20975 3.46875,-1.84375 2.09219,-0.95099 2.9928,-2.20502 3.5,-5.375 l 0.6875,-4.84375 c 0.0634,-0.4438 -0.0535,-0.6875 -0.6875,-0.6875 l -9.4375,0 c -0.634,0 -1.08746,0.2419 -1.53125,0.8125 L 349,57.75 c -2.15558,2.47258 -1.70819,4.24281 -0.25,4.75 1.71179,0.634 3.03125,0.95526 3.03125,1.90625 0,0.634 -0.95435,1.0625 -1.96875,1.0625 -0.76079,0 -4.73808,-0.375 -7.78125,-0.375 -2.97978,0 -4.70526,0.375 -5.65625,0.375 -1.01439,0 -2.09375,-0.4285 -2.09375,-1.0625 0,-0.95099 2.04181,-1.20975 3.5,-1.84375 2.09218,-0.95099 4.48358,-1.78978 7.84375,-5.59375 l 20.3125,-23.25 c 1.07779,-1.14119 1.96066,-3.36781 2.53125,-3.875 1.39479,-1.20459 3.67581,-2.34375 4.5,-2.34375 z m -6.0625,9.90625 c -0.19391,0.08693 -0.4783,0.375729 -0.90625,0.875 l -7.875,9 c -0.88759,1.0144 -0.50719,1.21875 0,1.21875 l 7.03125,0 c 0.634,0 0.65445,-0.39905 0.78125,-0.90625 l 1.25,-9.1875 c 0.0793,-0.752869 0.0419,-1.144877 -0.28125,-1 z m 15.625,46.53125 c 2.03928,0.0023 3.73516,0.290785 2.5,1.46875 -2.31088,2.203897 -5.97265,2.135255 -9.03125,3.1875 0.11018,-0.223708 0.22829,-0.438697 0.34375,-0.65625 -7.4653,5.159807 -6.12735,5.453798 -11.5625,3.15625 4.33179,-1.467202 8.72041,-3.697612 13.125,-6.84375 0.17737,-0.01695 2.58572,-0.314785 4.625,-0.3125 z m -6.1875,4 c 0.55044,-0.380446 1.00081,-0.689978 1.65625,-1.125 0.20658,-0.13711 -0.36168,-0.71214 -0.53125,-0.53125 -0.43439,0.463358 -0.79941,1.042789 -1.125,1.65625 z m -15.5,1.09375 c -0.0638,0.03237 -0.48395,0.267769 -0.75,0.40625 -0.0318,-0.0078 -0.0619,-0.02349 -0.0937,-0.03125 0.37619,-0.174345 0.92352,-0.415464 0.84375,-0.375 z m 9.46875,3.5 c -1.46588,0.191345 -2.89417,0.307986 -4.28125,0.34375 l 4.28125,-0.34375 z"
           style="fill:#fafafa;fill-opacity:1;stroke:none" />
      </g>
    </g>
    <g
       id="g4590">
      <g
         id="g3305"
         transform="matrix(0.18399793,0,0,-0.18399793,118.25943,516.32071)">
        <path
           sodipodi:nodetypes="ssccsssssccs"
           id="path3307"
           d="m 362.36479,-64.052932 c 0,-13.333333 3.5,-24.5 10.5,-33.499999 7,-8.999999 15.16667,-14.166669 24.5,-15.499999 l 112,-13 c 17.33333,-2.66667 26,-8.66667 26,-18 0,-10 -8.66667,-15 -26,-15 l -164,0 c -12.66667,0 -21,1.33333 -25,4 -4,2.66667 -6,9.66667 -6,21 l 0,268.13173 48,0 z"
           inkscape:connector-curvature="0"
           style="fill:#fafafa;fill-opacity:1" />
      </g>
      <use
         height="128"
         width="287.98294"
         transform="matrix(1,0,0,-1,-1.5899256e-6,963.17224)"
         id="use4572"
         xlink:href="#g3305"
         y="0"
         x="0" />
      <use
         height="128"
         width="287.98294"
         transform="matrix(-1,0,0,-1,640.18674,963.17224)"
         id="use4574"
         xlink:href="#g3305"
         y="0"
         x="0" />
      <use
         height="128"
         width="287.98294"
         transform="matrix(-1,0,0,1,640.18674,-1.8434836e-6)"
         id="use4576"
         xlink:href="#g3305"
         y="0"
         x="0" />
    </g>
  </g>
</svg>
